<svg width="46" height="46" viewBox="0 0 46 46" fill="none" xmlns="http://www.w3.org/2000/svg">
<path d="M38.1611 0H38.9832C40.6282 0.0763672 42.2463 0.70707 43.4826 1.79957C44.9884 3.09152 45.9066 5.01688 46 6.99613V7.48039C45.9524 9.97445 44.5364 12.385 42.373 13.6302C41.4323 14.145 40.8025 15.1791 40.8088 16.2563C40.8079 17.48 40.7971 18.7046 40.8133 19.9282C41.0415 20.4574 41.2751 20.9902 41.3892 21.5589C41.5923 22.4133 41.5429 23.2956 41.5482 24.1662C41.5482 27.3898 41.5482 30.6134 41.5482 33.837C42.3784 34.1415 43.001 34.951 43.028 35.8423C43.0387 36.7542 43.0289 37.667 43.0316 38.5789C42.5374 38.5789 42.0433 38.578 41.5482 38.5789C41.5482 41.0532 41.5482 43.5266 41.5482 46H1.48332C1.48332 43.5266 1.48422 41.0523 1.48332 38.5789C0.98918 38.578 0.494141 38.5789 0 38.5789V35.8207C0.0458203 34.9375 0.656758 34.1388 1.48422 33.8361C1.48332 30.4723 1.48332 27.1077 1.48332 23.743C0.98918 23.7421 0.494141 23.743 0 23.743V19.2921C0.433047 19.293 0.865195 19.2921 1.29824 19.293C0.535469 18.0227 0.916406 16.2267 2.14457 15.3929C1.87504 14.0543 1.86246 12.6626 2.14906 11.3257C0.927187 10.4857 0.525586 8.69059 1.30004 7.42109C2.0134 6.11477 3.76984 5.56223 5.10941 6.20281C6.12195 5.2927 7.32227 4.59191 8.61961 4.17504C8.70856 3.35117 9.13531 2.56594 9.80734 2.07539C10.7354 1.35934 12.0975 1.29195 13.0965 1.90289C13.9015 2.37547 14.4442 3.24426 14.5367 4.17145C15.8332 4.59461 17.0362 5.2909 18.0505 6.20281C18.8169 5.85602 19.7252 5.84523 20.4934 6.19113C21.5751 6.65383 22.3037 7.81461 22.2552 8.98977C22.2354 9.90887 21.7548 10.7911 21.01 11.3266C21.2921 12.6599 21.2912 14.0507 21.01 15.3839C21.6488 15.8457 22.0908 16.5573 22.2237 17.3345C24.3027 16.6768 26.4805 16.3327 28.6611 16.3246C30.6978 16.3183 32.7337 16.3228 34.7704 16.3219C35.3041 16.3183 35.836 16.3776 36.358 16.489C36.393 15.6661 36.1163 14.8242 35.5449 14.2232C35.1693 13.8 34.6402 13.5736 34.1936 13.2403C33.014 12.3921 32.1021 11.1793 31.6061 9.81453C31.0617 8.33301 31.0177 6.67449 31.4839 5.16781C31.9439 3.66023 32.9107 2.31617 34.1873 1.39438C35.3373 0.549844 36.7389 0.0736719 38.1611 0ZM35.8881 2.09426C34.4775 2.78695 33.3805 4.07531 32.9107 5.57391C33.5719 5.99977 34.4578 6.05637 35.155 5.68082C35.6599 5.43105 35.9806 4.95129 36.3553 4.55059C36.7129 4.93332 37.0174 5.38973 37.4882 5.64578C38.1548 6.03031 39.0209 6.02762 39.6849 5.63859C40.1485 5.38074 40.4513 4.93062 40.8061 4.55059C41.1718 4.94051 41.4818 5.40859 41.9687 5.66195C42.6704 6.05727 43.5769 6.00785 44.2507 5.57301C43.665 3.68809 42.0693 2.15535 40.1521 1.67289C38.7415 1.32789 37.1935 1.4357 35.8881 2.09426ZM11.1802 3.02234C10.6285 3.17148 10.1901 3.66473 10.1119 4.23164C9.96187 5.0627 10.6546 5.90723 11.4964 5.93238C12.3643 6.00695 13.1612 5.18668 13.0561 4.32059C13.0058 3.42844 12.0355 2.75281 11.1802 3.02234ZM6.2702 7.15965C6.79129 7.88379 6.96469 8.83613 6.7302 9.69684C7.63941 10.226 8.55313 10.748 9.46324 11.2763C9.84328 10.8962 10.3186 10.6168 10.8379 10.4776C10.837 9.42731 10.8387 8.37613 10.837 7.32586C9.97445 7.09855 9.23234 6.47145 8.86848 5.65656C7.91883 5.99078 7.03387 6.50469 6.2702 7.15965ZM14.2914 5.65656C13.924 6.46965 13.1864 7.09855 12.323 7.32496C12.3203 8.37613 12.3212 9.4273 12.3221 10.4785C12.8414 10.6159 13.3157 10.8954 13.694 11.2754C14.6077 10.7525 15.5178 10.2233 16.4297 9.69684C16.1916 8.83523 16.3695 7.88289 16.8888 7.15785C16.1234 6.50559 15.2402 5.99168 14.2914 5.65656ZM32.6474 7.11293C32.5612 9.21348 33.7121 11.3014 35.535 12.3472C36.7272 13.0067 37.5763 14.233 37.7856 15.5789C38.3157 15.5789 38.8448 15.5789 39.3749 15.5789C39.5816 14.2277 40.4387 13.0013 41.6345 12.3418C43.4529 11.2952 44.5984 9.20898 44.514 7.11293C43.3128 7.63672 41.8519 7.46961 40.8061 6.67898C39.5304 7.65469 37.6302 7.65738 36.3553 6.67809C35.3095 7.46871 33.8486 7.63672 32.6474 7.11293ZM3.35926 7.51004C2.69801 7.73734 2.26945 8.47855 2.40871 9.16496C2.5282 9.9457 3.35027 10.5225 4.12562 10.3626C4.94949 10.2413 5.53707 9.33926 5.30527 8.53695C5.12109 7.70859 4.14719 7.19559 3.35926 7.51004ZM18.8888 7.4759C18.3299 7.62594 17.887 8.12996 17.8232 8.70766C17.6848 9.51176 18.3416 10.3248 19.152 10.3796C20.0244 10.4893 20.8509 9.68695 20.771 8.81277C20.744 7.90266 19.7593 7.19738 18.8888 7.4759ZM3.55691 11.8549C3.37363 12.8441 3.37363 13.8656 3.55781 14.8548C4.44457 14.7667 5.36008 15.0884 5.98449 15.7254C6.88832 15.2105 7.78496 14.685 8.68789 14.1702C8.7409 14.0381 8.64387 13.8898 8.64207 13.7524C8.57469 13.3553 8.6259 12.9501 8.72023 12.5611C7.80922 12.0346 6.8982 11.509 5.98719 10.9825C5.35828 11.6159 4.44637 11.9465 3.55691 11.8549ZM14.4388 12.5611C14.578 13.0795 14.5798 13.6284 14.4388 14.1477C15.348 14.676 16.2617 15.1989 17.1718 15.7262C17.7998 15.092 18.7127 14.764 19.6012 14.8548C19.7836 13.8656 19.7854 12.8441 19.6012 11.8549C18.7127 11.9474 17.8007 11.6168 17.1718 10.9834C16.2608 11.509 15.3498 12.0346 14.4388 12.5611ZM11.1838 11.925C10.6654 12.0642 10.244 12.5054 10.1317 13.0309C9.91965 13.8575 10.5647 14.755 11.4111 14.8278C12.278 14.9545 13.1199 14.1729 13.0615 13.2996C13.0579 12.3787 12.066 11.6464 11.1838 11.925ZM9.46324 15.4334C8.55223 15.9598 7.64121 16.4845 6.7302 17.0119C6.94043 17.7864 6.82273 18.6336 6.41934 19.3263C7.91973 19.4224 9.40934 19.709 10.837 20.1834C10.8379 18.8654 10.8387 17.5483 10.837 16.2303C10.3159 16.0946 9.84598 15.8071 9.46324 15.4334ZM13.6949 15.4334C13.3112 15.808 12.8405 16.0928 12.3221 16.2312C12.3212 17.7379 12.3212 19.2445 12.3212 20.7521C13.0291 21.0648 13.7191 21.4187 14.3813 21.8204C15.224 21.072 16.1198 20.3846 17.064 19.7692C16.4154 19.0271 16.1647 17.9643 16.4297 17.0128C15.5187 16.4845 14.6068 15.9589 13.6949 15.4334ZM3.36645 16.41C2.76539 16.6166 2.34852 17.2401 2.38625 17.8744C2.40332 18.6776 3.1643 19.3613 3.9657 19.2859C4.82641 19.2553 5.51461 18.3659 5.32504 17.5249C5.18578 16.6588 4.18313 16.0874 3.36645 16.41ZM17.9355 17.2087C17.6534 17.8133 17.8627 18.5725 18.3802 18.9813C19.1565 18.5599 19.9552 18.1799 20.7764 17.8529C20.7943 17.1997 20.3496 16.5672 19.718 16.3857C19.0289 16.1656 18.2086 16.533 17.9355 17.2087ZM37.9257 17.0649C38.4271 17.3291 38.897 17.6525 39.3219 18.0271C39.3219 17.7064 39.3219 17.3857 39.3219 17.0649C38.8565 17.064 38.3911 17.064 37.9257 17.0649ZM15.6589 22.673C16.0802 22.9883 16.4908 23.3171 16.8888 23.6612C19.9633 20.9408 24.0161 19.355 28.1238 19.2975C30.3977 19.2859 32.6717 19.2948 34.9456 19.293C36.7955 19.3002 38.6148 20.1331 39.8457 21.5113C39.3435 19.8159 37.9257 18.4279 36.2115 17.9849C35.3913 17.7486 34.5314 17.8169 33.6896 17.807C31.8936 17.8124 30.0977 17.7962 28.3017 17.816C23.6909 17.896 19.1439 19.656 15.6589 22.673ZM1.48332 20.7728C1.48422 21.2678 1.48422 21.762 1.48332 22.2561C2.72676 22.2615 3.9702 22.2516 5.21363 22.2615C8.60344 22.292 11.9726 23.4402 14.6733 25.4896C15.8341 26.3781 16.9302 27.3574 18.1781 28.1265C18.4791 27.8183 18.7675 27.4976 19.0397 27.1634C18.1035 26.5875 17.2078 25.9424 16.392 25.2048C15.5052 24.3989 14.5628 23.6487 13.5269 23.0413C11.1101 21.5877 8.29977 20.8033 5.47957 20.7782C4.14719 20.7656 2.8148 20.7737 1.48332 20.7728ZM29.6772 20.7719C29.6781 23.2453 29.6781 25.7196 29.6772 28.193C30.1722 28.193 30.6664 28.193 31.1614 28.193C31.1614 25.7196 31.1614 23.2453 31.1614 20.7719C30.6664 20.7719 30.1722 20.7719 29.6772 20.7719ZM32.6456 20.7719C32.6456 23.2453 32.6456 25.7187 32.6456 28.1921C33.1398 28.193 33.6339 28.1921 34.1289 28.193C34.1298 25.7196 34.1289 23.2453 34.1289 20.7719C33.6339 20.7719 33.1398 20.771 32.6456 20.7719ZM26.7097 20.8707C26.7097 23.2911 26.7097 25.7124 26.7097 28.1337C27.2029 28.1723 27.6979 28.1903 28.193 28.1948C28.1948 25.7223 28.1912 23.2507 28.1948 20.7782C27.6979 20.7889 27.2038 20.8222 26.7097 20.8707ZM35.6132 20.8285C35.6132 23.2659 35.6123 25.7034 35.6141 28.1409C36.1262 28.0609 36.6266 27.91 37.0965 27.6907C37.0965 25.5525 37.0965 23.4142 37.0965 21.275C36.6266 21.0558 36.1262 20.9057 35.6132 20.8285ZM23.7412 21.4825C23.7421 23.2668 23.7421 25.0511 23.7412 26.8354C24.0018 27.1643 24.2488 27.512 24.557 27.7968C24.7771 27.8543 25.0035 27.8875 25.2254 27.9369C25.2254 25.6594 25.2263 23.3809 25.2254 21.1034C24.725 21.2094 24.2318 21.3415 23.7412 21.4825ZM20.7746 22.7368C20.7746 23.5669 20.7746 24.3971 20.7746 25.2281C21.2687 25.2281 21.7638 25.2281 22.2579 25.2281C22.2579 24.159 22.2588 23.0898 22.2579 22.0207C21.753 22.2381 21.2579 22.4762 20.7746 22.7368ZM38.5816 22.3316C38.5807 23.7646 38.5798 25.1976 38.5816 26.6297C39.1602 26.0304 39.6031 25.2964 39.8412 24.4968C39.6256 23.6801 39.1647 22.938 38.5816 22.3316ZM2.96844 23.7421C2.96754 26.8983 2.96754 30.0554 2.96844 33.2116C3.48773 32.9403 3.97469 32.6124 4.44547 32.2638C4.45984 29.4238 4.44727 26.583 4.45176 23.743C3.95672 23.7421 3.46258 23.743 2.96844 23.7421ZM18.0182 24.6459C18.4323 24.9676 18.8537 25.2793 19.2904 25.5695C19.2904 24.9325 19.2904 24.2955 19.2904 23.6586C18.8519 23.9694 18.4288 24.3 18.0182 24.6459ZM5.93598 23.7709C5.93508 26.1212 5.93598 28.4724 5.93598 30.8236C6.48941 30.1623 6.93504 29.422 7.4193 28.7114C7.4193 27.1202 7.4193 25.53 7.4193 23.9398C6.92695 23.8625 6.43281 23.8041 5.93598 23.7709ZM8.90352 28.193C9.28266 28.193 9.6618 28.193 10.0409 28.193C10.1568 28.3646 10.2718 28.5371 10.3868 28.7105C10.3868 27.3952 10.3877 26.0798 10.3859 24.7645C9.89988 24.5795 9.40754 24.4114 8.90711 24.2668C8.89812 25.5749 8.90531 26.8839 8.90352 28.193ZM11.8711 25.4536C11.8738 27.2415 11.8648 29.0294 11.8746 30.8173C12.0507 31.0635 12.278 31.2692 12.4829 31.4902C12.7309 31.2432 13.0264 31.0473 13.3544 30.9233C13.3535 29.4014 13.3571 27.8794 13.3526 26.3575C12.8719 26.034 12.3796 25.7312 11.8711 25.4536ZM21.1672 26.7114C20.8941 27.1301 20.6173 27.547 20.3119 27.9432C18.7279 30.0123 16.4738 31.5558 13.9725 32.2836C13.6473 32.3527 13.3679 32.6339 13.3589 32.9762C13.3463 33.3599 13.358 33.7444 13.3553 34.1289C18.7962 34.1289 24.2362 34.1289 29.6772 34.128C29.6601 33.6896 29.7158 33.2431 29.6448 32.8091C29.5092 32.306 28.9315 32.2683 28.5236 32.1129C25.7546 31.1776 23.3764 29.2109 21.8707 26.7141C21.6362 26.7034 21.4017 26.7052 21.1672 26.7114ZM39.8511 27.441C38.8907 28.5128 37.5843 29.2648 36.172 29.5487C36.4316 29.9458 36.7003 30.3375 36.9995 30.7068C38.3651 30.0986 39.4315 28.8749 39.8511 27.441ZM14.8386 27.512C14.8386 28.4733 14.8377 29.4346 14.8386 30.3959C15.605 30.059 16.33 29.6332 17.0047 29.1381C16.2572 28.6314 15.5403 28.0816 14.8386 27.512ZM8.55762 29.6781C8.2827 30.0878 8.01316 30.5011 7.73375 30.9089C6.36992 32.899 4.35203 34.429 2.07 35.2098C1.77172 35.2852 1.51746 35.5386 1.49141 35.8521C1.47254 36.2672 1.48871 36.6832 1.48422 37.0992C5.44094 37.0992 9.39855 37.1001 13.3553 37.0992C13.3544 36.6041 13.3553 36.1091 13.3544 35.6141C12.8602 35.6132 12.3661 35.6141 11.872 35.6141C11.872 34.7273 11.8702 33.8414 11.8729 32.9547C10.8082 32.0266 10.0095 30.8541 9.24762 29.6781C9.01762 29.6781 8.78762 29.6781 8.55762 29.6781ZM26.7375 29.6242C27.6045 30.1668 28.5434 30.5909 29.5254 30.8766C29.9126 30.988 30.2648 31.2036 30.5478 31.4911C31.0994 30.9449 31.5801 30.3312 31.9988 29.679C30.2459 29.6574 28.4895 29.7275 26.7375 29.6242ZM33.7857 29.6772C33.023 30.8541 32.2243 32.0257 31.1605 32.9547C31.1614 33.8405 31.1605 34.7273 31.1614 35.6141C30.6664 35.6141 30.1722 35.6132 29.6781 35.6141C29.6772 36.1091 29.6781 36.6041 29.6772 37.0992C33.6339 37.1001 37.5915 37.0992 41.5482 37.0992C41.5429 36.685 41.5599 36.2699 41.5411 35.8557C41.5168 35.5413 41.2625 35.2915 40.9688 35.2089C39.0281 34.5503 37.2789 33.3473 35.96 31.7786C35.402 31.1246 34.9573 30.3861 34.473 29.6781C34.2439 29.6781 34.0139 29.6781 33.7857 29.6772ZM38.0722 31.8307C38.6804 32.3653 39.3489 32.8298 40.0649 33.2107C40.064 32.1964 40.0649 31.1821 40.064 30.1677C39.5133 30.8425 38.8332 31.4085 38.0722 31.8307ZM14.8395 35.6141C14.8377 38.5807 14.8386 41.5473 14.8386 44.514C15.8278 44.5149 16.817 44.5149 17.8061 44.514C17.807 42.0424 17.8061 39.5708 17.807 37.1001C20.2795 37.0992 22.752 37.0992 25.2254 37.1001C25.2263 39.5717 25.2254 42.0424 25.2254 44.514C26.2146 44.5149 27.2038 44.5149 28.193 44.514C28.193 41.5473 28.1939 38.5807 28.193 35.6141C23.7412 35.6141 19.2904 35.6141 14.8395 35.6141ZM2.96844 38.5789C2.96664 40.5573 2.96754 42.5356 2.96754 44.514C3.95672 44.5149 4.9459 44.5149 5.93508 44.514C5.93598 43.0307 5.93508 41.5473 5.93598 40.0649C7.91434 40.064 9.89269 40.064 11.8702 40.0649C11.8711 41.5482 11.8702 43.0307 11.8711 44.514C12.3652 44.5149 12.8593 44.514 13.3544 44.5149C13.3553 42.5365 13.3544 40.5573 13.3544 38.5789C9.8927 38.5789 6.43012 38.5798 2.96844 38.5789ZM19.2904 38.5798C19.2904 40.5582 19.2904 42.5356 19.2904 44.514C20.7746 44.5149 22.2579 44.5149 23.7421 44.514C23.7421 42.5356 23.7421 40.5582 23.7421 38.5798C22.2579 38.578 20.7737 38.578 19.2904 38.5798ZM29.6772 38.5789C29.6772 40.5573 29.6763 42.5365 29.6781 44.5149C30.1722 44.514 30.6673 44.5149 31.1614 44.514C31.1614 43.0307 31.1614 41.5473 31.1614 40.0649C33.1398 40.064 35.1181 40.064 37.0965 40.0649C37.0974 41.5482 37.0965 43.0307 37.0965 44.514C38.0857 44.5149 39.0748 44.5149 40.064 44.514C40.064 42.5356 40.0649 40.5573 40.0631 38.578C36.6014 38.5798 33.1398 38.5789 29.6772 38.5789ZM7.4193 41.55C7.4193 42.5383 7.4193 43.5266 7.4193 44.514C8.40848 44.5149 9.39766 44.514 10.3859 44.5149C10.3877 43.5266 10.3868 42.5383 10.3868 41.55C9.39766 41.55 8.40848 41.5491 7.4193 41.55ZM32.6456 41.55C32.6456 42.5383 32.6438 43.5266 32.6465 44.5149C33.6348 44.514 34.624 44.5149 35.6132 44.514C35.6132 43.5266 35.6123 42.5383 35.6132 41.55C34.624 41.5491 33.6348 41.55 32.6456 41.55Z" fill="#D2153D"/>
</svg>
