<svg width="350" height="139" viewBox="0 0 350 139" fill="none" xmlns="http://www.w3.org/2000/svg">
<path d="M11.73 123.114V135.405H9.435V130.033H3.6635V135.405H1.3685V123.114H3.6635V128.401H9.435V123.114H11.73ZM17.729 126.548C18.375 126.548 18.9615 126.653 19.4885 126.862C20.0212 127.072 20.4745 127.369 20.8485 127.755C21.2282 128.14 21.52 128.61 21.724 129.166C21.928 129.721 22.03 130.342 22.03 131.027C22.03 131.719 21.928 132.342 21.724 132.897C21.52 133.453 21.2282 133.926 20.8485 134.317C20.4745 134.708 20.0212 135.008 19.4885 135.218C18.9615 135.427 18.375 135.532 17.729 135.532C17.0773 135.532 16.4852 135.427 15.9525 135.218C15.4198 135.008 14.9637 134.708 14.584 134.317C14.21 133.926 13.9182 133.453 13.7085 132.897C13.5045 132.342 13.4025 131.719 13.4025 131.027C13.4025 130.342 13.5045 129.721 13.7085 129.166C13.9182 128.61 14.21 128.14 14.584 127.755C14.9637 127.369 15.4198 127.072 15.9525 126.862C16.4852 126.653 17.0773 126.548 17.729 126.548ZM17.729 133.917C18.4543 133.917 18.9898 133.674 19.3355 133.186C19.6868 132.699 19.8625 131.985 19.8625 131.044C19.8625 130.104 19.6868 129.387 19.3355 128.894C18.9898 128.401 18.4543 128.154 17.729 128.154C16.9923 128.154 16.4455 128.404 16.0885 128.902C15.7372 129.395 15.5615 130.109 15.5615 131.044C15.5615 131.979 15.7372 132.693 16.0885 133.186C16.4455 133.674 16.9923 133.917 17.729 133.917ZM23.6317 135.405V126.684H24.9152C25.1872 126.684 25.3657 126.811 25.4507 127.066L25.5867 127.712C25.7397 127.542 25.8984 127.386 26.0627 127.245C26.2327 127.103 26.4112 126.981 26.5982 126.879C26.7909 126.777 26.9949 126.698 27.2102 126.641C27.4312 126.579 27.6721 126.548 27.9327 126.548C28.4824 126.548 28.9329 126.698 29.2842 126.998C29.6412 127.293 29.9076 127.687 30.0832 128.18C30.2192 127.891 30.3892 127.644 30.5932 127.44C30.7972 127.231 31.0211 127.061 31.2647 126.93C31.5084 126.8 31.7662 126.704 32.0382 126.641C32.3159 126.579 32.5936 126.548 32.8712 126.548C33.3529 126.548 33.7807 126.621 34.1547 126.769C34.5287 126.916 34.8432 127.131 35.0982 127.415C35.3532 127.698 35.5459 128.044 35.6762 128.452C35.8122 128.86 35.8802 129.327 35.8802 129.854V135.405H33.7807V129.854C33.7807 129.299 33.6589 128.882 33.4152 128.605C33.1716 128.321 32.8146 128.18 32.3442 128.18C32.1289 128.18 31.9277 128.217 31.7407 128.29C31.5594 128.364 31.3979 128.472 31.2562 128.613C31.1202 128.749 31.0126 128.922 30.9332 129.132C30.8539 129.341 30.8142 129.582 30.8142 129.854V135.405H28.7062V129.854C28.7062 129.271 28.5872 128.846 28.3492 128.579C28.1169 128.313 27.7741 128.18 27.3207 128.18C27.0147 128.18 26.7286 128.256 26.4622 128.409C26.2016 128.557 25.9579 128.761 25.7312 129.021V135.405H23.6317ZM43.4944 130.041C43.4944 129.769 43.4547 129.514 43.3754 129.276C43.3017 129.033 43.1884 128.82 43.0354 128.639C42.8824 128.457 42.6869 128.316 42.4489 128.214C42.2165 128.106 41.9445 128.052 41.6329 128.052C41.0265 128.052 40.5477 128.225 40.1964 128.571C39.8507 128.916 39.6297 129.407 39.5334 130.041H43.4944ZM39.4909 131.308C39.5249 131.755 39.6042 132.144 39.7289 132.472C39.8535 132.795 40.0179 133.064 40.2219 133.28C40.4259 133.489 40.6667 133.648 40.9444 133.756C41.2277 133.858 41.5394 133.909 41.8794 133.909C42.2194 133.909 42.5112 133.869 42.7549 133.79C43.0042 133.71 43.2195 133.623 43.4009 133.526C43.5879 133.43 43.7494 133.342 43.8854 133.263C44.027 133.183 44.163 133.144 44.2934 133.144C44.469 133.144 44.5994 133.209 44.6844 133.339L45.2879 134.104C45.0555 134.376 44.7949 134.606 44.5059 134.793C44.2169 134.974 43.9137 135.121 43.5964 135.235C43.2847 135.342 42.9645 135.419 42.6359 135.464C42.3129 135.51 41.9984 135.532 41.6924 135.532C41.086 135.532 40.5222 135.433 40.0009 135.235C39.4795 135.031 39.0262 134.733 38.6409 134.342C38.2555 133.946 37.9524 133.458 37.7314 132.88C37.5104 132.297 37.3999 131.622 37.3999 130.857C37.3999 130.262 37.4962 129.704 37.6889 129.183C37.8815 128.656 38.1564 128.2 38.5134 127.814C38.876 127.423 39.3152 127.114 39.8309 126.888C40.3522 126.661 40.9387 126.548 41.5904 126.548C42.14 126.548 42.6472 126.636 43.1119 126.811C43.5765 126.987 43.976 127.245 44.3104 127.585C44.6447 127.919 44.9054 128.333 45.0924 128.826C45.285 129.313 45.3814 129.871 45.3814 130.5C45.3814 130.818 45.3474 131.033 45.2794 131.146C45.2114 131.254 45.081 131.308 44.8884 131.308H39.4909ZM52.5527 135.43C52.4564 135.691 52.3005 135.886 52.0852 136.017C51.8755 136.147 51.6602 136.212 51.4392 136.212H50.5467L55.5107 123.513C55.6014 123.275 55.7402 123.094 55.9272 122.969C56.1142 122.839 56.3324 122.774 56.5817 122.774H57.4827L52.5527 135.43ZM69.4045 130.764L67.9085 126.675C67.8348 126.494 67.7583 126.279 67.679 126.029C67.5997 125.78 67.5203 125.511 67.441 125.222C67.3673 125.511 67.2908 125.783 67.2115 126.038C67.1322 126.287 67.0557 126.505 66.982 126.692L65.4945 130.764H69.4045ZM73.442 135.405H71.674C71.4757 135.405 71.3142 135.357 71.1895 135.26C71.0648 135.158 70.9713 135.034 70.909 134.886L69.991 132.379H64.8995L63.9815 134.886C63.9362 135.017 63.8483 135.136 63.718 135.243C63.5877 135.351 63.4262 135.405 63.2335 135.405H61.4485L66.285 123.114H68.614L73.442 135.405ZM76.4656 133.144C76.7036 133.433 76.9614 133.637 77.2391 133.756C77.5224 133.875 77.8199 133.934 78.1316 133.934C78.4546 133.934 78.7436 133.878 78.9986 133.764C79.2593 133.645 79.4803 133.464 79.6616 133.22C79.8429 132.971 79.9818 132.656 80.0781 132.277C80.1744 131.891 80.2226 131.432 80.2226 130.9C80.2226 129.942 80.0639 129.251 79.7466 128.826C79.4293 128.395 78.9731 128.18 78.3781 128.18C77.9758 128.18 77.6244 128.273 77.3241 128.46C77.0238 128.642 76.7376 128.899 76.4656 129.234V133.144ZM76.4656 127.755C76.8169 127.386 77.2051 127.095 77.6301 126.879C78.0608 126.658 78.5509 126.548 79.1006 126.548C79.6049 126.548 80.0583 126.647 80.4606 126.845C80.8686 127.044 81.2143 127.33 81.4976 127.704C81.7866 128.072 82.0076 128.52 82.1606 129.047C82.3136 129.574 82.3901 130.166 82.3901 130.823C82.3901 131.532 82.3023 132.175 82.1266 132.753C81.9509 133.331 81.6988 133.827 81.3701 134.24C81.0471 134.648 80.6561 134.966 80.1971 135.192C79.7381 135.419 79.2281 135.532 78.6671 135.532C78.3951 135.532 78.1486 135.504 77.9276 135.447C77.7066 135.396 77.5026 135.323 77.3156 135.226C77.1286 135.13 76.9558 135.014 76.7971 134.878C76.6441 134.736 76.4968 134.58 76.3551 134.41L76.2616 134.997C76.2276 135.144 76.1681 135.249 76.0831 135.311C76.0038 135.374 75.8933 135.405 75.7516 135.405H74.3661V122.774H76.4656V127.755ZM87.8706 126.548C88.5166 126.548 89.1031 126.653 89.6301 126.862C90.1628 127.072 90.6161 127.369 90.9901 127.755C91.3698 128.14 91.6616 128.61 91.8656 129.166C92.0696 129.721 92.1716 130.342 92.1716 131.027C92.1716 131.719 92.0696 132.342 91.8656 132.897C91.6616 133.453 91.3698 133.926 90.9901 134.317C90.6161 134.708 90.1628 135.008 89.6301 135.218C89.1031 135.427 88.5166 135.532 87.8706 135.532C87.2189 135.532 86.6268 135.427 86.0941 135.218C85.5614 135.008 85.1053 134.708 84.7256 134.317C84.3516 133.926 84.0598 133.453 83.8501 132.897C83.6461 132.342 83.5441 131.719 83.5441 131.027C83.5441 130.342 83.6461 129.721 83.8501 129.166C84.0598 128.61 84.3516 128.14 84.7256 127.755C85.1053 127.369 85.5614 127.072 86.0941 126.862C86.6268 126.653 87.2189 126.548 87.8706 126.548ZM87.8706 133.917C88.5959 133.917 89.1314 133.674 89.4771 133.186C89.8284 132.699 90.0041 131.985 90.0041 131.044C90.0041 130.104 89.8284 129.387 89.4771 128.894C89.1314 128.401 88.5959 128.154 87.8706 128.154C87.1339 128.154 86.5871 128.404 86.2301 128.902C85.8788 129.395 85.7031 130.109 85.7031 131.044C85.7031 131.979 85.8788 132.693 86.2301 133.186C86.5871 133.674 87.1339 133.917 87.8706 133.917ZM101.287 126.684V135.405H100.004C99.7262 135.405 99.5505 135.277 99.4768 135.022L99.3323 134.325C98.9753 134.688 98.5815 134.983 98.1508 135.209C97.7202 135.43 97.213 135.541 96.6293 135.541C96.1533 135.541 95.7312 135.461 95.3628 135.303C95.0002 135.138 94.6942 134.909 94.4448 134.614C94.1955 134.32 94.0057 133.971 93.8753 133.569C93.7507 133.161 93.6883 132.713 93.6883 132.226V126.684H95.7878V132.226C95.7878 132.758 95.9097 133.172 96.1533 133.467C96.4027 133.756 96.7738 133.9 97.2668 133.9C97.6295 133.9 97.9695 133.821 98.2868 133.662C98.6042 133.498 98.9045 133.274 99.1878 132.991V126.684H101.287ZM106.276 135.541C105.517 135.541 104.933 135.328 104.525 134.903C104.123 134.473 103.922 133.88 103.922 133.127V128.256H103.029C102.916 128.256 102.819 128.219 102.74 128.146C102.661 128.072 102.621 127.962 102.621 127.814V126.981L104.024 126.752L104.466 124.372C104.494 124.258 104.548 124.171 104.627 124.108C104.706 124.046 104.808 124.015 104.933 124.015H106.021V126.76H108.35V128.256H106.021V132.982C106.021 133.254 106.086 133.467 106.217 133.62C106.353 133.773 106.537 133.849 106.769 133.849C106.899 133.849 107.007 133.835 107.092 133.807C107.183 133.773 107.259 133.739 107.322 133.705C107.39 133.671 107.449 133.64 107.5 133.611C107.551 133.577 107.602 133.56 107.653 133.56C107.715 133.56 107.766 133.577 107.806 133.611C107.846 133.64 107.888 133.685 107.934 133.747L108.563 134.767C108.257 135.022 107.905 135.215 107.509 135.345C107.112 135.476 106.701 135.541 106.276 135.541ZM119.107 133.56C119.549 133.56 119.942 133.487 120.288 133.339C120.639 133.192 120.934 132.985 121.172 132.719C121.41 132.452 121.591 132.129 121.716 131.75C121.846 131.37 121.912 130.945 121.912 130.475V123.114H124.198V130.475C124.198 131.206 124.079 131.883 123.841 132.506C123.609 133.124 123.272 133.659 122.83 134.113C122.393 134.56 121.861 134.912 121.232 135.167C120.603 135.416 119.894 135.541 119.107 135.541C118.313 135.541 117.602 135.416 116.973 135.167C116.344 134.912 115.809 134.56 115.367 134.113C114.93 133.659 114.593 133.124 114.355 132.506C114.123 131.883 114.007 131.206 114.007 130.475V123.114H116.293V130.466C116.293 130.937 116.355 131.362 116.48 131.741C116.61 132.121 116.795 132.447 117.033 132.719C117.276 132.985 117.571 133.192 117.917 133.339C118.268 133.487 118.665 133.56 119.107 133.56ZM131.401 128.384C131.344 128.474 131.285 128.54 131.222 128.579C131.16 128.613 131.081 128.63 130.984 128.63C130.882 128.63 130.772 128.602 130.653 128.545C130.54 128.489 130.406 128.426 130.253 128.358C130.1 128.285 129.925 128.219 129.726 128.163C129.534 128.106 129.304 128.078 129.038 128.078C128.624 128.078 128.298 128.166 128.06 128.341C127.828 128.517 127.712 128.746 127.712 129.03C127.712 129.217 127.771 129.375 127.89 129.506C128.015 129.63 128.177 129.741 128.375 129.837C128.579 129.934 128.808 130.021 129.063 130.101C129.318 130.174 129.576 130.257 129.837 130.347C130.103 130.438 130.364 130.543 130.619 130.662C130.874 130.775 131.101 130.922 131.299 131.104C131.503 131.279 131.664 131.492 131.783 131.741C131.908 131.991 131.97 132.291 131.97 132.642C131.97 133.062 131.894 133.45 131.741 133.807C131.594 134.158 131.373 134.464 131.078 134.725C130.783 134.98 130.418 135.181 129.981 135.328C129.551 135.47 129.052 135.541 128.485 135.541C128.185 135.541 127.89 135.512 127.601 135.456C127.318 135.405 127.043 135.331 126.777 135.235C126.516 135.138 126.273 135.025 126.046 134.895C125.825 134.764 125.629 134.623 125.459 134.47L125.944 133.671C126.006 133.574 126.08 133.501 126.165 133.45C126.25 133.399 126.358 133.373 126.488 133.373C126.618 133.373 126.74 133.41 126.853 133.484C126.972 133.557 127.108 133.637 127.261 133.722C127.414 133.807 127.593 133.886 127.797 133.96C128.007 134.033 128.27 134.07 128.587 134.07C128.837 134.07 129.049 134.042 129.225 133.985C129.406 133.923 129.554 133.844 129.667 133.747C129.786 133.651 129.871 133.54 129.922 133.416C129.979 133.285 130.007 133.152 130.007 133.016C130.007 132.812 129.945 132.645 129.82 132.515C129.701 132.384 129.539 132.271 129.335 132.175C129.137 132.078 128.908 131.993 128.647 131.92C128.392 131.84 128.128 131.755 127.856 131.665C127.59 131.574 127.327 131.469 127.066 131.35C126.811 131.226 126.581 131.07 126.377 130.883C126.179 130.696 126.018 130.466 125.893 130.194C125.774 129.922 125.714 129.594 125.714 129.208C125.714 128.851 125.785 128.511 125.927 128.188C126.069 127.865 126.275 127.585 126.547 127.347C126.825 127.103 127.168 126.91 127.576 126.769C127.99 126.621 128.466 126.548 129.004 126.548C129.605 126.548 130.151 126.647 130.644 126.845C131.137 127.044 131.548 127.304 131.877 127.627L131.401 128.384Z" fill="#EBECEE"/>
<path d="M2.705 51.5596L16.235 16.1396H25.805L39.335 51.5596H30.095L26.905 43.5296H15.08L11.945 51.5596H2.705ZM16.29 36.9846H25.695L20.965 24.6646L16.29 36.9846ZM60.1546 52.1096C58.3946 52.1096 56.8546 51.8896 55.5346 51.4496C54.2146 50.9729 53.023 50.2762 51.9596 49.3596L51.5196 51.5596H43.8196V14.4896H52.6746V26.6996C53.6646 26.1129 54.783 25.6729 56.0296 25.3796C57.2763 25.0862 58.5596 24.9396 59.8796 24.9396C63.693 24.9396 66.6996 26.0029 68.8997 28.1296C71.0997 30.2196 72.1997 33.6112 72.1997 38.3046C72.1997 42.9979 71.118 46.4812 68.9546 48.7546C66.7913 50.9912 63.858 52.1096 60.1546 52.1096ZM57.6246 45.6746C59.6046 45.6746 61.0163 45.0879 61.8596 43.9146C62.7396 42.7046 63.1796 40.8529 63.1796 38.3596C63.1796 35.7929 62.7213 33.9962 61.8046 32.9696C60.9246 31.9429 59.5313 31.4296 57.6246 31.4296C55.5346 31.4296 53.8846 31.9796 52.6746 33.0796V43.6946C53.9946 45.0146 55.6446 45.6746 57.6246 45.6746ZM90.2757 52.1096C85.2524 52.1096 81.5491 50.9546 79.1657 48.6446C76.7824 46.2979 75.5907 42.9246 75.5907 38.5246C75.5907 34.1612 76.7824 30.8062 79.1657 28.4596C81.5857 26.1129 85.2891 24.9396 90.2757 24.9396C95.2991 24.9396 99.0024 26.1129 101.386 28.4596C103.806 30.8062 105.016 34.1612 105.016 38.5246C105.016 42.9246 103.824 46.2979 101.441 48.6446C99.0574 50.9546 95.3357 52.1096 90.2757 52.1096ZM90.2757 45.1796C92.3291 45.1796 93.7957 44.6662 94.6757 43.6396C95.5557 42.6129 95.9957 40.9079 95.9957 38.5246C95.9957 36.1412 95.5557 34.4362 94.6757 33.4096C93.7957 32.3829 92.3291 31.8696 90.2757 31.8696C88.2591 31.8696 86.8107 32.3829 85.9307 33.4096C85.0507 34.4362 84.6107 36.1412 84.6107 38.5246C84.6107 40.9079 85.0507 42.6129 85.9307 43.6396C86.8107 44.6662 88.2591 45.1796 90.2757 45.1796ZM118.473 52.1096C115.393 52.1096 112.991 51.2479 111.268 49.5246C109.545 47.7646 108.683 45.2162 108.683 41.8796V25.4896H117.538V41.3846C117.538 42.8512 117.886 43.9329 118.583 44.6296C119.316 45.2896 120.398 45.6196 121.828 45.6196C122.891 45.6196 123.9 45.3996 124.853 44.9596C125.806 44.5196 126.595 43.9696 127.218 43.3096V25.4896H136.073V51.5596H127.823L127.548 49.3596C126.485 50.1662 125.201 50.8262 123.698 51.3396C122.195 51.8529 120.453 52.1096 118.473 52.1096ZM152.406 52.1096C149.179 52.1096 146.796 51.2846 145.256 49.6346C143.753 47.9846 143.001 45.7112 143.001 42.8146V32.1996H139.481V25.4896H143.001V20.0446L151.856 17.6796V25.4896H158.181L157.796 32.1996H151.856V42.2096C151.856 43.4562 152.168 44.3362 152.791 44.8496C153.414 45.3262 154.349 45.5646 155.596 45.5646C156.659 45.5646 157.741 45.3812 158.841 45.0146V51.0096C157.118 51.7429 154.973 52.1096 152.406 52.1096ZM190.074 52.1096C186.774 52.1096 183.895 51.5779 181.439 50.5146C179.019 49.4512 177.13 47.8746 175.774 45.7846C174.454 43.6946 173.794 41.1279 173.794 38.0846V16.1396H182.649V37.2596C182.649 39.7162 183.29 41.5496 184.574 42.7596C185.857 43.9696 187.69 44.5746 190.074 44.5746C192.457 44.5746 194.29 43.9696 195.574 42.7596C196.857 41.5496 197.499 39.7162 197.499 37.2596V16.1396H206.354V38.0846C206.354 41.1279 205.675 43.6946 204.319 45.7846C202.999 47.8746 201.11 49.4512 198.654 50.5146C196.234 51.5779 193.374 52.1096 190.074 52.1096ZM221.078 52.1096C218.988 52.1096 217.008 51.9629 215.138 51.6696C213.268 51.3762 211.783 51.0096 210.683 50.5696V43.8046C211.966 44.3546 213.451 44.7762 215.138 45.0696C216.824 45.3629 218.328 45.5096 219.648 45.5096C221.224 45.5096 222.361 45.4362 223.058 45.2896C223.791 45.1429 224.158 44.7396 224.158 44.0796C224.158 43.3462 223.571 42.7962 222.398 42.4296C221.224 42.0629 219.611 41.5312 217.558 40.8346C215.174 39.9912 213.359 39.0196 212.113 37.9196C210.903 36.7829 210.298 35.1146 210.298 32.9146C210.298 30.3479 211.251 28.3862 213.158 27.0296C215.101 25.6362 218.181 24.9396 222.398 24.9396C224.048 24.9396 225.679 25.0679 227.293 25.3246C228.906 25.5812 230.226 25.8746 231.253 26.2046V32.8596C230.226 32.3829 229.053 32.0346 227.733 31.8146C226.413 31.5946 225.221 31.4846 224.158 31.4846C222.801 31.4846 221.646 31.5762 220.693 31.7596C219.776 31.9062 219.318 32.2912 219.318 32.9146C219.318 33.6112 219.831 34.1062 220.858 34.3996C221.884 34.6562 223.369 35.0962 225.313 35.7196C227.366 36.3429 228.961 37.0212 230.098 37.7546C231.234 38.4512 232.041 39.2946 232.518 40.2846C232.994 41.2746 233.233 42.5212 233.233 44.0246C233.233 46.6279 232.206 48.6262 230.153 50.0196C228.099 51.4129 225.074 52.1096 221.078 52.1096Z" fill="white"/>
</svg>
