<svg width="489" height="39" viewBox="0 0 489 39" fill="none" xmlns="http://www.w3.org/2000/svg">
<path d="M19.735 38.55C13.5383 38.55 8.80833 36.9733 5.545 33.82C2.31833 30.63 0.705 26.2117 0.705 20.565C0.705 14.6617 2.28167 10.0967 5.435 6.87C8.625 3.64333 13.3733 2.03 19.68 2.03C21.8433 2.03 23.7683 2.195 25.455 2.525C27.1783 2.855 28.8283 3.295 30.405 3.845V11.6C27.215 10.28 23.86 9.62 20.34 9.62C16.6733 9.62 13.9783 10.5 12.255 12.26C10.5683 14.02 9.725 16.7883 9.725 20.565C9.725 24.1583 10.6233 26.7983 12.42 28.485C14.2167 30.1717 16.8933 31.015 20.45 31.015C22.1733 31.015 23.8783 30.8683 25.565 30.575C27.2517 30.245 28.8833 29.75 30.46 29.09V36.9C28.92 37.4133 27.2883 37.8167 25.565 38.11C23.8417 38.4033 21.8983 38.55 19.735 38.55ZM48.5296 38.55C43.5063 38.55 39.803 37.395 37.4196 35.085C35.0363 32.7383 33.8446 29.365 33.8446 24.965C33.8446 20.6017 35.0363 17.2467 37.4196 14.9C39.8396 12.5533 43.543 11.38 48.5296 11.38C53.553 11.38 57.2563 12.5533 59.6396 14.9C62.0597 17.2467 63.2697 20.6017 63.2697 24.965C63.2697 29.365 62.078 32.7383 59.6947 35.085C57.3113 37.395 53.5896 38.55 48.5296 38.55ZM48.5296 31.62C50.583 31.62 52.0496 31.1067 52.9296 30.08C53.8096 29.0533 54.2496 27.3483 54.2496 24.965C54.2496 22.5817 53.8096 20.8767 52.9296 19.85C52.0496 18.8233 50.583 18.31 48.5296 18.31C46.513 18.31 45.0646 18.8233 44.1846 19.85C43.3046 20.8767 42.8646 22.5817 42.8646 24.965C42.8646 27.3483 43.3046 29.0533 44.1846 30.08C45.0646 31.1067 46.513 31.62 48.5296 31.62ZM67.762 38V11.93H76.012L76.287 14.185C77.3504 13.4517 78.6887 12.81 80.302 12.26C81.9154 11.6733 83.6387 11.38 85.472 11.38C88.8454 11.38 91.302 12.1867 92.842 13.8C94.382 15.4133 95.152 17.9067 95.152 21.28V38H86.297V21.995C86.297 20.5283 85.9854 19.4833 85.362 18.86C84.7387 18.2367 83.6204 17.925 82.007 17.925C81.0537 17.925 80.082 18.145 79.092 18.585C78.102 19.025 77.277 19.575 76.617 20.235V38H67.762ZM110.152 38.55C108.062 38.55 106.082 38.4033 104.212 38.11C102.342 37.8167 100.857 37.45 99.757 37.01V30.245C101.04 30.795 102.525 31.2167 104.212 31.51C105.899 31.8033 107.402 31.95 108.722 31.95C110.299 31.95 111.435 31.8767 112.132 31.73C112.865 31.5833 113.232 31.18 113.232 30.52C113.232 29.7867 112.645 29.2367 111.472 28.87C110.299 28.5033 108.685 27.9717 106.632 27.275C104.249 26.4317 102.434 25.46 101.187 24.36C99.977 23.2233 99.372 21.555 99.372 19.355C99.372 16.7883 100.325 14.8267 102.232 13.47C104.175 12.0767 107.255 11.38 111.472 11.38C113.122 11.38 114.754 11.5083 116.367 11.765C117.98 12.0217 119.3 12.315 120.327 12.645V19.3C119.3 18.8233 118.127 18.475 116.807 18.255C115.487 18.035 114.295 17.925 113.232 17.925C111.875 17.925 110.72 18.0167 109.767 18.2C108.85 18.3467 108.392 18.7317 108.392 19.355C108.392 20.0517 108.905 20.5467 109.932 20.84C110.959 21.0967 112.444 21.5367 114.387 22.16C116.44 22.7833 118.035 23.4617 119.172 24.195C120.309 24.8917 121.115 25.735 121.592 26.725C122.069 27.715 122.307 28.9617 122.307 30.465C122.307 33.0683 121.28 35.0667 119.227 36.46C117.174 37.8533 114.149 38.55 110.152 38.55ZM136.71 38.55C133.483 38.55 131.1 37.725 129.56 36.075C128.056 34.425 127.305 32.1517 127.305 29.255V18.64H123.785V11.93H127.305V6.485L136.16 4.12V11.93H142.485L142.1 18.64H136.16V28.65C136.16 29.8967 136.471 30.7767 137.095 31.29C137.718 31.7667 138.653 32.005 139.9 32.005C140.963 32.005 142.045 31.8217 143.145 31.455V37.45C141.421 38.1833 139.276 38.55 136.71 38.55ZM146.556 38V11.93H154.971L155.246 14.35C156.383 13.6533 157.794 13.03 159.481 12.48C161.168 11.8933 162.854 11.5267 164.541 11.38V18.035C163.588 18.145 162.524 18.3283 161.351 18.585C160.214 18.805 159.114 19.08 158.051 19.41C157.024 19.74 156.144 20.0883 155.411 20.455V38H146.556ZM176.844 38.55C173.764 38.55 171.363 37.6883 169.639 35.965C167.916 34.205 167.054 31.6567 167.054 28.32V11.93H175.909V27.825C175.909 29.2917 176.258 30.3733 176.954 31.07C177.688 31.73 178.769 32.06 180.199 32.06C181.263 32.06 182.271 31.84 183.224 31.4C184.178 30.96 184.966 30.41 185.589 29.75V11.93H194.444V38H186.194L185.919 35.8C184.856 36.6067 183.573 37.2667 182.069 37.78C180.566 38.2933 178.824 38.55 176.844 38.55ZM213.802 38.55C209.145 38.55 205.497 37.4133 202.857 35.14C200.254 32.8667 198.952 29.475 198.952 24.965C198.952 20.3817 200.309 16.9717 203.022 14.735C205.772 12.4983 209.42 11.38 213.967 11.38C215.874 11.38 217.524 11.5267 218.917 11.82C220.347 12.0767 221.722 12.5167 223.042 13.14V19.41C220.989 18.42 218.587 17.925 215.837 17.925C213.27 17.925 211.309 18.4383 209.952 19.465C208.632 20.4917 207.972 22.325 207.972 24.965C207.972 27.4217 208.595 29.2183 209.842 30.355C211.089 31.455 213.069 32.005 215.782 32.005C218.459 32.005 220.897 31.455 223.097 30.355V36.9C221.777 37.4867 220.347 37.9083 218.807 38.165C217.304 38.4217 215.635 38.55 213.802 38.55ZM238.331 38.55C235.104 38.55 232.721 37.725 231.181 36.075C229.677 34.425 228.926 32.1517 228.926 29.255V18.64H225.406V11.93H228.926V6.485L237.781 4.12V11.93H244.106L243.721 18.64H237.781V28.65C237.781 29.8967 238.092 30.7767 238.716 31.29C239.339 31.7667 240.274 32.005 241.521 32.005C242.584 32.005 243.666 31.8217 244.766 31.455V37.45C243.042 38.1833 240.897 38.55 238.331 38.55ZM249.937 7.805V1.15H259.562V7.805H249.937ZM250.652 38V18.475H246.802L247.572 11.93H259.507V38H250.652ZM278.735 38.55C273.711 38.55 270.008 37.395 267.625 35.085C265.241 32.7383 264.05 29.365 264.05 24.965C264.05 20.6017 265.241 17.2467 267.625 14.9C270.045 12.5533 273.748 11.38 278.735 11.38C283.758 11.38 287.461 12.5533 289.845 14.9C292.265 17.2467 293.475 20.6017 293.475 24.965C293.475 29.365 292.283 32.7383 289.9 35.085C287.516 37.395 283.795 38.55 278.735 38.55ZM278.735 31.62C280.788 31.62 282.255 31.1067 283.135 30.08C284.015 29.0533 284.455 27.3483 284.455 24.965C284.455 22.5817 284.015 20.8767 283.135 19.85C282.255 18.8233 280.788 18.31 278.735 18.31C276.718 18.31 275.27 18.8233 274.39 19.85C273.51 20.8767 273.07 22.5817 273.07 24.965C273.07 27.3483 273.51 29.0533 274.39 30.08C275.27 31.1067 276.718 31.62 278.735 31.62ZM297.967 38V11.93H306.217L306.492 14.185C307.555 13.4517 308.894 12.81 310.507 12.26C312.12 11.6733 313.844 11.38 315.677 11.38C319.05 11.38 321.507 12.1867 323.047 13.8C324.587 15.4133 325.357 17.9067 325.357 21.28V38H316.502V21.995C316.502 20.5283 316.19 19.4833 315.567 18.86C314.944 18.2367 313.825 17.925 312.212 17.925C311.259 17.925 310.287 18.145 309.297 18.585C308.307 19.025 307.482 19.575 306.822 20.235V38H297.967ZM348.268 38L341.393 11.93H350.083L353.603 26.89L357.288 15.505V11.93H363.943L368.233 26.89L371.643 11.93H380.333L373.458 38H365.428L360.973 24.47L356.408 38H348.268ZM395.932 38.55C390.909 38.55 387.205 37.395 384.822 35.085C382.439 32.7383 381.247 29.365 381.247 24.965C381.247 20.6017 382.439 17.2467 384.822 14.9C387.242 12.5533 390.945 11.38 395.932 11.38C400.955 11.38 404.659 12.5533 407.042 14.9C409.462 17.2467 410.672 20.6017 410.672 24.965C410.672 29.365 409.48 32.7383 407.097 35.085C404.714 37.395 400.992 38.55 395.932 38.55ZM395.932 31.62C397.985 31.62 399.452 31.1067 400.332 30.08C401.212 29.0533 401.652 27.3483 401.652 24.965C401.652 22.5817 401.212 20.8767 400.332 19.85C399.452 18.8233 397.985 18.31 395.932 18.31C393.915 18.31 392.467 18.8233 391.587 19.85C390.707 20.8767 390.267 22.5817 390.267 24.965C390.267 27.3483 390.707 29.0533 391.587 30.08C392.467 31.1067 393.915 31.62 395.932 31.62ZM415.164 38V11.93H423.579L423.854 14.35C424.991 13.6533 426.403 13.03 428.089 12.48C429.776 11.8933 431.463 11.5267 433.149 11.38V18.035C432.196 18.145 431.133 18.3283 429.959 18.585C428.823 18.805 427.723 19.08 426.659 19.41C425.633 19.74 424.753 20.0883 424.019 20.455V38H415.164ZM436.488 38V0.929999H445.343V20.29L453.868 11.93H463.933L453.483 22.765L464.538 38H455.133L447.928 27.44L445.343 29.97V38H436.488ZM476.192 38.55C474.102 38.55 472.122 38.4033 470.252 38.11C468.382 37.8167 466.897 37.45 465.797 37.01V30.245C467.08 30.795 468.565 31.2167 470.252 31.51C471.939 31.8033 473.442 31.95 474.762 31.95C476.339 31.95 477.475 31.8767 478.172 31.73C478.905 31.5833 479.272 31.18 479.272 30.52C479.272 29.7867 478.685 29.2367 477.512 28.87C476.339 28.5033 474.725 27.9717 472.672 27.275C470.289 26.4317 468.474 25.46 467.227 24.36C466.017 23.2233 465.412 21.555 465.412 19.355C465.412 16.7883 466.365 14.8267 468.272 13.47C470.215 12.0767 473.295 11.38 477.512 11.38C479.162 11.38 480.794 11.5083 482.407 11.765C484.02 12.0217 485.34 12.315 486.367 12.645V19.3C485.34 18.8233 484.167 18.475 482.847 18.255C481.527 18.035 480.335 17.925 479.272 17.925C477.915 17.925 476.76 18.0167 475.807 18.2C474.89 18.3467 474.432 18.7317 474.432 19.355C474.432 20.0517 474.945 20.5467 475.972 20.84C476.999 21.0967 478.484 21.5367 480.427 22.16C482.48 22.7833 484.075 23.4617 485.212 24.195C486.349 24.8917 487.155 25.735 487.632 26.725C488.109 27.715 488.347 28.9617 488.347 30.465C488.347 33.0683 487.32 35.0667 485.267 36.46C483.214 37.8533 480.189 38.55 476.192 38.55Z" fill="white"/>
</svg>
