<svg width="342" height="113" viewBox="0 0 342 113" fill="none" xmlns="http://www.w3.org/2000/svg">
<path d="M80.2229 5.54753C80.6196 5.29566 81.0188 5.04379 81.4181 4.79443C81.4181 5.78428 81.4181 6.77665 81.4103 7.76651C81.0841 7.93022 80.7579 8.09394 80.4343 8.26017C80.4499 7.37359 80.3951 6.48448 80.2333 5.61049L80.2229 5.54753Z" fill="white"/>
<path d="M80.3013 9.83429C80.6771 9.63279 81.0502 9.42626 81.4234 9.21973C81.4156 10.1617 81.4156 11.1037 81.413 12.0457C81.0528 12.2069 80.6953 12.3681 80.3378 12.5318C80.3169 11.6679 80.3065 10.804 80.3039 9.94008L80.3013 9.83429Z" fill="white"/>
<path d="M80.4734 14.1715C80.7865 13.9876 81.0997 13.8037 81.4129 13.6199C81.4181 14.5216 81.4181 15.4207 81.4129 16.3199C81.1597 16.4232 80.9066 16.5265 80.6561 16.6297C80.6221 15.8086 80.5621 14.9875 80.4734 14.1715Z" fill="white"/>
<path d="M80.2229 18.6548C80.6222 18.4508 81.0214 18.2467 81.4207 18.0427C81.4181 18.894 81.4155 19.7454 81.4129 20.5942C81.1076 20.71 80.8075 20.8259 80.5047 20.9418C80.4369 20.1962 80.3508 19.4532 80.2333 18.7152L80.2229 18.6548Z" fill="white"/>
<path d="M80.3064 23.0147C80.6744 22.8258 81.0449 22.6394 81.4155 22.4556C81.4181 23.2616 81.4181 24.065 81.4129 24.8685C81.0971 24.9793 80.7813 25.0901 80.4682 25.201C80.4212 24.4705 80.3664 23.7426 80.3064 23.0147Z" fill="white"/>
<path d="M80.4604 27.3218C80.7788 27.1707 81.0972 27.0195 81.4156 26.8684C81.4156 27.6291 81.4182 28.3872 81.4182 29.1478C81.1494 29.2259 80.8832 29.3065 80.617 29.3846C80.5674 28.697 80.5179 28.0094 80.4604 27.3218Z" fill="white"/>
<path d="M79.8967 40.6382C80.4004 40.4644 80.9067 40.2956 81.4155 40.1294C81.4155 40.7414 81.4155 41.351 81.4181 41.9605C81.0006 42.0562 80.5883 42.1544 80.176 42.2527C80.2621 41.8497 80.3482 41.4492 80.4369 41.0487C80.3012 40.9455 80.0298 40.7414 79.8967 40.6382Z" fill="white"/>
<path d="M81.418 4.79443C82.6184 5.57523 83.7954 6.39129 84.9984 7.16957C84.9749 7.97052 84.9671 8.77399 84.9723 9.57493C83.8032 8.9377 82.5819 8.39366 81.4102 7.7665C81.418 6.77665 81.418 5.78428 81.418 4.79443Z" fill="white"/>
<path d="M81.4233 9.21973C82.6315 9.94763 83.8085 10.7284 85.022 11.4538C84.9828 12.2019 84.9463 12.9499 84.9098 13.7005C83.7563 13.1212 82.5715 12.6099 81.4128 12.0457C81.4155 11.1037 81.4155 10.1617 81.4233 9.21973Z" fill="white"/>
<path d="M81.4154 26.8684C82.7072 27.4628 83.9807 28.0925 85.2907 28.6517C85.2463 29.2184 85.1759 29.7851 84.9828 30.3241C83.7876 29.9488 82.6054 29.5433 81.418 29.1478C81.418 28.3872 81.4154 27.6291 81.4154 26.8684Z" fill="white"/>
<path d="M81.4207 31.3037C82.702 31.815 83.9521 32.3943 85.236 32.8981C85.2229 33.4572 85.2151 34.0164 85.2047 34.578C83.9547 34.1549 82.6733 33.8174 81.4181 33.4094C81.4207 32.7066 81.4181 32.0064 81.4207 31.3037Z" fill="white"/>
<path d="M81.4154 40.1294C82.6915 40.5525 83.952 41.016 85.2307 41.4265C85.2255 41.9101 85.2229 42.3937 85.2229 42.8798C83.9624 42.5373 82.6837 42.2753 81.418 41.9605C81.4154 41.351 81.4154 40.7414 81.4154 40.1294Z" fill="white"/>
<path d="M81.4233 44.5522C82.6159 44.8973 83.798 45.2776 84.9933 45.6202C84.9854 46.061 84.9802 46.5042 84.9776 46.945C83.785 46.7209 82.5976 46.4791 81.4128 46.2297C81.4181 45.668 81.4181 45.1089 81.4233 44.5522Z" fill="white"/>
<path d="M58.5785 58.5815C59.5675 58.3472 60.5488 58.0651 61.5378 57.8284C61.5326 58.2263 61.5274 58.6293 61.5222 59.0298C60.5462 59.1834 59.5702 59.3295 58.602 59.5209C58.5968 59.2867 58.5837 58.8157 58.5785 58.5815Z" fill="white"/>
<path d="M79.1346 6.2579C79.4974 6.03878 79.8627 5.82469 80.2333 5.6106C80.3951 6.48459 80.4499 7.37369 80.4342 8.26027C80.0715 8.43658 79.7114 8.61793 79.3512 8.79676C79.3199 7.97062 79.2547 7.14197 79.1425 6.32087L79.1346 6.2579Z" fill="white"/>
<path d="M78.8998 19.3576C79.3408 19.141 79.7871 18.9269 80.2333 18.7153C80.3507 19.4533 80.4368 20.1963 80.5047 20.9419C79.9697 21.1635 79.4374 21.3852 78.9076 21.6118C79.0146 20.8865 79.0224 20.1485 78.9076 19.4231L78.8998 19.3576Z" fill="white"/>
<path d="M78.8972 23.6798C79.3696 23.4632 79.8393 23.2416 80.3064 23.0149C80.3664 23.7428 80.4213 24.4707 80.4682 25.2011C80.0168 25.3699 79.5679 25.5386 79.119 25.7049C79.046 25.0475 78.9755 24.3926 78.9024 23.7352L78.8972 23.6798Z" fill="white"/>
<path d="M78.8998 28.022C79.4191 27.7852 79.9384 27.551 80.4603 27.3218C80.5178 28.0094 80.5673 28.697 80.6169 29.3846C80.1028 29.5685 79.5887 29.7498 79.0746 29.9261C79.0172 29.2914 78.9598 28.6567 78.8998 28.022Z" fill="white"/>
<path d="M77.8899 7.07137C78.3048 6.81699 78.7224 6.56763 79.1425 6.3208C79.2547 7.1419 79.32 7.97055 79.3513 8.79669C78.8555 9.0536 78.3622 9.30799 77.869 9.56489C77.9812 8.75891 77.9995 7.94285 77.8951 7.13686L77.8899 7.07137Z" fill="white"/>
<path d="M77.8271 45.5774C78.3569 45.4414 78.8841 45.3054 79.4164 45.1719C79.4216 45.658 79.4269 46.1466 79.4321 46.6352C78.9806 46.7259 78.5265 46.8191 78.0751 46.9123C77.9942 46.4866 77.9159 46.0635 77.8376 45.6378L77.8271 45.5774Z" fill="white"/>
<path d="M77.8168 49.8414C78.3465 49.7381 78.8737 49.6374 79.406 49.5442C79.4034 49.9824 79.4008 50.4182 79.4008 50.8564C78.9546 50.9295 78.5109 51.0076 78.0699 51.0856C77.989 50.6902 77.9081 50.2973 77.8298 49.9044L77.8168 49.8414Z" fill="white"/>
<path d="M77.4723 62.7472C78.0934 62.6591 78.7197 62.576 79.3434 62.4954C79.4426 62.8127 79.5417 63.1301 79.6409 63.4474C79.0355 63.4978 78.4326 63.5482 77.8298 63.586C77.7411 63.3769 77.561 62.9563 77.4723 62.7472Z" fill="white"/>
<path d="M76.0083 8.30564C76.6346 7.91272 77.2609 7.51729 77.8951 7.13696C77.9995 7.94295 77.9812 8.75901 77.869 9.56499C77.3288 9.82946 76.7938 10.099 76.2562 10.3659C76.1753 9.69849 76.097 9.03103 76.0161 8.36357L76.0083 8.30564Z" fill="white"/>
<path d="M76.1858 46.1241C76.679 45.8369 77.2922 45.8017 77.8377 45.6379C77.9159 46.0636 77.9942 46.4867 78.0751 46.9124C77.4619 47.0459 76.8512 47.1794 76.238 47.3078C76.2066 46.9703 76.1727 46.6353 76.1388 46.3004L76.1858 46.1241Z" fill="white"/>
<path d="M75.776 50.368C76.4597 50.2118 77.1434 50.0557 77.8298 49.9045C77.9081 50.2975 77.989 50.6904 78.0699 51.0858C77.4801 51.1891 76.8903 51.2923 76.3005 51.3906C76.1309 51.0657 75.9665 50.7433 75.8021 50.4184L75.776 50.368Z" fill="white"/>
<path d="M93.4406 70.6184C94.2209 70.6663 95.0012 70.7192 95.7841 70.767C95.8336 71.6813 95.7841 72.5981 95.6066 73.4998C94.8811 73.5225 94.1583 73.5527 93.438 73.5854C93.4484 72.5956 93.451 71.6083 93.4406 70.6184Z" fill="white"/>
<path d="M84.9985 7.16968C86.5251 8.09908 87.9552 9.16701 89.4818 10.0989L89.474 10.1443C89.427 10.6707 89.3409 11.1946 89.1347 11.6857C87.7647 10.9477 86.345 10.3055 84.9724 9.57504C84.9672 8.77409 84.975 7.97063 84.9985 7.16968Z" fill="white"/>
<path d="M85.022 11.4541C86.546 12.3331 87.9944 13.3331 89.5184 14.2222C89.4323 14.7183 89.414 15.2523 89.0852 15.6729C87.6995 15.0004 86.2877 14.3808 84.9098 13.7008C84.9463 12.9502 84.9829 12.2022 85.022 11.4541Z" fill="white"/>
<path d="M91.4391 70.4849C92.1045 70.5302 92.7726 70.5755 93.4407 70.6184C93.4511 71.6082 93.4485 72.5955 93.4381 73.5854C92.8274 73.6131 92.2168 73.6383 91.6061 73.6635C91.6557 72.6006 91.6296 71.5326 91.4391 70.4849Z" fill="white"/>
<path d="M73.2083 10.1694C74.1321 9.55235 75.0663 8.94535 76.0162 8.36353C76.0971 9.03098 76.1754 9.69844 76.2563 10.3659C75.2673 10.857 74.2965 11.386 73.2996 11.8645C73.2683 11.3003 73.237 10.7361 73.2083 10.1694Z" fill="white"/>
<path d="M73.1143 18.4005C74.0929 17.8187 75.0976 17.2771 76.0788 16.6953C76.1466 17.32 76.2145 17.9446 76.2823 18.5692C75.322 18.9722 74.3799 19.418 73.4222 19.8286C73.3178 19.3525 73.216 18.8765 73.1143 18.4005Z" fill="white"/>
<path d="M73.2473 42.8371C74.252 42.5323 75.2437 42.1847 76.2536 41.8926C76.2641 42.2653 76.2745 42.6381 76.2849 43.0134L76.1884 43.1872C75.2776 43.492 74.3199 43.6431 73.3908 43.8924C73.3569 43.6431 73.2891 43.1393 73.2551 42.89L73.2473 42.8371Z" fill="white"/>
<path d="M73.5396 50.9675C74.2885 50.761 75.0427 50.5847 75.8021 50.4185C75.9665 50.7434 76.131 51.0658 76.3006 51.3907C75.3663 51.5544 74.4373 51.7383 73.5031 51.8919C73.5135 51.6602 73.5318 51.1967 73.5396 50.9675Z" fill="white"/>
<path d="M78.37 11.0535C79.0067 10.6706 79.6513 10.3004 80.3037 9.94019C80.3063 10.8041 80.3168 11.668 80.3377 12.5319C79.7766 12.8065 79.2129 13.076 78.6466 13.3455C78.597 12.5974 78.5135 11.8494 78.3804 11.1114L78.37 11.0535Z" fill="white"/>
<path d="M108.467 28.3669C110.949 29.9462 113.389 31.5884 115.855 33.1903C113.164 31.9183 110.5 30.5935 107.838 29.2661C108.047 28.9664 108.256 28.6667 108.467 28.3669Z" fill="white"/>
<path d="M78.3752 41.1193C78.8815 40.9656 79.3904 40.8044 79.8967 40.6382C80.0298 40.7415 80.3012 40.9455 80.4369 41.0487C80.3481 41.4492 80.262 41.8497 80.1759 42.2527C79.6461 42.3786 79.1138 42.502 78.584 42.6204C78.5162 42.1368 78.4483 41.6557 78.3831 41.1721L78.3752 41.1193Z" fill="white"/>
<path d="M108.24 43.9126C110.565 44.8974 112.823 46.0283 115.15 47.0131C114.639 46.9476 114.135 46.8217 113.655 46.6429C111.836 45.9956 109.97 45.4817 108.164 44.8042C108.183 44.5826 108.219 44.1368 108.24 43.9126Z" fill="white"/>
<path d="M47.4406 61.3394C50.0372 60.8029 52.579 60.0524 55.1521 59.4202C55.2591 59.6343 55.3687 59.8509 55.4861 60.0624C52.806 60.4957 50.139 61.0649 47.4406 61.3394Z" fill="white"/>
<path d="M61.8615 17.5845C65.648 15.1187 69.4294 12.6478 73.2081 10.1694C73.2369 10.7361 73.2682 11.3003 73.2995 11.8645C69.907 13.5924 66.517 15.3202 63.1245 17.0455C62.7148 17.2495 62.292 17.4283 61.8615 17.5845Z" fill="white"/>
<path d="M62.2869 53.796C66.0395 52.8591 69.7922 51.9171 73.5396 50.9675C73.5318 51.1967 73.5135 51.6602 73.5031 51.8919C69.7583 52.4939 66.0526 53.3527 62.2869 53.796Z" fill="white"/>
<path d="M89.474 10.1443C91.4051 11.2752 93.1901 12.6252 95.09 13.8014C94.8864 13.9954 94.6829 14.1868 94.4819 14.3807C92.7126 13.4539 90.8989 12.6177 89.1348 11.6857C89.3409 11.1946 89.427 10.6707 89.474 10.1443Z" fill="white"/>
<path d="M89.5184 14.2222C91.0946 15.1541 92.616 16.1666 94.1844 17.1136C94.1009 17.4008 94.02 17.6879 93.9391 17.975C92.3394 17.1716 90.6797 16.484 89.0852 15.6729C89.414 15.2523 89.4323 14.7184 89.5184 14.2222Z" fill="white"/>
<path d="M108.232 47.0508C110.719 48.0029 113.125 49.1463 115.63 50.0556C113.089 49.4209 110.583 48.6275 108.083 47.8442C108.123 47.6452 108.196 47.2498 108.232 47.0508Z" fill="white"/>
<path d="M107.603 56.302C110.309 56.9795 112.94 57.914 115.646 58.5965C112.995 58.1331 110.346 57.5941 107.718 57.0224C107.689 56.841 107.632 56.4808 107.603 56.302Z" fill="white"/>
<path d="M76.2745 12.3455C76.9739 11.9299 77.6707 11.5118 78.3805 11.1113C78.5136 11.8493 78.5971 12.5974 78.6467 13.3454C77.9525 13.6653 77.2636 14.0003 76.572 14.3277C76.4911 13.6829 76.3972 13.0407 76.2824 12.4009L76.2745 12.3455Z" fill="white"/>
<path d="M73.3831 14.1212C74.3617 13.5645 75.3037 12.9525 76.2824 12.4009C76.3972 13.0406 76.4911 13.6829 76.572 14.3277C75.6143 14.7533 74.6853 15.2395 73.7275 15.6676C73.6153 15.1689 73.5057 14.6728 73.3961 14.174L73.3831 14.1212Z" fill="white"/>
<path d="M73.5736 38.6484C74.4974 38.2932 75.4343 37.9658 76.3607 37.6082C76.379 38.0867 76.3998 38.5653 76.4207 39.0463C75.463 39.3032 74.5131 39.5904 73.5527 39.8397C73.558 39.4418 73.5658 39.0438 73.5736 38.6484Z" fill="white"/>
<path d="M73.5083 46.8517C74.3303 46.6527 75.1237 46.3303 75.9718 46.2346L76.1388 46.3001C76.1727 46.6351 76.2067 46.9701 76.238 47.3076C75.3403 47.4864 74.4504 47.6904 73.5527 47.8693C73.5422 47.6249 73.5214 47.1413 73.5109 46.897L73.5083 46.8517Z" fill="white"/>
<path d="M81.4128 13.6201C82.7855 14.3959 84.1112 15.2447 85.5074 15.9827L85.51 16.0204C85.5909 16.6955 85.5935 17.3957 85.2229 18.0001C83.9703 17.4057 82.6733 16.8995 81.4128 16.3202C81.4181 15.421 81.4181 14.5218 81.4128 13.6201Z" fill="white"/>
<path d="M81.4207 18.043C82.7881 18.7734 84.1373 19.534 85.5074 20.2594C85.4891 20.9193 85.476 21.5818 85.463 22.2417C84.1295 21.6548 82.7568 21.1611 81.4128 20.5944C81.4155 19.7456 81.4181 18.8943 81.4207 18.043Z" fill="white"/>
<path d="M81.4155 22.4558C82.8481 23.1636 84.2573 23.9167 85.7031 24.6043C85.7083 25.2239 85.7135 25.846 85.7187 26.4681C84.2965 25.9064 82.8429 25.4178 81.4128 24.8687C81.4181 24.0653 81.4181 23.2618 81.4155 22.4558Z" fill="white"/>
<path d="M81.4207 35.7141C82.869 36.2506 84.2965 36.8324 85.75 37.3613C85.737 37.8626 85.7292 38.3663 85.7213 38.8675C84.2991 38.4368 82.8507 38.0943 81.4207 37.6938C81.4207 37.0314 81.4207 36.3715 81.4207 35.7141Z" fill="white"/>
<path d="M95.09 13.8013C96.7549 14.8944 98.4773 15.922 100.051 17.1386C98.1407 16.325 96.3165 15.3326 94.4819 14.3806C94.6829 14.1866 94.8864 13.9952 95.09 13.8013Z" fill="white"/>
<path d="M79.8706 69.9557C80.3821 69.9205 80.8962 69.8827 81.4103 69.8474C81.4129 71.268 81.4129 72.691 81.4103 74.1116C80.9014 74.0864 80.3925 74.0637 79.8863 74.0411C79.9019 72.6784 79.8967 71.3183 79.8706 69.9557Z" fill="white"/>
<path d="M62.0442 21.1635C65.7786 18.7632 69.5965 16.4787 73.3961 14.1741C73.5057 14.6728 73.6153 15.169 73.7275 15.6677C69.8235 17.4837 65.99 19.4382 62.0442 21.1635Z" fill="white"/>
<path d="M61.8224 24.8936C65.5672 22.7023 69.3538 20.574 73.1143 18.4004C73.2161 18.8764 73.3178 19.3525 73.4222 19.8285C69.5443 21.4934 65.7368 23.3169 61.8224 24.8936Z" fill="white"/>
<path d="M61.8484 57.5688C65.9038 56.6696 69.9748 55.8108 74.0484 54.9846C74.1085 55.1861 74.2311 55.5841 74.2938 55.7856C70.1444 56.3724 66.0055 57.0424 61.8484 57.5688Z" fill="white"/>
<path d="M59.1396 71.2605C60.3192 71.1874 61.5014 71.1219 62.6809 71.0388C62.6783 71.7894 62.6705 72.5425 62.6627 73.2956C61.7049 73.2528 60.7472 73.2175 59.7921 73.1722C59.779 72.6936 59.7686 72.2151 59.7634 71.739C59.6277 71.6358 59.3562 71.4267 59.2205 71.3234L59.1396 71.2605Z" fill="white"/>
<path d="M79.5026 14.7257C79.8262 14.5394 80.1471 14.3555 80.4734 14.1716C80.5621 14.9877 80.6221 15.8088 80.656 16.6299C80.2959 16.7911 79.9358 16.9548 79.5782 17.116C79.5521 16.3201 79.5261 15.5217 79.5026 14.7257Z" fill="white"/>
<path d="M78.1769 15.489C78.6179 15.2321 79.0589 14.9777 79.5026 14.7258C79.5261 15.5217 79.5522 16.3202 79.5783 17.1161C79.1555 17.2999 78.7327 17.4838 78.31 17.6652C78.263 16.9398 78.2186 16.2144 78.1769 15.489Z" fill="white"/>
<path d="M78.2161 36.9107C78.7145 36.7268 79.2156 36.548 79.7192 36.3767C79.8053 36.9384 79.8915 37.5 79.9776 38.0617C79.4034 38.2229 78.8293 38.3841 78.2578 38.5403C78.2422 37.9962 78.2291 37.4547 78.2161 36.9107Z" fill="white"/>
<path d="M76.0787 16.6955C76.7729 16.2849 77.4775 15.892 78.1769 15.489C78.2186 16.2144 78.263 16.9398 78.31 17.6652C77.6367 17.9699 76.9608 18.2747 76.2823 18.5694C76.2144 17.9448 76.1466 17.3201 76.0787 16.6955Z" fill="white"/>
<path d="M76.3606 37.6083C76.9765 37.3741 77.5976 37.1449 78.216 36.9106C78.2291 37.4547 78.2421 37.9962 78.2578 38.5402C77.6445 38.7115 77.0339 38.8828 76.4206 39.0465C76.3997 38.5654 76.3789 38.0869 76.3606 37.6083Z" fill="white"/>
<path d="M76.251 41.8247C76.9634 41.6131 77.6732 41.394 78.383 41.1724C78.4483 41.656 78.5161 42.137 78.584 42.6206C77.8585 42.7869 77.1487 43.0488 76.3997 43.1042L76.2849 43.0135C76.2745 42.6382 76.264 42.2655 76.2536 41.8927L76.251 41.8247Z" fill="white"/>
<path d="M85.51 16.0203C87.3863 17.0076 89.1661 18.1586 91.0137 19.1964C90.9537 19.6119 90.8962 20.0275 90.8571 20.4456C88.9808 19.6296 87.0862 18.8463 85.2229 18C85.5935 17.3955 85.5909 16.6953 85.51 16.0203Z" fill="white"/>
<path d="M85.7031 24.604C87.5768 25.4881 89.401 26.4729 91.2643 27.3821C91.2199 27.7348 91.1834 28.0849 91.1416 28.4375C89.3123 27.838 87.5116 27.163 85.7188 26.4678C85.7136 25.8457 85.7083 25.2236 85.7031 24.604Z" fill="white"/>
<path d="M85.75 37.3613C87.6133 37.996 89.4192 38.7844 91.2772 39.4393C91.225 39.7113 91.1728 39.9858 91.1233 40.2578C89.2965 39.9052 87.5141 39.3561 85.7213 38.8675C85.7291 38.3663 85.737 37.8626 85.75 37.3613Z" fill="white"/>
<path d="M53.8629 50.461C55.2747 49.9044 56.6944 49.3654 58.1218 48.844C58.1192 49.2294 58.114 49.6122 58.1114 49.9976V50.053C56.6918 50.3829 55.3034 50.8438 53.8629 51.0856C53.8629 50.9295 53.8629 50.6172 53.8629 50.461Z" fill="white"/>
<path d="M46.7073 64.3768C50.7835 63.6464 54.7998 62.6439 58.8551 61.8203C58.8212 62.0369 58.7534 62.4752 58.7168 62.6918C54.7241 63.3064 50.6974 63.727 46.7073 64.3768Z" fill="white"/>
<path d="M102.512 68.2532C106.807 68.6914 111.048 69.5856 115.359 69.8702C113.691 69.9558 112.042 69.6385 110.382 69.578C108.237 69.4168 106.092 69.2909 103.944 69.1649L103.89 69.0919C103.796 68.971 103.61 68.7292 103.516 68.6083C103.188 68.4723 102.851 68.3539 102.512 68.2532Z" fill="white"/>
<path d="M94.1844 17.1135C96.2225 18.3175 98.198 19.6146 100.231 20.8261C98.0545 20.0604 96.0346 18.922 93.9391 17.9749C94.02 17.6878 94.1009 17.4007 94.1844 17.1135Z" fill="white"/>
<path d="M79.7114 36.3211C80.2829 36.1247 80.8544 35.9257 81.4207 35.7141C81.4207 36.3715 81.4207 37.0314 81.4207 37.6938C80.938 37.8122 80.4578 37.9381 79.9776 38.0615C79.8915 37.4999 79.8054 36.9382 79.7193 36.3765L79.7114 36.3211Z" fill="white"/>
<path d="M78.7902 66.9007C79.6592 66.7597 80.5412 66.7017 81.4207 66.6438C81.4207 66.878 81.4181 67.349 81.4181 67.5833C80.63 67.6362 79.8418 67.6916 79.0511 67.6815C79.346 67.5153 79.6357 67.3364 79.9253 67.1627C79.547 67.0695 79.1686 66.9813 78.7902 66.9007Z" fill="white"/>
<path d="M106.711 71.4622C111.34 71.7669 115.975 72.0364 120.602 72.3865C115.972 72.5905 111.343 72.8147 106.713 73.0112C106.711 72.4948 106.708 71.9785 106.711 71.4622Z" fill="white"/>
<path d="M91.0136 19.1965C94.046 20.869 96.9845 22.695 100.006 24.3876C98.0544 23.7252 96.2277 22.7655 94.32 21.9923C93.1744 21.4583 91.9609 21.0553 90.8571 20.4458C90.8962 20.0277 90.9536 19.6121 91.0136 19.1965Z" fill="white"/>
<path d="M90.9693 23.2441C94.1243 24.7554 97.1045 26.5991 100.239 28.1581C98.0858 27.4504 96.0346 26.4731 93.9129 25.6797C92.9239 25.2314 91.8435 24.9569 90.9119 24.4103C90.9223 24.0224 90.9406 23.632 90.9693 23.2441Z" fill="white"/>
<path d="M91.2773 39.4395C94.2079 40.4923 97.0889 41.671 100.022 42.7264C97.0263 42.0388 94.0878 41.1119 91.1024 40.3789L91.1233 40.258C91.1729 39.986 91.2251 39.7115 91.2773 39.4395Z" fill="white"/>
<path d="M88.939 59.1431C92.2272 59.6115 95.4788 60.3042 98.7513 60.8482C95.3144 60.6568 91.8905 60.1934 88.4667 59.8307L88.5658 59.7904C88.8164 59.6947 89.0669 59.5964 89.3148 59.4957C89.2209 59.4075 89.033 59.2312 88.939 59.1431Z" fill="white"/>
<path d="M76.8826 20.4684C77.5428 20.0956 78.2187 19.748 78.9076 19.4231C79.0225 20.1485 79.0146 20.8865 78.9076 21.6119C78.2866 21.8536 77.6707 22.108 77.0548 22.3574C76.9974 21.7277 76.94 21.098 76.8826 20.4684Z" fill="white"/>
<path d="M76.8016 24.7451C77.4906 24.3875 78.1926 24.0525 78.9024 23.7351C78.9755 24.3925 79.0459 25.0474 79.119 25.7047C78.4431 25.9642 77.7724 26.2236 77.0939 26.4679C76.9948 25.8936 76.8982 25.3194 76.8016 24.7451Z" fill="white"/>
<path d="M76.7729 28.9564C77.488 28.6592 78.1978 28.3494 78.8998 28.022C78.9598 28.6567 79.0172 29.2914 79.0746 29.9261C78.4353 30.1402 77.8011 30.3644 77.1696 30.5936L77.1566 30.5356C77.0313 30.0269 76.9086 29.5181 76.786 29.0093L76.7729 28.9564Z" fill="white"/>
<path d="M74.4973 67.3087C75.9196 67.1021 77.3549 66.9888 78.7902 66.9006C79.1686 66.9812 79.547 67.0694 79.9254 67.1626C79.6357 67.3364 79.346 67.5152 79.0511 67.6814C77.7046 67.7117 76.3319 67.9409 75.0036 67.8325C74.8757 67.7016 74.6226 67.4396 74.4973 67.3087Z" fill="white"/>
<path d="M85.5074 20.2593C87.3602 21.1811 89.1269 22.2541 90.972 23.1936L90.9693 23.2439C90.9406 23.6318 90.9224 24.0222 90.9119 24.4101C89.0852 23.7124 87.2689 22.9921 85.463 22.2415C85.4761 21.5816 85.4891 20.9192 85.5074 20.2593Z" fill="white"/>
<path d="M73.6439 22.1611C74.74 21.6246 75.8125 21.0503 76.8825 20.4685C76.9399 21.0982 76.9973 21.7279 77.0547 22.3575C76.0109 22.7605 74.9931 23.2164 73.9492 23.6219C73.8527 23.156 73.7561 22.6925 73.6596 22.2266L73.6439 22.1611Z" fill="white"/>
<path d="M73.7639 26.2037C74.7921 25.7528 75.7968 25.2491 76.8015 24.7454C76.8981 25.3196 76.9946 25.8939 77.0938 26.4682C76.0004 26.8586 74.9278 27.3069 73.8344 27.6922C73.8109 27.2212 73.7874 26.7503 73.7665 26.2793L73.7639 26.2037Z" fill="white"/>
<path d="M73.7535 30.3621C74.753 29.8911 75.7656 29.4453 76.7859 29.0095C76.9086 29.5183 77.0312 30.0271 77.1565 30.5359C76.0552 30.9741 74.9305 31.3544 73.8031 31.7272C73.7849 31.2713 73.7692 30.818 73.7535 30.3621Z" fill="white"/>
<path d="M62.0702 28.3949C65.9168 26.3094 69.7738 24.244 73.6596 22.2266C73.7562 22.6925 73.8527 23.156 73.9493 23.6219C70.9247 24.8435 67.9184 26.1079 64.8964 27.332C63.9596 27.6997 63.0514 28.148 62.0702 28.3949Z" fill="white"/>
<path d="M61.8406 32.1602C65.789 30.1528 69.7713 28.1983 73.7666 26.2791C73.7875 26.7501 73.811 27.221 73.8345 27.692C69.8287 29.1655 65.8699 30.7573 61.8406 32.1602Z" fill="white"/>
<path d="M62.0598 35.6841C65.9351 33.8631 69.8626 32.1503 73.7536 30.3621C73.7693 30.8179 73.7849 31.2713 73.8032 31.7272C69.8809 33.0193 66.0212 34.5079 62.0598 35.6841Z" fill="white"/>
<path d="M62.3521 46.5246C65.9586 45.2401 69.6068 44.0639 73.2551 42.8901C73.289 43.1395 73.3569 43.6432 73.3908 43.8926C69.706 44.7489 66.063 45.7866 62.3521 46.5246Z" fill="white"/>
<path d="M57.7566 26.1455C59.0275 25.3395 60.2514 24.4706 61.5353 23.6873C61.491 24.458 61.6867 25.2942 61.4388 26.0246C60.2697 26.6593 59.0405 27.1883 57.8505 27.7852C57.8192 27.2386 57.7905 26.6921 57.7566 26.1455Z" fill="white"/>
<path d="M57.7775 32.6413C59.0562 31.9739 60.2644 31.1905 61.538 30.5105C61.5458 31.2057 61.5458 31.9008 61.538 32.596C60.4367 33.0494 59.3589 33.5657 58.2342 33.9687C58.1324 33.9233 57.9288 33.8302 57.827 33.7823C57.801 33.4171 57.7905 33.0519 57.7775 32.6867V32.6413Z" fill="white"/>
<path d="M57.7826 35.9105C59.0561 35.2859 60.2696 34.5555 61.5379 33.9258C61.5457 34.5806 61.5457 35.238 61.5405 35.8954C60.3139 36.3891 59.0796 36.8651 57.8426 37.3386C57.8243 36.8777 57.8061 36.4193 57.7852 35.9584L57.7826 35.9105Z" fill="white"/>
<path d="M57.7983 39.1974C59.0353 38.5602 60.2827 37.9406 61.5379 37.3386C61.5431 37.9582 61.5457 38.5753 61.5457 39.1949C60.3062 39.6684 59.0405 40.0714 57.8087 40.5601C57.8009 40.1067 57.7905 39.6508 57.7983 39.1974Z" fill="white"/>
<path d="M57.1381 68.6789C58.6047 68.485 60.0661 68.2558 61.5327 68.0669C61.5353 68.3565 61.5379 68.6462 61.5405 68.9358C60.5541 68.9761 59.5729 69.1096 58.5864 69.1096C58.101 68.9736 57.6235 68.8099 57.1381 68.6789Z" fill="white"/>
<path d="M101.257 23.6824C102.356 24.375 103.415 25.1155 104.516 25.8056C104.409 26.3547 104.305 26.9063 104.201 27.4554C103.245 26.9542 102.275 26.4807 101.288 26.0449C101.239 25.2566 101.241 24.4682 101.257 23.6824Z" fill="white"/>
<path d="M101.257 30.5132C102.358 31.1152 103.415 31.7876 104.529 32.3695V32.4224C104.521 32.9463 104.516 33.4727 104.513 34.0016C103.441 33.5155 102.353 33.0621 101.262 32.6213C101.246 31.9186 101.251 31.2159 101.257 30.5132Z" fill="white"/>
<path d="M101.254 33.9209C102.363 34.5002 103.446 35.1198 104.56 35.684C104.524 36.1701 104.49 36.6587 104.456 37.1448C103.381 36.7444 102.319 36.3187 101.251 35.9082C101.254 35.2457 101.254 34.5833 101.254 33.9209Z" fill="white"/>
<path d="M101.254 40.7517C102.321 41.2227 103.368 41.734 104.44 42.1974C104.349 42.6156 104.26 43.0337 104.172 43.4543C103.196 43.1495 102.222 42.8296 101.254 42.5072C101.254 41.9204 101.254 41.336 101.254 40.7517Z" fill="white"/>
<path d="M101.254 44.1721C102.277 44.5751 103.279 45.0209 104.299 45.434C104.297 45.8496 104.297 46.2677 104.299 46.6883C103.276 46.4188 102.261 46.1166 101.251 45.8068C101.251 45.2602 101.251 44.7162 101.254 44.1721Z" fill="white"/>
<path d="M101.257 47.5798C102.272 47.9526 103.276 48.3531 104.297 48.7208C104.289 49.1213 104.284 49.5243 104.281 49.9247C103.276 49.6275 102.256 49.3908 101.249 49.1087C101.251 48.5974 101.251 48.0886 101.257 47.5798Z" fill="white"/>
<path d="M101.257 51.0002C102.269 51.3226 103.269 51.6878 104.284 52.0102C104.289 52.383 104.297 52.7558 104.305 53.1285C103.287 52.8742 102.261 52.6626 101.244 52.4057C101.249 51.9372 101.251 51.4687 101.257 51.0002Z" fill="white"/>
<path d="M104.516 25.8054C105.863 26.6164 107.131 27.5383 108.467 28.3669C108.256 28.6667 108.047 28.9664 107.838 29.2661C106.64 28.6314 105.395 28.0924 104.2 27.4552C104.305 26.9061 104.409 26.3545 104.516 25.8054Z" fill="white"/>
<path d="M104.529 32.4221C105.941 33.0845 107.222 33.9736 108.6 34.699C108.456 34.961 108.318 35.2254 108.18 35.4899C106.912 35.102 105.722 34.5252 104.513 34.0013C104.516 33.4724 104.521 32.946 104.529 32.4221Z" fill="white"/>
<path d="M104.56 35.6838C105.839 36.311 107.063 37.0364 108.331 37.6837C108.381 38.0439 108.43 38.4066 108.48 38.7718C107.141 38.2403 105.8 37.7139 104.451 37.2051L104.456 37.1447C104.49 36.6586 104.524 36.1699 104.56 35.6838Z" fill="white"/>
<path d="M53.2471 29.0647C54.7685 28.1177 56.2116 27.0548 57.7565 26.1455C57.7905 26.6921 57.8192 27.2386 57.8505 27.7852L57.8531 27.8482C56.3969 28.5458 54.9407 29.2435 53.5002 29.9714C53.4141 29.6692 53.3306 29.3669 53.2471 29.0647Z" fill="white"/>
<path d="M52.8765 35.4369C54.5414 34.573 56.0837 33.5026 57.7774 32.6865C57.7904 33.0517 57.8009 33.4169 57.8269 33.7822C57.9287 33.83 58.1323 33.9232 58.2341 33.9685C56.7361 34.7846 55.0842 35.3035 53.5419 36.044C53.3201 35.8425 53.0983 35.6384 52.8765 35.4369Z" fill="white"/>
<path d="M53.5758 41.2477C54.9928 40.5803 56.3498 39.802 57.7982 39.1975C57.7904 39.6509 57.8008 40.1068 57.8086 40.5601C56.4203 41.0891 55.0294 41.6306 53.5941 42.0361C53.5889 41.8396 53.581 41.4442 53.5758 41.2477Z" fill="white"/>
<path d="M47.4589 69.8653C50.7079 69.6713 53.9073 69.0215 57.138 68.679C57.6234 68.8099 58.101 68.9736 58.5864 69.1096C55.935 69.4295 53.2549 69.4774 50.593 69.7192C49.5518 69.8275 48.5053 69.8955 47.4589 69.8653Z" fill="white"/>
<path d="M58.007 29.2585C59.1917 28.5533 60.34 27.7927 61.5352 27.1025C61.543 27.838 61.543 28.5709 61.5247 29.3064C60.3896 29.8127 59.2596 30.334 58.1244 30.8428C58.0852 30.3139 58.0461 29.785 58.007 29.2585Z" fill="white"/>
<path d="M58.02 42.3432C59.2022 41.8369 60.353 41.2652 61.5326 40.7539C61.5378 41.3332 61.5404 41.9125 61.5456 42.4893C60.4078 42.8973 59.2387 43.2248 58.1061 43.6479C58.0774 43.2122 58.0487 42.7789 58.02 42.3432Z" fill="white"/>
<path d="M58.054 45.5949C59.2309 45.1567 60.3661 44.6227 61.5352 44.1719C61.5378 44.7134 61.5404 45.2574 61.5404 45.8015C60.3896 46.1642 59.2179 46.4714 58.067 46.8417C58.0618 46.4337 58.0592 46.0256 58.054 45.6201V45.5949Z" fill="white"/>
<path d="M58.1218 48.8441C59.2726 48.4612 60.3895 47.9852 61.5352 47.5847C61.5378 48.091 61.5404 48.5972 61.543 49.1035C60.4026 49.4183 59.257 49.7105 58.1113 49.9976C58.1139 49.6123 58.1192 49.2294 58.1218 48.8441Z" fill="white"/>
<path d="M57.7695 52.2569C59.0326 51.8615 60.2696 51.3955 61.5326 50.9976C61.5378 51.4635 61.5431 51.932 61.5483 52.4005C60.3348 52.7078 59.1083 52.9647 57.887 53.2442C57.8478 52.9143 57.8087 52.5869 57.7695 52.2569Z" fill="white"/>
<path d="M58.02 55.4531C59.2048 55.1282 60.3609 54.7126 61.5613 54.4355C61.543 54.8688 61.53 55.302 61.5143 55.7352C60.3687 55.9493 59.2231 56.1609 58.0853 56.4052C58.0696 56.1659 58.0357 55.6899 58.02 55.4531Z" fill="white"/>
<path d="M101.254 27.0925C102.46 27.8129 103.637 28.5786 104.845 29.2939C104.8 29.8178 104.759 30.3417 104.717 30.8656C103.561 30.3643 102.423 29.8203 101.264 29.3241C101.243 28.5811 101.249 27.8355 101.254 27.0925Z" fill="white"/>
<path d="M101.254 37.3386C102.538 37.9482 103.79 38.6131 105.074 39.2251C105.043 39.6709 105.014 40.1142 104.988 40.5601C103.751 40.0891 102.496 39.6634 101.254 39.2125C101.251 38.5879 101.251 37.9633 101.254 37.3386Z" fill="white"/>
<path d="M91.2642 27.3823C94.3644 28.8331 97.3577 30.4904 100.468 31.9235C97.329 30.8732 94.2679 29.6089 91.1311 28.5409L91.1415 28.4377C91.1833 28.085 91.2198 27.7349 91.2642 27.3823Z" fill="white"/>
<path d="M109.13 31.9009C111.238 33.1451 113.308 34.4498 115.388 35.7394C113.274 34.9712 111.272 33.9259 109.234 32.989C109.198 32.6263 109.164 32.2636 109.13 31.9009Z" fill="white"/>
<path d="M91.5669 51.562C94.5471 52.2899 97.4933 53.1438 100.492 53.8112C97.4333 53.3679 94.4035 52.7433 91.3477 52.2773L91.3607 52.2269C91.4129 52.0607 91.5147 51.7282 91.5669 51.562Z" fill="white"/>
<path d="M85.2907 28.6516C86.9531 29.377 88.5736 30.1905 90.2334 30.9235C90.176 31.3114 90.1212 31.7018 90.0664 32.0896C88.3779 31.4852 86.6712 30.931 84.9619 30.3845L84.9828 30.324C85.1759 29.785 85.2464 29.2183 85.2907 28.6516Z" fill="white"/>
<path d="M85.2359 32.8982C86.9009 33.5455 88.5214 34.2961 90.1786 34.9635C90.1786 35.2935 90.1786 35.6209 90.1838 35.9509L90.0794 36.0441C88.4484 35.5781 86.82 35.092 85.2046 34.5782C85.215 34.0165 85.2229 33.4573 85.2359 32.8982Z" fill="white"/>
<path d="M85.2307 41.4265C86.9975 41.9655 88.7198 42.6279 90.4787 43.1921C90.437 43.4742 90.3952 43.7563 90.3561 44.0384C88.6233 43.7462 86.927 43.2878 85.2229 42.8798C85.2229 42.3937 85.2255 41.9101 85.2307 41.4265Z" fill="white"/>
<path d="M86.0919 58.6191C87.0418 58.7929 87.9996 58.9214 88.939 59.143C89.033 59.2312 89.2209 59.4075 89.3148 59.4956C89.0669 59.5964 88.8164 59.6946 88.5659 59.7903C87.7569 59.7853 86.9583 59.6594 86.1572 59.5662C86.1415 59.3294 86.1076 58.8559 86.0919 58.6191Z" fill="white"/>
<path d="M46.9317 33.2105C48.9959 31.7748 51.1228 30.4172 53.247 29.0647C53.3305 29.3669 53.414 29.6692 53.5002 29.9714C51.3289 31.0872 49.1316 32.1501 46.9317 33.2105Z" fill="white"/>
<path d="M53.6229 31.9057C55.113 31.067 56.5066 30.0771 58.0071 29.2585C58.0463 29.785 58.0854 30.3139 58.1246 30.8428L58.1272 30.9058C56.6997 31.47 55.3714 32.2835 53.8917 32.7142C53.8395 32.6563 53.7378 32.5404 53.6856 32.4825C53.6595 32.2911 53.6386 32.0971 53.6229 31.9057Z" fill="white"/>
<path d="M53.4115 38.2276C54.8938 37.5148 56.2691 36.603 57.7853 35.9583C57.8061 36.4192 57.8244 36.8776 57.8427 37.3385L57.8453 37.4015C56.3604 37.9531 54.8912 38.545 53.4115 39.1142C53.4115 38.817 53.4115 38.5223 53.4115 38.2276Z" fill="white"/>
<path d="M104.845 29.2939C106.306 30.1125 107.684 31.0596 109.13 31.9008C109.164 32.2635 109.198 32.6262 109.234 32.9889C107.734 32.2836 106.223 31.6061 104.712 30.9311L104.717 30.8656C104.759 30.3417 104.801 29.8178 104.845 29.2939Z" fill="white"/>
<path d="M105.075 39.2251C106.773 39.9832 108.386 40.9026 110.077 41.6808C110.035 41.8294 109.955 42.1266 109.913 42.2752C108.232 41.8143 106.612 41.1746 104.988 40.56C105.014 40.1142 105.043 39.6709 105.075 39.2251Z" fill="white"/>
<path d="M53.6933 44.2801C55.1547 43.6782 56.5535 42.9402 58.0201 42.3433C58.0488 42.779 58.0775 43.2122 58.1062 43.648C56.6396 44.1517 55.1678 44.658 53.6672 45.0609C53.6751 44.8015 53.6829 44.5396 53.6933 44.2801Z" fill="white"/>
<path d="M54.0274 47.2522C55.3844 46.7384 56.684 46.0962 58.054 45.6201C58.0592 46.0256 58.0619 46.4337 58.0671 46.8417C56.6448 47.2976 55.2147 47.7509 53.7507 48.0708C53.8421 47.7988 53.9334 47.5243 54.0274 47.2522Z" fill="white"/>
<path d="M53.0879 53.8464C54.6406 53.2948 56.1908 52.7356 57.7696 52.2571C57.8087 52.587 57.8479 52.9145 57.887 53.2444L57.8922 53.2998C56.6266 53.5114 55.4 53.99 54.1135 54.0504C53.7716 53.9799 53.4298 53.9119 53.0879 53.8464Z" fill="white"/>
<path d="M90.2334 30.9236C93.7538 32.455 97.1751 34.1929 100.716 35.6839C97.1646 34.4901 93.6103 33.3038 90.0664 32.0897C90.1212 31.7019 90.176 31.3115 90.2334 30.9236Z" fill="white"/>
<path d="M78.9207 32.3039C79.7557 31.9764 80.5908 31.644 81.4207 31.304C81.4181 32.0067 81.4207 32.7069 81.4181 33.4096C80.7657 33.601 80.1133 33.8025 79.4661 34.0015C79.4165 33.3995 79.5183 32.6892 78.9207 32.3039Z" fill="white"/>
<path d="M47.1536 38.7569C49.009 37.5731 50.9558 36.5203 52.8765 35.4373C53.0983 35.6388 53.3201 35.8428 53.542 36.0443C51.4282 36.9812 49.3091 37.9131 47.1536 38.7569Z" fill="white"/>
<path d="M47.1979 41.5021C49.2856 40.4392 51.3159 39.2705 53.4115 38.2278C53.4115 38.5225 53.4115 38.8172 53.4115 39.1144V39.1773C51.3238 39.9052 49.3378 40.9228 47.1979 41.5021Z" fill="white"/>
<path d="M110.077 41.6809C111.886 42.4919 113.639 43.4163 115.416 44.2903C113.511 43.842 111.742 42.9831 109.874 42.4164L109.913 42.2753C109.954 42.1267 110.035 41.8295 110.077 41.6809Z" fill="white"/>
<path d="M79.4139 45.1038C80.0872 44.9351 80.7579 44.7537 81.4234 44.5522C81.4181 45.1089 81.4181 45.668 81.4129 46.2297C80.7527 46.3607 80.0924 46.4992 79.4322 46.6352C79.427 46.1466 79.4218 45.658 79.4166 45.1718L79.4139 45.1038Z" fill="white"/>
<path d="M79.4061 49.4385C80.0794 49.2975 80.7527 49.1464 81.4233 48.9751C81.4181 49.4814 81.4181 49.9901 81.4155 50.4964C80.7422 50.6123 80.0716 50.7357 79.4009 50.8566C79.4009 50.4183 79.4035 49.9826 79.4061 49.5443V49.4385Z" fill="white"/>
<path d="M78.9076 53.8867C79.9854 53.8313 81.0788 53.1512 82.1409 53.5013C81.3633 53.4963 81.2145 54.1688 81.3946 54.7707C80.6795 54.8715 79.9671 54.9798 79.2547 55.0856C79.1425 54.7027 79.0302 54.3199 78.9232 53.937L78.9076 53.8867Z" fill="white"/>
<path d="M47.7016 55.5541C49.5153 55.0479 51.2638 54.2721 53.0879 53.8464C53.4298 53.9119 53.7716 53.9799 54.1135 54.0504C53.4506 54.5038 52.5973 54.5063 51.8405 54.7255C50.46 54.9899 49.1186 55.5012 47.7016 55.5541Z" fill="white"/>
<path d="M79.0929 58.1785C79.868 58.0677 80.6404 57.9443 81.4103 57.8108C81.4207 58.0299 81.439 58.4707 81.4468 58.6923C81.5825 58.8057 81.713 58.9266 81.8382 59.055C81.8304 59.0979 81.8095 59.181 81.8017 59.2238C80.951 58.9392 80.0663 59.2188 79.2051 59.2842C79.179 59.0223 79.1242 58.4959 79.0981 58.2339L79.0929 58.1785Z" fill="white"/>
<path d="M47.4223 35.7518C49.4448 34.4068 51.5507 33.1777 53.6228 31.9058C53.6385 32.0972 53.6593 32.2911 53.6854 32.4825C53.7376 32.5405 53.8394 32.6563 53.8916 32.7143L54.0038 32.8377C51.7778 33.7419 49.6718 34.9055 47.4223 35.7518Z" fill="white"/>
<path d="M77.1514 33.0644C77.7438 32.815 78.3361 32.5682 78.9207 32.3037C79.5183 32.6891 79.4165 33.3993 79.4661 34.0013C78.7067 34.233 77.9525 34.4748 77.1931 34.7015C77.1801 34.155 77.1644 33.6109 77.1514 33.0644Z" fill="white"/>
<path d="M77.2714 54.2667C77.8194 54.1458 78.37 54.0375 78.9233 53.9368C79.0303 54.3196 79.1425 54.7025 79.2547 55.0853C78.5997 55.176 77.9499 55.2717 77.2975 55.3624C77.287 54.9971 77.2792 54.6319 77.2714 54.2667Z" fill="white"/>
<path d="M74.0145 34.3666C75.0506 33.9107 76.1127 33.5128 77.1513 33.0645C77.1644 33.611 77.18 34.1551 77.1931 34.7016C76.1362 35.0064 75.1054 35.3917 74.0328 35.6461C74.025 35.2205 74.0197 34.7923 74.0145 34.3666Z" fill="white"/>
<path d="M74.0485 54.9847C75.1028 54.6698 76.204 54.5414 77.2714 54.2668C77.2792 54.6321 77.287 54.9973 77.2975 55.3625C76.2954 55.4935 75.2959 55.6572 74.2938 55.7856C74.2311 55.5841 74.1085 55.1862 74.0485 54.9847Z" fill="white"/>
<path d="M61.825 39.4419C65.8516 37.6712 69.9592 36.0744 74.0146 34.3667C74.0198 34.7924 74.025 35.2205 74.0328 35.6462L74.0354 35.6915C69.954 36.9056 65.9143 38.2531 61.825 39.4419Z" fill="white"/>
<path d="M62.0023 42.9781C65.8463 41.4996 69.7216 40.1017 73.5734 38.6484C73.5656 39.0439 73.5578 39.4418 73.5526 39.8398C69.6981 40.8674 65.8881 42.0663 62.0023 42.9781Z" fill="white"/>
<path d="M61.8145 50.2723C65.7237 49.1817 69.5964 47.9752 73.5109 46.8972C73.5213 47.1415 73.5422 47.6251 73.5526 47.8694C69.6355 48.6502 65.7576 49.6275 61.8145 50.2723Z" fill="white"/>
<path d="M108.6 34.699C110.816 35.9508 113.049 37.19 115.202 38.5375C112.799 37.6585 110.508 36.52 108.112 35.6158L108.18 35.4898C108.318 35.2254 108.457 34.9609 108.6 34.699Z" fill="white"/>
<path d="M90.1786 34.9636C93.6337 36.3187 96.9845 37.9206 100.474 39.2026C97.0498 38.2631 93.6703 37.1423 90.2621 36.155L90.1838 35.951C90.1786 35.621 90.1786 35.2936 90.1786 34.9636Z" fill="white"/>
<path d="M90.4786 43.1921C93.4954 44.1518 96.4625 45.255 99.4767 46.2221C96.4025 45.6731 93.3988 44.7789 90.3403 44.1467L90.356 44.0384C90.3951 43.7563 90.4369 43.4742 90.4786 43.1921Z" fill="white"/>
<path d="M108.331 37.6838C110.868 39.0087 113.386 40.3713 115.902 41.7339C113.441 40.7138 110.936 39.7996 108.48 38.7719C108.43 38.4067 108.381 38.044 108.331 37.6838Z" fill="white"/>
<path d="M47.4145 44.2954C49.4448 43.2376 51.4986 42.2125 53.5758 41.2478C53.5811 41.4443 53.5889 41.8397 53.5941 42.0362L53.5967 42.1747C51.5064 42.7993 49.5231 43.7338 47.4145 44.2954Z" fill="white"/>
<path d="M47.6415 47.0634C49.6223 46.0686 51.663 45.1795 53.6933 44.2803C53.6829 44.5397 53.675 44.8016 53.6672 45.0611L53.6646 45.187C51.6369 45.7537 49.6927 46.5799 47.6415 47.0634Z" fill="white"/>
<path d="M47.1874 50.0507C49.4787 49.144 51.7256 48.1365 54.0273 47.2524C53.9334 47.5245 53.842 47.799 53.7507 48.071L53.6985 48.2221C51.509 48.7687 49.3978 49.5948 47.1874 50.0507Z" fill="white"/>
<path d="M47.4171 52.8388C49.5596 52.0329 51.6787 51.1589 53.8629 50.4612C53.8629 50.6173 53.8629 50.9297 53.8629 51.0858L53.8655 51.2395C51.6943 51.6903 49.5988 52.4384 47.4171 52.8388Z" fill="white"/>
<path d="M47.1823 58.5714C49.2439 58.0701 51.2428 57.2893 53.3123 56.8586C53.6646 56.9266 54.0169 56.9947 54.3692 57.0652C53.7272 57.4833 52.9156 57.4606 52.1901 57.6445C50.5174 57.9291 48.8759 58.4102 47.1823 58.5714Z" fill="white"/>
<path d="M78.2135 70.0543C78.7641 70.019 79.3173 69.9863 79.8706 69.9561C79.8967 71.3187 79.9019 72.6788 79.8862 74.0414C79.1007 74.0212 78.3152 73.9885 77.5323 73.9432C77.7907 73.7543 78.2683 73.6535 78.2317 73.253C78.31 72.1876 78.2161 71.1197 78.2135 70.0543Z" fill="white"/>
<path d="M104.44 42.1973C105.727 42.7287 106.961 43.3634 108.24 43.9125C108.219 44.1367 108.183 44.5825 108.164 44.8041C106.836 44.3533 105.5 43.9276 104.161 43.5045L104.172 43.4541C104.26 43.0335 104.349 42.6154 104.44 42.1973Z" fill="white"/>
<path d="M104.299 45.4338C105.63 45.9225 106.914 46.527 108.232 47.0508C108.196 47.2498 108.123 47.6453 108.083 47.8442C106.82 47.4891 105.57 47.0962 104.299 46.7713V46.6882C104.297 46.2675 104.297 45.8494 104.299 45.4338Z" fill="white"/>
<path d="M84.9932 45.6201C86.4912 46.0181 87.9578 46.5168 89.4479 46.9374C89.4244 47.1666 89.3774 47.6275 89.3539 47.8567C87.8926 47.5822 86.439 47.2673 84.975 47.0079L84.9776 46.945C84.9802 46.5042 84.9854 46.0609 84.9932 45.6201Z" fill="white"/>
<path d="M89.448 46.9375C92.9814 47.9148 96.4444 49.1263 100.007 50.0179C98.5791 49.8894 97.2116 49.4486 95.8076 49.2043C93.6599 48.7459 91.4809 48.4009 89.354 47.8568C89.3775 47.6276 89.4245 47.1667 89.448 46.9375Z" fill="white"/>
<path d="M88.7773 67.3364C92.5952 67.621 96.3896 68.1978 100.221 68.3338C98.9627 68.4321 97.7049 68.2935 96.4496 68.2482C93.6678 68.0543 90.8755 68.082 88.0962 67.878C88.2658 67.7445 88.6077 67.4724 88.7773 67.3364Z" fill="white"/>
<path d="M98.6261 70.9482C99.7822 71.0087 100.933 71.0994 102.089 71.1699C102.053 71.9431 102.248 73.0287 101.22 73.2478C100.375 73.3158 99.5238 73.3158 98.6757 73.3561C98.6652 72.5527 98.6496 71.7517 98.6261 70.9482Z" fill="white"/>
<path d="M104.297 48.7207C105.521 49.1313 106.705 49.64 107.922 50.0657C107.621 50.2672 107.321 50.4712 107.021 50.6727C106.113 50.4057 105.189 50.1866 104.281 49.9246C104.284 49.5242 104.289 49.1212 104.297 48.7207Z" fill="white"/>
<path d="M104.284 52.01C105.664 52.4155 106.992 52.9621 108.378 53.35C108.175 53.554 107.974 53.758 107.775 53.962C106.627 53.6446 105.453 53.4406 104.305 53.1283C104.297 52.7555 104.289 52.3828 104.284 52.01Z" fill="white"/>
<path d="M81.4234 48.9751C82.4046 49.2093 83.378 49.4864 84.3592 49.7257C84.3566 50.1463 84.3566 50.5694 84.354 50.9901C83.3701 50.8465 82.3915 50.6777 81.4155 50.4964C81.4181 49.9901 81.4181 49.4814 81.4234 48.9751Z" fill="white"/>
<path d="M81.3947 54.7707C81.2146 54.1687 81.3633 53.4962 82.141 53.5012C82.9109 53.6725 83.6676 53.9143 84.4505 54.0453C84.4584 54.4332 84.4636 54.8211 84.474 55.2089C83.4511 55.0402 82.4176 54.9218 81.3947 54.7707Z" fill="white"/>
<path d="M101.257 54.418C102.282 54.7051 103.297 55.0351 104.326 55.3171C104.255 55.6446 104.185 55.9695 104.119 56.2969C103.162 56.0854 102.196 55.9141 101.241 55.7025C101.246 55.2718 101.251 54.8436 101.257 54.418Z" fill="white"/>
<path d="M84.3591 49.7256C85.3821 49.9623 86.3868 50.2545 87.4072 50.5039C87.3393 50.8338 87.2715 51.1663 87.2062 51.4988C86.2537 51.3527 85.3064 51.1839 84.3539 51.0404V50.99C84.3565 50.5693 84.3565 50.1462 84.3591 49.7256Z" fill="white"/>
<path d="M84.4504 54.0452C85.5856 54.2643 86.7078 54.5489 87.8404 54.7756C87.8508 55.0073 87.8717 55.4682 87.8795 55.7C86.7495 55.5035 85.6065 55.3927 84.4739 55.2088C84.4635 54.8209 84.4583 54.433 84.4504 54.0452Z" fill="white"/>
<path d="M66.9633 70.7518C67.7775 70.7191 68.5917 70.6712 69.4059 70.6133C69.3954 71.6031 69.3954 72.5955 69.4007 73.5879C68.3855 73.545 67.3704 73.4922 66.3552 73.4745C67.4408 72.9783 66.9085 71.7089 66.9685 70.8072L66.9633 70.7518Z" fill="white"/>
<path d="M107.922 50.0657C110.427 50.9497 112.864 52 115.396 52.8111C112.577 52.2267 109.814 51.3779 107.021 50.6727C107.321 50.4712 107.621 50.2672 107.922 50.0657Z" fill="white"/>
<path d="M106.805 62.4099C109.5 62.9665 112.173 63.6441 114.892 64.1075C112.175 63.9262 109.49 63.4375 106.792 63.1C106.794 62.8708 106.799 62.6391 106.805 62.4099Z" fill="white"/>
<path d="M87.4072 50.5039C88.8007 50.8238 90.1682 51.2469 91.5669 51.5618C91.5147 51.728 91.413 52.0605 91.3608 52.2267C89.9698 52.0126 88.5893 51.7532 87.1958 51.5441L87.2062 51.4988C87.2715 51.1663 87.3393 50.8339 87.4072 50.5039Z" fill="white"/>
<path d="M108.378 53.3501C110.894 54.1536 113.373 55.0603 115.897 55.8361C113.177 55.2694 110.474 54.6145 107.775 53.9621C107.974 53.7581 108.175 53.5541 108.378 53.3501Z" fill="white"/>
<path d="M46.9448 67.1174C49.3117 66.8378 51.6421 66.3165 53.996 65.9563C54.33 66.0545 54.6667 66.1528 55.0007 66.2585C53.9151 66.5608 52.7747 66.5356 51.663 66.6867C50.0894 66.8252 48.5262 67.0897 46.9448 67.1174Z" fill="white"/>
<path d="M108.665 65.9587C110.993 66.2711 113.295 66.7798 115.623 67.1224C113.775 67.0216 111.943 66.7496 110.103 66.5859C109.046 66.4449 107.953 66.4902 106.932 66.1628C107.509 66.0973 108.083 66.0066 108.665 65.9587Z" fill="white"/>
<path d="M102.089 71.1699C103.629 71.253 105.168 71.3714 106.711 71.4621C106.708 71.9784 106.711 72.4948 106.713 73.0111C104.881 73.0715 103.052 73.2 101.22 73.2479C102.248 73.0287 102.052 71.9432 102.089 71.1699Z" fill="white"/>
<path d="M87.8405 54.7756C91.8097 55.5993 95.745 56.5866 99.7352 57.322C95.7816 56.8057 91.8332 56.2365 87.8796 55.7C87.8718 55.4683 87.8509 55.0074 87.8405 54.7756Z" fill="white"/>
<path d="M77.0261 58.5412C77.715 58.4379 78.4066 58.3321 79.0982 58.2339C79.1242 58.4958 79.1791 59.0222 79.2051 59.2842C78.4301 59.3597 77.6576 59.4529 76.8826 59.5361C76.9165 59.3119 76.9791 58.8636 77.0104 58.6419L77.0261 58.5412Z" fill="white"/>
<path d="M73.3439 70.3537C73.7928 70.3336 74.2442 70.2756 74.6905 70.3411C74.8236 70.4368 75.0898 70.6308 75.2228 70.7265C75.2411 71.7642 75.2437 72.8044 75.1968 73.8421C74.573 73.8119 73.952 73.7842 73.3282 73.754C73.3413 72.6205 73.3465 71.4871 73.3439 70.3537Z" fill="white"/>
<path d="M104.326 55.3171C105.422 55.6295 106.525 55.9342 107.603 56.302C107.632 56.4808 107.689 56.841 107.718 57.0223C106.518 56.778 105.312 56.5639 104.119 56.2969C104.185 55.9695 104.255 55.6446 104.326 55.3171Z" fill="white"/>
<path d="M104.028 61.8457C104.957 62.0069 105.873 62.2411 106.805 62.4099C106.799 62.6391 106.794 62.8708 106.792 63.1C105.576 62.9212 104.362 62.7449 103.141 62.6265L103.209 62.5661C103.48 62.3217 103.751 62.0825 104.028 61.8457Z" fill="white"/>
<path d="M85.9354 62.833C86.7914 62.9463 87.6473 63.0647 88.5085 63.1705C88.519 63.3922 88.5294 63.6138 88.5424 63.838C87.4855 63.7876 86.4312 63.707 85.377 63.644L85.4031 63.6037C85.5805 63.3468 85.758 63.0899 85.9354 62.833Z" fill="white"/>
<path d="M53.3123 56.8586C54.8754 56.3699 56.436 55.8788 58.02 55.4531C58.0357 55.6899 58.0696 56.1659 58.0853 56.4052C56.8535 56.6445 55.627 57.0248 54.3692 57.0651C54.0169 56.9946 53.6646 56.9266 53.3123 56.8586Z" fill="white"/>
<path d="M81.4103 57.8108C82.1123 57.9468 82.8378 57.9871 83.5163 58.2188L83.6076 58.3851C83.5945 58.6067 83.5684 59.0525 83.5554 59.2767C83.0022 59.2162 82.4489 59.1608 81.8983 59.1155L81.8383 59.055C81.713 58.9266 81.5825 58.8057 81.4468 58.6923C81.439 58.4707 81.4207 58.0299 81.4103 57.8108Z" fill="white"/>
<path d="M81.4208 62.2261C82.1071 62.3167 82.7934 62.4125 83.4824 62.5031C83.5033 62.75 83.545 63.2386 83.5633 63.4854C82.8483 63.425 82.1332 63.3771 81.4208 63.3142C81.4208 63.0421 81.4208 62.4981 81.4208 62.2261Z" fill="white"/>
<path d="M101.246 57.8284C102.186 58.0626 103.117 58.3195 104.059 58.5462C103.736 58.7956 103.415 59.0449 103.096 59.2968C102.486 59.2187 101.878 59.1305 101.272 59.0399C101.259 58.6369 101.251 58.2314 101.246 57.8284Z" fill="white"/>
<path d="M101.246 61.2463C102.175 61.4403 103.099 61.6569 104.028 61.8458C103.751 62.0825 103.48 62.3218 103.209 62.5661C102.559 62.4956 101.912 62.4125 101.264 62.3344C101.257 61.9692 101.251 61.6065 101.246 61.2463Z" fill="white"/>
<path d="M101.249 64.6616C101.849 64.7624 102.452 64.8455 103.044 64.984C103.245 65.1049 103.443 65.2334 103.637 65.3694C103.691 65.4953 103.804 65.7421 103.861 65.8681C102.992 65.8051 102.126 65.717 101.259 65.6288C101.254 65.3064 101.251 64.984 101.249 64.6616Z" fill="white"/>
<path d="M83.6076 58.3849L83.7224 58.2841C84.521 58.2514 85.3013 58.531 86.092 58.6191C86.1076 58.8559 86.1416 59.3294 86.1572 59.5662C85.2908 59.4654 84.4192 59.3873 83.5554 59.2765C83.5685 59.0524 83.5946 58.6065 83.6076 58.3849Z" fill="white"/>
<path d="M55.1521 59.4203C56.3082 59.1936 57.4303 58.8385 58.5786 58.5815C58.5838 58.8158 58.5968 59.2868 58.602 59.521C57.5634 59.6973 56.5222 59.8736 55.4861 60.0625C55.3687 59.851 55.2591 59.6344 55.1521 59.4203Z" fill="white"/>
<path d="M73.8893 59.1204C74.9201 58.9063 75.9587 58.7275 77.0104 58.6418C76.9791 58.8635 76.9164 59.3118 76.8825 59.536C75.7838 59.6443 74.693 59.8055 73.5944 59.9113C73.6909 59.6468 73.7901 59.3823 73.8893 59.1204Z" fill="white"/>
<path d="M89.7429 70.3865C90.3065 70.4192 90.8728 70.452 91.4391 70.4847C91.6296 71.5325 91.6557 72.6004 91.6061 73.6633C90.9381 73.6935 90.27 73.7263 89.6019 73.759C89.8159 72.6457 89.8029 71.5123 89.7429 70.3865Z" fill="white"/>
<path d="M103.096 59.2967C103.415 59.0448 103.736 58.7955 104.059 58.5461C104.662 58.6897 105.262 58.8408 105.868 58.9844V59.0171C105.873 59.2111 105.883 59.5964 105.886 59.7904C104.934 59.6569 103.989 59.4907 103.039 59.3421L103.096 59.2967Z" fill="white"/>
<path d="M62.2972 61.0774C66.1673 60.4628 70.0218 59.7576 73.8893 59.1204C73.7901 59.3823 73.6909 59.6468 73.5944 59.9112C69.8234 60.2538 66.0786 60.8835 62.2972 61.0774Z" fill="white"/>
<path d="M105.868 59.0171C109.049 59.7173 112.147 60.7474 115.354 61.3343C113.929 61.2713 112.554 60.8809 111.15 60.6794C109.391 60.425 107.645 60.1026 105.889 59.8457L105.886 59.7903C105.883 59.5964 105.873 59.211 105.868 59.0171Z" fill="white"/>
<path d="M58.8551 61.8204C59.7502 61.6441 60.6349 61.4351 61.5248 61.2437C61.5248 61.6038 61.5274 61.964 61.5274 62.3242C60.5905 62.4526 59.651 62.5509 58.7168 62.6919C58.7533 62.4753 58.8212 62.037 58.8551 61.8204Z" fill="white"/>
<path d="M59.5911 64.9966C60.2356 64.8883 60.8828 64.7724 61.53 64.6616C61.5274 64.979 61.5274 65.2989 61.5274 65.6212C61.0733 65.6716 60.6193 65.722 60.1678 65.7749C59.9747 65.5155 59.7816 65.256 59.5911 64.9966Z" fill="white"/>
<path d="M62.0807 68.3387C66.23 68.1473 70.3559 67.6083 74.4973 67.3086C74.6226 67.4396 74.8757 67.7015 75.0036 67.8325C72.3444 67.9886 69.6878 68.1272 67.0286 68.2405C65.3793 68.3035 63.73 68.4622 62.0807 68.3387Z" fill="white"/>
<path d="M83.0022 69.9558C83.6833 69.9961 84.3644 70.044 85.0481 70.0868C85.0612 71.3738 85.0873 72.6609 85.0847 73.948C84.3853 73.9757 83.6833 74.0084 82.9839 74.0386C83.0204 72.6785 83.023 71.3159 83.0022 69.9558Z" fill="white"/>
<path d="M55.1129 71.4873C56.4856 71.5099 57.8504 71.248 59.2205 71.3235C59.3562 71.4268 59.6276 71.6359 59.7633 71.7391C59.7685 72.2152 59.7789 72.6937 59.792 73.1723C58.2262 73.1068 56.6604 73.0262 55.092 72.9809C55.6348 72.5627 55.6896 71.9734 55.1468 71.5326L55.1129 71.4873Z" fill="white"/>
<path d="M79.3434 62.4956C80.0349 62.4049 80.7265 62.3167 81.4207 62.2261C81.4207 62.4981 81.4207 63.0421 81.4207 63.3142C80.8257 63.3494 80.2333 63.3973 79.6409 63.4476C79.5417 63.1303 79.4426 62.8129 79.3434 62.4956Z" fill="white"/>
<path d="M83.4823 62.5029C84.2991 62.6087 85.1159 62.7271 85.9354 62.8329C85.7579 63.0898 85.5805 63.3467 85.403 63.6036C84.7897 63.5709 84.1765 63.5331 83.5632 63.4852C83.5449 63.2384 83.5032 62.7498 83.4823 62.5029Z" fill="white"/>
<path d="M62.6809 71.0389C64.1109 70.9557 65.5358 70.8323 66.9685 70.8071C66.9085 71.7088 67.4408 72.9783 66.3552 73.4744C65.1261 73.3812 63.8943 73.3611 62.6626 73.2956C62.6704 72.5425 62.6783 71.7894 62.6809 71.0389Z" fill="white"/>
<path d="M75.1106 63.0773C75.8882 62.911 76.6868 62.8632 77.4723 62.7473C77.561 62.9564 77.7411 63.377 77.8298 63.586C76.8903 63.6515 75.9561 63.7498 75.0166 63.8027C75.0401 63.6213 75.0871 63.2586 75.1106 63.0773Z" fill="white"/>
<path d="M62.0702 64.8783C66.3813 64.0798 70.7655 63.6869 75.1105 63.0774C75.0871 63.2587 75.0401 63.6214 75.0166 63.8028C70.7029 64.1806 66.3787 64.4551 62.0702 64.8783Z" fill="white"/>
<path d="M88.5084 63.1704C92.1567 63.6464 95.7841 64.2988 99.4585 64.5784C98.4798 64.6111 97.5038 64.5582 96.5331 64.4575C93.8738 64.2081 91.2094 64.057 88.5476 63.8933L88.5423 63.8379C88.5293 63.6137 88.5189 63.3921 88.5084 63.1704Z" fill="white"/>
<path d="M95.7842 70.7668C96.7315 70.8197 97.6787 70.8877 98.626 70.9482C98.6495 71.7517 98.6652 72.5526 98.6756 73.3561C97.6526 73.3989 96.6297 73.4543 95.6067 73.4996C95.7841 72.5979 95.8337 71.6811 95.7842 70.7668Z" fill="white"/>
<path d="M53.996 65.9562C55.8775 65.7346 57.7173 65.2787 59.591 64.9966C59.7815 65.256 59.9746 65.5154 60.1678 65.7749C58.448 65.9638 56.7257 66.1275 55.0007 66.2585C54.6666 66.1527 54.33 66.0544 53.996 65.9562Z" fill="white"/>
<path d="M103.044 64.9839C104.928 65.2383 106.784 65.669 108.665 65.9586C108.083 66.0065 107.509 66.0971 106.933 66.1626C105.912 66.1626 104.9 66.0014 103.884 65.9208L103.861 65.868C103.804 65.742 103.691 65.4952 103.637 65.3692C103.443 65.2332 103.245 65.1048 103.044 64.9839Z" fill="white"/>
<path d="M81.4207 66.6438C82.1905 66.7194 82.9604 66.7924 83.7276 66.8755C83.4145 67.1501 83.0987 67.417 82.7542 67.6563C82.308 67.6437 81.8617 67.6085 81.4181 67.5833C81.4181 67.349 81.4207 66.878 81.4207 66.6438Z" fill="white"/>
<path d="M83.7275 66.8755C85.4186 66.9561 87.0888 67.2483 88.7772 67.3364C88.6076 67.4724 88.2657 67.7444 88.0961 67.8779C86.3163 67.7747 84.5339 67.7545 82.7542 67.6563C83.0986 67.417 83.4144 67.15 83.7275 66.8755Z" fill="white"/>
<path d="M101.254 68.0745C101.671 68.1274 102.094 68.1702 102.512 68.2533C102.851 68.354 103.188 68.4724 103.516 68.6084C103.61 68.7293 103.796 68.9711 103.89 69.092C103.01 69.0517 102.133 68.9887 101.259 68.9258C101.257 68.7142 101.254 68.286 101.254 68.0745Z" fill="white"/>
<path d="M81.4103 69.8477C81.94 69.8854 82.4698 69.9207 83.0022 69.956C83.023 71.3161 83.0204 72.6787 82.9839 74.0388C82.4594 74.0615 81.9348 74.0866 81.4103 74.1118C81.4129 72.6913 81.4129 71.2682 81.4103 69.8477Z" fill="white"/>
<path d="M74.5861 70.2658C75.7943 70.1978 77.0052 70.1449 78.2135 70.0542C78.2161 71.1196 78.31 72.1875 78.2317 73.253C78.2683 73.6534 77.7907 73.7542 77.5323 73.9431C76.7521 73.938 75.977 73.8751 75.1967 73.8423C75.2437 72.8046 75.2411 71.7644 75.2228 70.7267C75.0897 70.631 74.8235 70.437 74.6904 70.3413L74.5861 70.2658Z" fill="white"/>
<path d="M85.0481 70.0869C85.8336 70.1323 86.6191 70.1851 87.4046 70.233C87.3994 71.4369 87.4046 72.6409 87.4281 73.8448C86.6478 73.8801 85.8649 73.9179 85.0846 73.9481C85.0872 72.661 85.0611 71.374 85.0481 70.0869Z" fill="white"/>
<path d="M87.4046 70.2329C88.1848 70.2782 88.9625 70.3337 89.7428 70.3866C89.8028 71.5124 89.8159 72.6458 89.6019 73.7591C88.8764 73.7843 88.1509 73.8145 87.428 73.8447C87.4046 72.6408 87.3993 71.4369 87.4046 70.2329Z" fill="white"/>
<path d="M70.823 70.4898C71.6659 70.4747 72.5062 70.4293 73.3439 70.3538C73.3465 71.4872 73.3413 72.6206 73.3282 73.754C72.6315 73.7288 71.9347 73.7036 71.2379 73.6684C71.2197 72.6206 71.5302 71.4469 70.8465 70.5301L70.823 70.4898Z" fill="white"/>
<path d="M69.4059 70.6134C69.886 70.5857 70.3662 70.558 70.8464 70.5303C71.5301 71.4471 71.2196 72.6208 71.2378 73.6686C70.6246 73.6409 70.0139 73.6157 69.4006 73.588C69.3954 72.5956 69.3954 71.6032 69.4059 70.6134Z" fill="white"/>
<path d="M41.9369 72.3815C46.3367 72.049 50.7418 71.7972 55.1469 71.5327C55.6897 71.9735 55.6349 72.5629 55.0921 72.981C50.7105 72.7492 46.3185 72.6258 41.9369 72.3815Z" fill="white"/>
<path d="M158.618 34.6341C161.08 34.3773 163.734 35.0381 165.514 36.7595C168.618 39.8068 167.993 45.674 164.053 47.8079C161.066 49.4241 156.978 49.2557 154.315 47.105C151.883 45.1226 151.297 41.5703 152.443 38.7924C153.436 36.3934 156.003 34.8613 158.618 34.6341ZM158.43 35.2065C156.121 35.5305 154.691 37.6687 154.459 39.7689C154.153 42.1596 154.179 44.9122 155.841 46.8735C157.857 48.9317 161.884 48.919 163.699 46.6126C164.818 45.1521 165.041 43.2623 165.033 41.503C164.985 39.7815 164.661 37.9296 163.454 36.5828C162.225 35.2359 160.192 34.8824 158.43 35.2065Z" fill="white"/>
<path d="M132.988 34.8403C137.619 34.8361 142.25 34.8361 146.881 34.8403C146.907 36.0062 146.959 37.1763 146.898 38.3463C146.067 37.4919 146.212 35.9473 144.961 35.4632C143.654 35.1981 142.298 35.337 140.973 35.3117C140.969 38.7798 140.969 42.2522 140.969 45.7245C140.995 46.4442 140.947 47.2187 141.336 47.8668C142.014 48.153 142.77 48.1236 143.496 48.1993L143.501 48.6118C141.113 48.6328 138.725 48.6202 136.338 48.6202L136.351 48.2077C137.282 48.1194 138.9 48.2835 138.839 46.9409C139.014 43.0771 138.835 39.2091 138.931 35.3454C137.532 35.3496 136.08 35.1391 134.715 35.5222C133.627 36.124 133.876 37.5971 132.953 38.3169C132.909 37.1552 132.962 35.9978 132.988 34.8403Z" fill="white"/>
<path d="M172.9 34.8402C177.531 34.836 182.161 34.8402 186.792 34.8402C186.819 35.9977 186.867 37.1551 186.823 38.3168C185.962 37.5466 186.158 36.0987 185.043 35.5305C183.692 35.1265 182.245 35.3537 180.858 35.3495C180.928 38.9355 180.854 42.5215 180.893 46.1075C180.963 46.7177 180.828 47.5048 181.414 47.9299C182.122 48.1782 183.014 48.0183 183.578 48.5739C181.073 48.6496 178.558 48.6665 176.053 48.5654C176.757 47.7321 178.523 48.536 178.707 47.2354C178.974 43.2707 178.751 39.2848 178.821 35.3116C177.487 35.3327 176.127 35.2022 174.811 35.4548C173.547 35.9388 173.8 37.5466 172.873 38.3336C172.825 37.1678 172.873 36.0019 172.9 34.8402Z" fill="white"/>
<path d="M191.786 46.7304C193.702 42.6562 195.271 38.4347 197.283 34.4026C199.334 38.5189 200.952 42.8204 202.911 46.9745C203.23 47.8121 204.214 48.031 204.901 48.5192C202.876 48.6833 200.838 48.6497 198.813 48.5697C199.334 48.0225 200.165 48.0604 200.847 47.85C200.523 46.3348 199.793 44.9458 199.168 43.5317C197.366 43.5485 195.564 43.5443 193.767 43.5401C193.317 44.6428 192.748 45.7245 192.573 46.9114C192.547 47.8626 193.732 48.0604 194.357 48.5529C192.801 48.6539 191.235 48.6581 189.678 48.5655C190.396 47.9678 191.428 47.648 191.786 46.7304ZM193.986 43.0855C195.661 43.0771 197.335 43.0771 199.015 43.0813C198.188 41.1536 197.349 39.226 196.531 37.2941C195.564 39.1755 194.812 41.1494 193.986 43.0855Z" fill="white"/>
<path d="M209.256 34.8953C211.696 34.8321 214.149 34.7395 216.585 34.9584C215.702 35.6318 213.764 34.9079 213.821 36.4526C213.659 39.6724 213.786 42.9006 213.751 46.1204C213.817 46.7643 213.625 47.8292 214.508 48.0186C215.951 48.2332 217.473 48.2627 218.903 47.9386C220.547 47.362 220.599 45.4512 221.601 44.3105C221.728 45.7416 221.64 47.181 221.605 48.6162C217.556 48.6289 213.506 48.6205 209.457 48.6205L209.427 48.229C210.279 48.1238 211.679 48.1617 211.613 46.9748C211.74 43.4646 211.731 39.9375 211.617 36.4273C211.714 35.0173 209.916 35.6823 209.256 34.8953Z" fill="white"/>
<path d="M236.101 34.9499C238.432 34.7563 240.78 34.8068 243.115 34.9162C242.529 35.3666 241.746 35.354 241.064 35.5644C240.461 36.5956 240.763 37.8582 240.68 38.9946C240.784 41.36 240.426 43.7886 241.003 46.1119C242.643 49.6347 249.522 48.4436 249.46 44.4241C249.535 41.9114 249.565 39.3903 249.452 36.8776C249.517 35.577 247.969 35.4676 247.073 34.9625C248.817 34.7689 250.575 34.8026 252.325 34.9036C251.542 35.5223 250.055 35.6612 250.09 36.8944C249.871 39.7522 250.252 42.6437 249.867 45.4932C249.281 48.1027 246.137 49.0876 243.671 48.8561C241.506 48.8014 238.957 47.5976 238.734 45.2911C238.406 42.2818 238.825 39.2388 238.524 36.2294C238.41 35.013 236.814 35.6023 236.101 34.9499Z" fill="white"/>
<path d="M257.2 34.9541C258.648 34.8068 260.113 34.7647 261.565 34.8784C262.011 35.0846 262.229 35.5644 262.553 35.9096C265.067 39.1588 267.617 42.3786 270.157 45.6068C270.118 42.6059 270.245 39.605 270.105 36.6082C270.039 35.4339 268.574 35.4213 267.687 35.2235L267.722 34.8489C269.515 34.8447 271.316 34.7858 273.113 34.8952C272.484 35.6233 271.023 35.4087 270.783 36.4567C270.437 40.6908 270.975 44.9713 270.507 49.197C266.943 44.8871 263.607 40.4089 260.113 36.0527C260.135 39.546 260.052 43.0436 260.148 46.5412C260.017 48.0522 261.932 47.8965 262.828 48.5615C260.913 48.6583 258.985 48.6709 257.069 48.5488C257.756 47.9638 258.797 47.9891 259.426 47.3409C259.776 44.9881 259.501 42.5933 259.588 40.2237C259.514 38.7085 259.815 37.1091 259.229 35.6612C258.573 35.3708 257.839 35.2866 257.2 34.9541Z" fill="white"/>
<path d="M277.766 34.937C280.101 34.7771 282.458 34.7813 284.798 34.9328C284.177 35.4126 283.311 35.2695 282.642 35.6357C282.275 36.2502 282.358 36.991 282.318 37.6686C282.318 40.3539 282.318 43.0349 282.318 45.716C282.349 46.4189 282.279 47.1849 282.668 47.8204C283.385 48.0561 284.146 48.1908 284.833 48.5191C282.471 48.6832 280.093 48.6875 277.731 48.5191C278.593 47.9762 280.25 48.2581 280.184 46.9113C280.289 43.4432 280.285 39.9666 280.189 36.4985C280.298 35.097 278.571 35.5684 277.766 34.937Z" fill="white"/>
<path d="M290.046 34.8402C294.676 34.836 299.307 34.8402 303.938 34.8402C303.969 36.0103 304.017 37.1846 303.947 38.3589C303.134 37.475 303.252 35.8967 301.962 35.4463C300.667 35.2064 299.338 35.3327 298.026 35.3116C298.092 39.2764 297.89 43.2496 298.131 47.206C298.267 48.3424 299.697 48.0604 300.527 48.2077L300.549 48.6202C298.1 48.5949 295.647 48.6875 293.198 48.5612C293.832 47.9257 294.843 48.2414 295.59 47.8373C295.997 47.2102 295.923 46.44 295.966 45.7371C295.971 42.2605 295.962 38.784 295.966 35.3116C294.655 35.3327 293.334 35.2148 292.04 35.4337C290.68 35.842 290.977 37.5508 290.024 38.3463C289.967 37.1762 290.011 36.0061 290.046 34.8402Z" fill="white"/>
<path d="M309.592 34.9162C313.069 34.7479 316.554 34.8784 320.035 34.8405C320.166 36.0863 320.376 37.3448 320.214 38.599C319.549 37.5594 319.401 36.0106 318.071 35.5307C316.659 35.1772 315.172 35.3413 313.729 35.3077C313.725 37.2353 313.729 39.163 313.725 41.0865C314.665 41.0696 315.627 41.1538 316.558 40.9602C317.595 40.7077 317.101 39.3945 317.791 38.7926C317.752 40.472 318.307 42.3996 317.52 43.9317C317.284 43.2204 317.477 42.2481 316.777 41.7641C315.793 41.4653 314.739 41.6084 313.729 41.5747C313.821 43.6371 313.462 45.7794 314.066 47.7912C315.452 48.3763 317.083 48.2163 318.535 47.9385C320.367 47.4082 320.533 45.3501 321.605 44.1211C321.627 45.6237 321.469 47.122 321.369 48.6204C317.35 48.5909 313.331 48.6919 309.321 48.5657C309.833 48.1616 310.515 48.1153 311.118 47.8965C311.722 47.5134 311.582 46.7222 311.656 46.1329C311.683 43.3172 311.661 40.5014 311.665 37.6899C311.621 37.0165 311.7 36.2926 311.363 35.6781C310.777 35.4087 310.17 35.1856 309.592 34.9162Z" fill="white"/>
<path d="M327.176 34.9455C330.845 34.9245 334.736 34.0911 338.23 35.5222C342.039 37.2268 342.927 42.2522 341.051 45.594C339.997 47.5301 337.688 48.5024 335.502 48.5739C332.642 48.6581 329.778 48.6539 326.918 48.5739C327.543 47.8163 329.069 48.4434 329.375 47.3618C329.69 44.5839 329.432 41.7682 329.524 38.9777C329.454 37.9002 329.686 36.7259 329.187 35.7284C328.606 35.337 327.836 35.4927 327.18 35.3791C327.18 35.2696 327.176 35.055 327.176 34.9455ZM331.584 35.2107C331.579 38.7125 331.575 42.2143 331.584 45.7203C331.627 46.4442 331.531 47.2565 332.021 47.8795C333.534 48.3509 335.209 48.1572 336.704 47.7111C338.576 46.9746 339.455 44.9669 339.625 43.1402C339.844 40.8169 339.503 38.1569 337.662 36.465C336.04 34.9876 333.643 35.1855 331.584 35.2107Z" fill="white"/>
<path d="M188.537 54.5464C188.865 54.5464 189.521 54.5464 189.849 54.5464C189.849 57.4926 189.849 60.4388 189.849 63.3851C189.521 63.3851 188.865 63.3851 188.537 63.3851C188.537 60.4388 188.537 57.4926 188.537 54.5464Z" fill="white"/>
<path d="M196.426 54.8577C196.658 54.8577 197.121 54.8619 197.348 54.8661C197.348 57.7492 197.353 60.6365 197.348 63.5238C197.147 63.4859 196.741 63.4143 196.54 63.3807L196.316 62.6988C195.289 63.8394 193.286 63.9236 192.254 62.7493C190.863 61.3478 191.467 58.6036 193.5 58.1111C194.55 57.7281 195.582 58.2121 196.439 58.7761C196.417 57.4714 196.421 56.1624 196.426 54.8577ZM193.535 59.0245C192.04 59.74 192.193 62.2064 193.811 62.6904C195.053 63.1281 196.505 62.1475 196.426 60.8638C196.614 59.4201 194.838 58.2879 193.535 59.0245Z" fill="white"/>
<path d="M171.36 55.4007C172.978 55.5228 174.999 54.9672 176.271 56.213C177.172 57.1769 176.568 58.6205 175.497 59.1887C176.914 59.6096 177.67 61.3184 176.7 62.4969C175.344 63.8943 173.127 63.3513 171.36 63.4607C171.356 60.7755 171.36 58.0902 171.36 55.4007ZM172.362 56.272C172.357 57.1222 172.357 57.9766 172.357 58.8352C173.503 58.751 175.576 59.1466 175.65 57.522C175.532 55.9268 173.486 56.3688 172.362 56.272ZM172.362 59.6896C172.357 60.6534 172.357 61.6173 172.357 62.5853C173.315 62.5348 174.325 62.6737 175.243 62.3454C176.262 61.9961 176.337 60.4766 175.405 59.9884C174.465 59.5549 173.372 59.7527 172.362 59.6896Z" fill="white"/>
<path d="M185.734 55.6196C186.237 54.8283 187.466 56.0489 186.657 56.5539C186.075 57.1516 185.109 56.1625 185.734 55.6196Z" fill="white"/>
<path d="M199.474 55.4093C200.466 55.0431 200.987 56.5457 199.916 56.7561C199.107 56.7435 198.962 55.8681 199.474 55.4093Z" fill="white"/>
<path d="M271.426 55.6028C272.012 54.9167 273.052 55.9563 272.396 56.5414C271.78 57.1727 270.713 56.1289 271.426 55.6028Z" fill="white"/>
<path d="M245.949 56.6213C246.163 56.6213 246.596 56.6213 246.81 56.6213C246.81 57.1222 246.815 57.6273 246.824 58.1323C247.361 58.1281 247.904 58.1323 248.446 58.1365V58.8815C247.904 58.8815 247.361 58.8857 246.819 58.8899C246.815 59.9548 246.767 61.0238 246.859 62.0887C246.78 63.002 248 62.6569 248.546 62.7284C248.7 64.0164 246.273 63.8648 246.001 62.8126C245.783 61.5205 245.918 60.1989 245.892 58.8983C245.595 58.8941 244.991 58.8815 244.69 58.8773L244.668 58.2039C245.945 58.5069 245.966 57.5389 245.949 56.6213Z" fill="white"/>
<path d="M267.394 56.6801C267.634 56.6717 268.111 56.6464 268.351 56.6338C268.351 56.9958 268.347 57.7197 268.347 58.0816C268.933 58.2963 270.267 57.7407 270.07 58.8687C269.493 58.8771 268.92 58.8855 268.347 58.894C268.36 60.0472 268.26 61.2046 268.43 62.3495C268.679 63.0271 269.62 62.5936 270.144 62.7703C270.127 64.0246 267.726 63.8562 267.521 62.7535C267.324 61.4782 267.446 60.1819 267.429 58.9024C267.127 58.894 266.528 58.8813 266.231 58.8729L266.191 58.1616C266.506 58.1448 267.127 58.1195 267.442 58.1027C267.429 57.7492 267.407 57.0378 267.394 56.6801Z" fill="white"/>
<path d="M182.765 58.2333C182.979 58.1786 183.412 58.065 183.626 58.0103C183.723 59.7948 183.753 61.5878 183.683 63.3766L183.224 63.5912C183.084 63.3892 182.809 62.9852 182.673 62.7789C181.816 63.9658 179.581 63.8901 179.052 62.459C178.707 61.028 178.925 59.5339 178.882 58.0776C179.105 58.1113 179.551 58.1786 179.769 58.2081C179.874 59.4834 179.664 60.7797 179.922 62.0424C180.299 63.1661 182.196 62.9304 182.559 61.8993C182.94 60.7166 182.734 59.4497 182.765 58.2333Z" fill="white"/>
<path d="M185.765 58.1659C185.988 58.1449 186.438 58.1028 186.661 58.0859C186.705 59.9084 186.701 61.735 186.683 63.5617C186.456 63.4859 186.005 63.3386 185.778 63.2629C185.712 61.5625 185.795 59.8621 185.765 58.1659Z" fill="white"/>
<path d="M199.369 58.2124C199.592 58.1661 200.029 58.0819 200.248 58.0398C200.344 59.8412 200.3 61.651 200.305 63.4608C200.073 63.4608 199.614 63.4608 199.382 63.4608C199.378 61.7099 199.382 59.959 199.369 58.2124Z" fill="white"/>
<path d="M203.352 58.6626C204.411 57.7871 206.4 57.6609 207.004 59.0919C207.349 60.4808 207.196 61.9455 207.157 63.3639C206.938 63.4102 206.497 63.5028 206.278 63.5449C206.217 62.1896 206.418 60.8049 206.125 59.4707C205.653 58.4185 203.873 58.692 203.506 59.698C203.129 60.9101 203.335 62.2065 203.296 63.4565C203.064 63.4607 202.6 63.4607 202.373 63.4607C202.373 61.6509 202.364 59.8369 202.351 58.027C202.6 58.187 203.103 58.5026 203.352 58.6626Z" fill="white"/>
<path d="M210.34 58.2879C211.451 57.7155 212.715 58.0606 213.712 58.6751C213.887 58.4605 214.237 58.027 214.412 57.8081C214.954 59.8368 214.691 62.0044 214.6 64.0793C214.193 66.592 210.76 66.6257 209.011 65.3967C209.134 65.1652 209.374 64.7065 209.496 64.475C210.397 65.14 211.574 65.6913 212.702 65.1947C213.782 64.7949 213.699 63.5448 213.891 62.6441C212.942 63.3849 211.67 63.8605 210.493 63.2881C208.368 62.5052 208.285 59.1844 210.34 58.2879ZM211.036 58.9529C209.527 59.5169 209.435 61.8613 210.922 62.5052C212.142 63.1786 213.826 62.2106 213.773 60.8595C213.952 59.4706 212.343 58.3679 211.036 58.9529Z" fill="white"/>
<path d="M221.308 58.3009C222.493 57.678 223.905 58.061 224.928 58.7975C224.189 59.8918 223.223 58.566 222.265 58.848C220.529 59.1721 220.332 61.7943 221.81 62.5603C222.633 63.099 223.547 62.5224 224.316 62.1899C224.439 62.3751 224.683 62.7413 224.806 62.9264C223.783 63.4778 222.545 63.8861 221.417 63.36C219.344 62.4971 219.292 59.2437 221.308 58.3009Z" fill="white"/>
<path d="M227.67 58.1492C229.529 57.4379 231.864 58.8689 231.68 60.864C231.785 63.0231 229.008 64.3152 227.176 63.2336C225.09 62.194 225.383 58.7763 227.67 58.1492ZM228.033 58.9194C226.371 59.4414 226.319 62.0593 227.959 62.6443C229.201 63.183 230.74 62.2066 230.687 60.8892C230.858 59.5339 229.345 58.4102 228.033 58.9194Z" fill="white"/>
<path d="M234.304 58.6373C235.353 57.8839 237.12 57.6272 237.881 58.8856C238.419 60.3419 238.082 61.9413 238.161 63.4607H237.243C237.199 62.156 237.374 60.8302 237.111 59.5422C236.748 58.4353 234.899 58.6542 234.505 59.6475C234.072 60.868 234.326 62.198 234.265 63.4649L233.346 63.4607C233.351 61.6088 233.294 59.7569 233.39 57.9092C233.622 58.0902 234.077 58.4521 234.304 58.6373Z" fill="white"/>
<path d="M240.085 58.6753C240.99 57.7409 242.757 57.7494 243.614 58.7469C243.697 59.6392 242.643 59.2098 242.215 58.9489C241.616 58.5701 240.422 59.0373 240.737 59.8201C241.524 60.2915 242.49 60.3547 243.312 60.7545C244.222 61.3395 244.051 62.8589 243.072 63.3009C241.9 63.9027 240.514 63.5534 239.503 62.8295C239.648 62.6485 239.936 62.2908 240.081 62.1098C240.898 62.678 242.346 63.2546 242.954 62.0929C242.814 61.0112 241.393 61.2091 240.636 60.7798C239.7 60.5609 239.503 59.3151 240.085 58.6753Z" fill="white"/>
<path d="M250.733 58.7214C251.376 58.2795 252.106 58.0059 252.884 57.9007C252.884 58.1322 252.876 58.5867 252.871 58.8182C252.15 58.9403 251.122 58.9445 250.917 59.8073C250.602 60.9942 250.772 62.2401 250.737 63.4564C250.505 63.4564 250.046 63.4606 249.815 63.4649C250.011 61.5919 249.369 59.5464 250.191 57.8081C250.326 58.0354 250.597 58.49 250.733 58.7214Z" fill="white"/>
<path d="M254.253 58.0649C254.476 58.0902 254.918 58.1491 255.141 58.1786C255.154 59.4286 255.031 60.6955 255.224 61.9413C255.482 63.1451 257.445 62.9851 257.861 61.9666C258.307 60.7671 258.009 59.4539 258.132 58.2081C258.359 58.1786 258.81 58.1155 259.037 58.0818C259.033 59.9169 259.028 61.7477 259.055 63.5828C258.661 63.406 258.272 63.2335 257.883 63.0609C256.846 63.7848 255.071 63.8816 254.446 62.6063C253.978 61.1459 254.271 59.5675 254.253 58.0649Z" fill="white"/>
<path d="M261.158 59.193C261.888 58.044 263.541 57.7073 264.783 58.225C265.513 58.2628 265.627 59.012 265.124 59.454C264.477 59.0836 263.751 58.6122 262.964 58.8858C261.25 59.395 261.28 62.114 262.938 62.6906C263.939 63.1452 265.072 61.6047 265.758 62.8589C264.783 63.4103 263.611 63.8775 262.487 63.4313C260.734 62.88 260.196 60.5946 261.158 59.193Z" fill="white"/>
<path d="M271.439 58.1535C271.666 58.1409 272.125 58.1198 272.353 58.1072C272.37 59.9128 272.366 61.7184 272.37 63.524C272.143 63.4693 271.683 63.3557 271.456 63.3009C271.382 61.5837 271.465 59.8665 271.439 58.1535Z" fill="white"/>
<path d="M275.781 58.2375C277.666 57.3368 280.232 58.7762 280.027 60.8807C280.11 62.9851 277.456 64.2646 275.632 63.2882C273.542 62.3622 273.625 59.0414 275.781 58.2375ZM276.17 59.0077C274.626 59.7064 274.784 62.2486 276.459 62.7073C277.701 63.1072 279.091 62.1265 279.034 60.8596C279.196 59.4328 277.478 58.3048 276.17 59.0077Z" fill="white"/>
<path d="M282.633 58.7343C283.626 57.7958 285.581 57.6358 286.272 58.9827C286.735 60.4221 286.433 61.971 286.503 63.4567C286.276 63.4567 285.812 63.4609 285.585 63.4609C285.568 62.1982 285.672 60.9272 285.502 59.6771C285.231 58.385 283.097 58.6291 282.786 59.7866C282.472 60.9819 282.642 62.2361 282.607 63.4567C282.38 63.4609 281.916 63.4609 281.684 63.4609C281.929 61.6174 281.138 59.4835 282.139 57.842C282.262 58.0651 282.511 58.5113 282.633 58.7343Z" fill="white"/>
<path d="M292.363 58.9192C293.251 57.8881 294.93 57.7239 296.111 58.3763C296.618 58.6414 296.627 58.9992 296.137 59.4495C295.481 59.1002 294.759 58.6036 293.972 58.8856C292.236 59.3906 292.275 62.139 293.955 62.6988C294.737 62.9934 295.424 62.48 296.102 62.1811C296.237 62.3747 296.508 62.762 296.648 62.9556C295.691 63.4101 294.602 63.8563 293.539 63.4522C291.628 62.8924 291.121 60.304 292.363 58.9192Z" fill="white"/>
<path d="M299.386 58.1996C301.271 57.3704 303.737 58.8183 303.545 60.8764C303.636 63.0819 300.742 64.3488 298.927 63.1745C297.003 62.0886 297.261 58.9151 299.386 58.1996ZM299.771 58.9698C298.288 59.5506 298.214 61.8782 299.64 62.56C300.895 63.2839 302.631 62.2527 302.548 60.8554C302.705 59.4665 301.074 58.3469 299.771 58.9698Z" fill="white"/>
</svg>
