<svg width="42" height="45" viewBox="0 0 42 45" fill="none" xmlns="http://www.w3.org/2000/svg">
<path d="M40.8823 21.8077L39.053 21.0211V19.7703C39.0787 12.0935 34.2349 5.24403 26.9882 2.71067V0.947882C26.9882 0.424636 26.5635 0 26.0406 0H15.8995C15.3765 0 14.9519 0.424636 14.9519 0.947882V2.71998C7.70514 5.25334 2.86134 12.1028 2.88703 19.7796V21.04L1.07671 21.8077C0.72595 21.9558 0.498535 22.2998 0.498535 22.6798V27.6556C0.498535 28.1785 0.923171 28.6032 1.44642 28.6032H2.67857V30.4989C2.67857 31.0219 3.10288 31.4465 3.62613 31.4465H7.02868C7.35181 32.633 7.82656 33.7743 8.44071 34.8394L6.03358 37.2469C5.6658 37.6163 5.6658 38.2134 6.03358 38.5831L10.0615 42.611C10.4309 42.9788 11.028 42.9788 11.3977 42.611L13.8049 40.2039C14.8674 40.8181 16.0048 41.2918 17.1885 41.6159V45.0185C17.1885 45.5414 17.6131 45.966 18.1363 45.966H23.8227C24.3459 45.966 24.7706 45.5414 24.7706 45.0185V41.6159C25.9571 41.2928 27.098 40.819 28.1635 40.2039L30.5709 42.611C30.9403 42.9788 31.5374 42.9788 31.9071 42.611L35.9351 38.5831C36.3029 38.2134 36.3029 37.6163 35.9351 37.2469L33.5276 34.8394C34.1418 33.7743 34.6168 32.633 34.94 31.4465H38.3422C38.8655 31.4465 39.2901 31.0219 39.2901 30.4989V28.6032H40.5222C41.0455 28.6032 41.4698 28.1785 41.4698 27.6556V22.6798C41.4679 22.2969 41.236 21.9529 40.8823 21.8077ZM16.8284 1.90508H25.0927V17.7419H16.8473L16.8284 1.90508ZM37.404 29.5511H34.2481C33.7933 29.5405 33.3959 29.8552 33.3002 30.2995C32.9809 31.7838 32.3935 33.1968 31.566 34.4697C31.3222 34.8442 31.3746 35.3379 31.689 35.6543L33.9542 37.9195L31.2435 40.6112L28.9784 38.346C28.662 38.0316 28.1683 37.9792 27.7938 38.223C26.5208 39.0501 25.1078 39.6379 23.6235 39.9572C23.179 40.0529 22.8645 40.4503 22.8748 40.9051V44.0989H19.0839V40.8765C19.0945 40.4217 18.7797 40.0247 18.3352 39.9289C16.8512 39.6103 15.4379 39.0228 14.1653 38.1944C13.7907 37.951 13.297 38.003 12.9803 38.3178L10.7152 40.5829L8.03309 37.9005L10.2982 35.6354C10.613 35.319 10.6651 34.8253 10.4216 34.4508C9.58645 33.1855 8.98933 31.779 8.6588 30.2995C8.56276 29.8552 8.16575 29.5405 7.71092 29.5511H4.55506V28.6032H13.2174C13.7368 32.8852 17.6292 35.9351 21.9112 35.4147C25.4785 34.9817 28.2903 32.1705 28.7227 28.6032H37.3946L37.404 29.5511ZM15.1507 28.6032H26.8176C26.2963 31.8275 23.2596 34.0187 20.0356 33.4974C17.5203 33.0908 15.5481 31.1186 15.1414 28.6032H15.1507ZM39.584 26.7077H2.38466V23.3052L4.21362 22.5186C4.56438 22.3708 4.79179 22.0268 4.79179 21.6465V19.751C4.77091 13.1319 8.80078 7.17448 14.9519 4.72913V18.6898C14.9519 19.2127 15.3762 19.6373 15.8995 19.6373H26.0592C26.5825 19.6373 27.0071 19.2127 27.0071 18.6898V4.72913C33.1685 7.17352 37.2032 13.1425 37.1765 19.77V21.6657C37.1765 22.0457 37.404 22.3897 37.7547 22.5375L39.5837 23.3241V26.7077H39.584Z" fill="#D2153D"/>
</svg>
