<svg width="46" height="36" viewBox="0 0 46 36" fill="none" xmlns="http://www.w3.org/2000/svg">
<path d="M8.39244 0.813009C8.73026 0.62254 9.23069 0.862423 9.28459 1.24875C9.36905 1.76625 9.35018 2.29363 9.36096 2.81652C9.35916 4.71762 9.34928 6.61781 9.34389 8.51891C12.4219 7.8936 15.5467 7.4893 18.6849 7.34285C18.6885 7.06164 18.6876 6.78133 18.6876 6.50012C18.2061 6.49742 17.7245 6.50551 17.2438 6.49742C16.8647 6.50461 16.5251 6.1659 16.5341 5.78676C16.5296 4.34477 16.5296 2.90277 16.5341 1.46168C16.526 1.08164 16.8665 0.742931 17.2456 0.752813C21.0514 0.746524 24.8572 0.751915 28.6639 0.750118C29.0736 0.703399 29.477 1.0466 29.4662 1.46438C29.4707 2.90547 29.4707 4.34656 29.4662 5.78766C29.4734 6.1668 29.1338 6.50551 28.7546 6.49742C28.274 6.50551 27.7933 6.49742 27.3126 6.50012C27.3126 6.78043 27.3126 7.06074 27.3126 7.34106C30.4509 7.49559 33.5783 7.88281 36.6564 8.51981C36.6663 6.28809 36.6133 4.05457 36.6771 1.82375C36.7148 1.46707 36.6609 0.937892 37.0939 0.805822C37.4749 0.608165 37.8288 0.952267 38.1424 1.12926C39.7317 2.23254 41.2941 3.37715 42.8601 4.51367C43.339 4.86586 43.1 5.71758 42.507 5.77059C41.0372 5.79574 39.5646 5.77418 38.0939 5.78137C38.0939 6.80469 38.0939 7.82801 38.0939 8.85043C39.3319 9.17207 40.5601 9.54942 41.7317 10.0669C42.7325 10.5197 43.7307 11.0552 44.4872 11.8692C44.9472 12.3588 45.285 12.9994 45.2805 13.684C45.2823 18.7198 45.2823 23.7546 45.2805 28.7895C45.2868 29.7193 44.6983 30.5252 44.0101 31.0957C42.8376 32.0598 41.4019 32.6267 39.9761 33.1011C37.7049 33.8297 35.3501 34.2618 32.989 34.5781C28.3988 35.1702 23.7557 35.3094 19.1333 35.1199C15.8486 34.968 12.5621 34.6554 9.3376 33.9923C7.63686 33.6401 5.94779 33.1927 4.34768 32.5099C3.37647 32.0804 2.41424 31.5692 1.65596 30.8118C1.11869 30.2773 0.711701 29.5621 0.719787 28.785C0.718889 23.751 0.717991 18.7171 0.719787 13.6831C0.711701 12.9096 1.14385 12.2106 1.68651 11.6913C2.46635 10.9465 3.43576 10.4362 4.41776 10.0112C5.56686 9.52336 6.76358 9.16039 7.97108 8.84953C7.97108 7.82711 7.97018 6.80469 7.97108 5.78137C6.84354 5.78586 5.7151 5.79664 4.58756 5.79934C4.1599 5.78227 3.71967 5.81731 3.30369 5.69871C2.81405 5.5334 2.77901 4.76434 3.19408 4.49211C4.53096 3.52 5.86694 2.54789 7.20741 1.58117C7.59373 1.31164 7.97198 1.02684 8.39244 0.813009ZM17.9689 2.18762C17.9689 3.14625 17.9689 4.10399 17.9689 5.06262C21.3228 5.06262 24.6775 5.06262 28.0314 5.06262C28.0314 4.10399 28.0314 3.14625 28.0314 2.18762C24.6775 2.18762 21.3228 2.18762 17.9689 2.18762ZM5.8301 4.34567C6.5219 4.34117 7.21459 4.34477 7.90639 4.34387C7.90639 3.85063 7.90639 3.35738 7.90639 2.86504C7.21369 3.35828 6.52549 3.85692 5.8301 4.34567ZM38.0948 2.86414C38.093 3.35738 38.0939 3.85063 38.0939 4.34387C38.7857 4.34387 39.4775 4.34297 40.1702 4.34477C39.4766 3.85422 38.7893 3.35379 38.0948 2.86414ZM20.1251 6.50012C20.1251 6.75887 20.1251 7.01762 20.1251 7.27637C22.0406 7.2036 23.9579 7.20539 25.8724 7.27727C25.876 7.01852 25.876 6.75977 25.8751 6.50012C23.9588 6.50012 22.0415 6.50012 20.1251 6.50012ZM14.2817 9.20082C11.9655 9.49192 9.65924 9.89442 7.40506 10.508C6.05381 10.8962 4.69897 11.3364 3.48518 12.0579C2.99014 12.3732 2.47983 12.7506 2.25072 13.3103C2.08901 13.6975 2.19951 14.1467 2.44838 14.4702C2.86705 15.0227 3.48248 15.3767 4.08713 15.6902C5.13022 16.2113 6.24248 16.5788 7.36104 16.9004C9.09502 16.4602 10.8479 16.0847 12.6232 15.8466C11.6035 14.8143 10.5774 13.7882 9.55772 12.7568C9.27651 12.4936 9.27112 12.0057 9.54873 11.738C9.81467 11.4514 10.3106 11.4532 10.5765 11.7389C11.8065 12.9653 13.032 14.1952 14.2574 15.4261C14.3401 15.4953 14.4129 15.6273 14.5449 15.5752C17.1145 15.2994 19.6966 15.1512 22.2814 15.1242C22.2832 13.684 22.2769 12.2447 22.2841 10.8045C22.2751 10.4209 22.6228 10.084 23.0037 10.0948C23.382 10.0885 23.7216 10.4236 23.7153 10.8018C23.7234 12.2429 23.7171 13.6831 23.7189 15.1242C26.3459 15.162 28.9712 15.3138 31.582 15.6076C32.8686 14.3201 34.1506 13.0291 35.4399 11.7452C35.7337 11.4424 36.2862 11.4927 36.5216 11.8431C36.7417 12.1342 36.6824 12.5745 36.4102 12.8116C35.4004 13.8224 34.3896 14.8331 33.3789 15.843C35.1515 16.0847 36.9053 16.4467 38.6392 16.8861C39.9393 16.5105 41.242 16.0847 42.4208 15.4072C42.941 15.0856 43.4872 14.71 43.737 14.1288C43.9131 13.7263 43.79 13.2564 43.5258 12.9231C43.0721 12.3418 42.41 11.9779 41.7622 11.6536C40.4217 11.0094 38.9851 10.5979 37.5467 10.2385C34.1345 9.41914 30.6378 8.99867 27.1401 8.78125C22.8528 8.52699 18.543 8.66985 14.2817 9.20082ZM2.15639 16.1107C2.15639 17.9112 2.15639 19.7116 2.15639 21.513C2.13393 21.9829 2.45108 22.3782 2.7808 22.6756C3.44924 23.2641 4.26502 23.6495 5.07901 23.9927C7.74287 25.034 10.5577 25.6288 13.3833 26.0322C18.8035 26.7617 24.3056 26.7734 29.7492 26.2945C32.4643 26.0322 35.1749 25.6539 37.8271 25.007C39.4299 24.5938 41.0489 24.1329 42.4855 23.291C43.0955 22.9065 43.8017 22.389 43.8412 21.602C43.8475 19.7718 43.8421 17.9408 43.8439 16.1107C42.7325 16.9543 41.4307 17.4997 40.1208 17.9516C37.4299 18.8366 34.6268 19.3226 31.8192 19.6586C28.415 20.0495 24.9848 20.195 21.5599 20.1456C18.4639 20.0944 15.3697 19.8806 12.3051 19.4358C10.2666 19.1304 8.23791 18.7216 6.26944 18.1016C4.82115 17.6237 3.37647 17.0442 2.15639 16.1107ZM10.5478 17.6425C18.7739 19.0666 27.2453 19.0729 35.4714 17.6398C27.2453 16.214 18.7721 16.1997 10.5478 17.6425ZM2.15639 24.0313C2.15639 25.5847 2.15639 27.139 2.15639 28.6924C2.13033 29.1686 2.44389 29.5729 2.7799 29.8739C3.48069 30.4911 4.34139 30.8891 5.1967 31.2449C7.08162 31.9825 9.05908 32.4587 11.0473 32.8225C13.3347 33.2385 15.65 33.4874 17.9689 33.6473C17.9716 32.5018 17.9644 31.3563 17.9716 30.2108C17.9635 29.8325 18.3031 29.4938 18.6813 29.5028C21.5608 29.4983 24.4394 29.4983 27.3189 29.5028C27.6963 29.4938 28.0341 29.8316 28.0287 30.2099C28.0359 31.3554 28.0287 32.5009 28.0314 33.6473C31.6 33.3975 35.1731 32.9519 38.6249 31.9852C40.0803 31.5414 41.5592 31.0634 42.8233 30.1928C43.312 29.8343 43.8628 29.3555 43.8439 28.6933C43.8439 27.139 43.8439 25.5847 43.8439 24.0304C42.7307 24.8768 41.4253 25.4194 40.1136 25.8731C36.0958 27.1723 31.8695 27.6592 27.6711 27.9207C23.9579 28.1264 20.2312 28.0923 16.5233 27.7985C13.1658 27.5137 9.80479 27.0501 6.56772 26.0906C5.01701 25.6054 3.46541 25.0142 2.15639 24.0313ZM19.4064 30.9376C19.4064 31.8675 19.4064 32.7974 19.4064 33.7264C21.8007 33.8306 24.1996 33.8369 26.5939 33.7264C26.5939 32.7965 26.5939 31.8675 26.5939 30.9376C24.1978 30.9376 21.8025 30.9376 19.4064 30.9376Z" fill="#D2153D"/>
<path d="M3.99899 18.7917C4.41137 18.5707 4.9693 18.869 5.02051 19.3308C5.04567 20.0558 5.025 20.7835 5.03129 21.5095C5.06274 21.85 4.84172 22.1977 4.5066 22.283C4.07266 22.4259 3.58121 22.0539 3.59649 21.5993C3.5911 20.877 3.59199 20.1546 3.59649 19.4323C3.59289 19.1646 3.75731 18.9058 3.99899 18.7917Z" fill="#D2153D"/>
<path d="M41.3779 18.7897C41.8253 18.5507 42.4219 18.9272 42.4039 19.4312C42.4084 20.1527 42.4084 20.875 42.4039 21.5964C42.4129 21.9783 42.0706 22.3179 41.6897 22.3116C41.3087 22.3206 40.9628 21.9828 40.9718 21.6009C40.9664 20.8768 40.9664 20.1527 40.9718 19.4285C40.97 19.1599 41.1353 18.9029 41.3779 18.7897Z" fill="#D2153D"/>
<path d="M9.03742 20.2257C9.48485 19.9903 10.0778 20.3667 10.0598 20.8698C10.0643 21.5913 10.0652 22.3136 10.0598 23.036C10.0688 23.4196 9.72114 23.7601 9.3384 23.7493C8.95836 23.7538 8.61606 23.4142 8.62774 23.0324C8.62324 22.31 8.62235 21.5868 8.62774 20.8644C8.62684 20.5949 8.79395 20.3371 9.03742 20.2257Z" fill="#D2153D"/>
<path d="M36.3427 20.2292C36.6509 20.0729 37.0597 20.1816 37.2484 20.4709C37.3921 20.6667 37.3759 20.921 37.3759 21.151C37.3706 21.7799 37.3804 22.4088 37.3723 23.0377C37.3795 23.4223 37.0318 23.761 36.6491 23.7493C36.2709 23.7529 35.9313 23.416 35.9402 23.0368C35.9357 22.3136 35.9348 21.5912 35.9402 20.868C35.9375 20.6012 36.1011 20.3433 36.3427 20.2292Z" fill="#D2153D"/>
<path d="M15.5009 21.6656C15.9483 21.4249 16.5467 21.8013 16.5287 22.3062C16.5332 23.0295 16.5341 23.7527 16.5287 24.4751C16.5359 24.8578 16.19 25.1956 15.8091 25.1866C15.43 25.192 15.0867 24.8551 15.0966 24.4733C15.0921 23.7518 15.0921 23.0295 15.0966 22.308C15.093 22.0385 15.2583 21.7797 15.5009 21.6656Z" fill="#D2153D"/>
<path d="M29.8787 21.6648C30.327 21.4258 30.9227 21.804 30.9038 22.308C30.9038 23.0645 30.9191 23.8219 30.8957 24.5784C30.8409 25.0564 30.2462 25.3484 29.8347 25.0932C29.5454 24.9414 29.4367 24.5973 29.4681 24.2891C29.4726 23.6278 29.4636 22.9666 29.4717 22.3054C29.469 22.0358 29.6352 21.7771 29.8787 21.6648Z" fill="#D2153D"/>
<path d="M22.682 22.0287C23.1276 21.7816 23.7323 22.1563 23.7161 22.663C23.7215 23.3862 23.7206 24.1095 23.7161 24.8318C23.7305 25.2864 23.2417 25.6593 22.8078 25.5182C22.5086 25.441 22.2813 25.1499 22.284 24.8399C22.2786 24.114 22.2795 23.3871 22.284 22.6612C22.2831 22.3971 22.4439 22.1428 22.682 22.0287Z" fill="#D2153D"/>
</svg>
