<svg width="190" height="37" viewBox="0 0 190 37" fill="none" xmlns="http://www.w3.org/2000/svg">
<path d="M19.735 36.55C13.5383 36.55 8.80833 34.9733 5.545 31.82C2.31833 28.63 0.705 24.2117 0.705 18.565C0.705 12.6617 2.28167 8.09667 5.435 4.87C8.625 1.64333 13.3733 0.0299976 19.68 0.0299976C21.8433 0.0299976 23.7683 0.194998 25.455 0.524998C27.1783 0.854998 28.8283 1.295 30.405 1.845V9.6C27.215 8.28 23.86 7.62 20.34 7.62C16.6733 7.62 13.9783 8.5 12.255 10.26C10.5683 12.02 9.725 14.7883 9.725 18.565C9.725 22.1583 10.6233 24.7983 12.42 26.485C14.2167 28.1717 16.8933 29.015 20.45 29.015C22.1733 29.015 23.8783 28.8683 25.565 28.575C27.2517 28.245 28.8833 27.75 30.46 27.09V34.9C28.92 35.4133 27.2883 35.8167 25.565 36.11C23.8417 36.4033 21.8983 36.55 19.735 36.55ZM43.0846 36.55C41.4346 36.55 39.8946 36.2567 38.4646 35.67C37.0713 35.0833 35.953 34.185 35.1096 32.975C34.2663 31.7283 33.8446 30.1883 33.8446 28.355C33.8446 25.6783 34.743 23.5883 36.5396 22.085C38.373 20.545 41.1046 19.775 44.7346 19.775H51.9947V19.17C51.9947 17.85 51.5546 16.915 50.6746 16.365C49.7946 15.7783 48.1446 15.485 45.7246 15.485C42.7546 15.485 39.8396 15.9433 36.9796 16.86V11.14C38.263 10.6267 39.8213 10.205 41.6546 9.875C43.5246 9.545 45.4863 9.38 47.5396 9.38C51.573 9.38 54.7263 10.205 56.9996 11.855C59.3097 13.505 60.4647 16.1267 60.4647 19.72V36H52.7096L52.2696 33.8C51.3163 34.68 50.088 35.3583 48.5846 35.835C47.118 36.3117 45.2846 36.55 43.0846 36.55ZM45.8896 31.105C47.283 31.105 48.493 30.8667 49.5196 30.39C50.5463 29.9133 51.3713 29.3083 51.9947 28.575V24.89H45.7246C43.1213 24.89 41.8196 25.935 41.8196 28.025C41.8196 28.9783 42.1496 29.73 42.8096 30.28C43.4696 30.83 44.4963 31.105 45.8896 31.105ZM65.7747 36V9.93H74.1897L74.4647 12.35C75.6014 11.6533 77.0131 11.03 78.6997 10.48C80.3864 9.89333 82.0731 9.52667 83.7597 9.38V16.035C82.8064 16.145 81.7431 16.3283 80.5697 16.585C79.4331 16.805 78.3331 17.08 77.2697 17.41C76.2431 17.74 75.3631 18.0883 74.6297 18.455V36H65.7747ZM99.9938 36.55C95.4471 36.55 91.7988 35.4317 89.0488 33.195C86.2988 30.9217 84.9238 27.5117 84.9238 22.965C84.9238 18.8217 86.0604 15.5217 88.3338 13.065C90.6071 10.6083 94.0171 9.38 98.5638 9.38C102.707 9.38 105.915 10.4433 108.189 12.57C110.462 14.6967 111.599 17.5567 111.599 21.15V25.825H93.1188C93.5221 27.5483 94.4571 28.7583 95.9238 29.455C97.4271 30.115 99.4621 30.445 102.029 30.445C103.459 30.445 104.907 30.3167 106.374 30.06C107.877 29.8033 109.124 29.4733 110.114 29.07V34.845C108.867 35.4317 107.382 35.8533 105.659 36.11C103.935 36.4033 102.047 36.55 99.9938 36.55ZM93.1188 20.71H103.899V19.555C103.899 18.2717 103.514 17.2633 102.744 16.53C101.974 15.76 100.672 15.375 98.8388 15.375C96.7121 15.375 95.2271 15.815 94.3838 16.695C93.5404 17.5383 93.1188 18.8767 93.1188 20.71ZM130.072 36.55C125.525 36.55 121.877 35.4317 119.127 33.195C116.377 30.9217 115.002 27.5117 115.002 22.965C115.002 18.8217 116.139 15.5217 118.412 13.065C120.685 10.6083 124.095 9.38 128.642 9.38C132.785 9.38 135.994 10.4433 138.267 12.57C140.54 14.6967 141.677 17.5567 141.677 21.15V25.825H123.197C123.6 27.5483 124.535 28.7583 126.002 29.455C127.505 30.115 129.54 30.445 132.107 30.445C133.537 30.445 134.985 30.3167 136.452 30.06C137.955 29.8033 139.202 29.4733 140.192 29.07V34.845C138.945 35.4317 137.46 35.8533 135.737 36.11C134.014 36.4033 132.125 36.55 130.072 36.55ZM123.197 20.71H133.977V19.555C133.977 18.2717 133.592 17.2633 132.822 16.53C132.052 15.76 130.75 15.375 128.917 15.375C126.79 15.375 125.305 15.815 124.462 16.695C123.619 17.5383 123.197 18.8767 123.197 20.71ZM146.18 36V9.93H154.595L154.87 12.35C156.007 11.6533 157.418 11.03 159.105 10.48C160.792 9.89333 162.478 9.52667 164.165 9.38V16.035C163.212 16.145 162.148 16.3283 160.975 16.585C159.838 16.805 158.738 17.08 157.675 17.41C156.648 17.74 155.768 18.0883 155.035 18.455V36H146.18ZM176.915 36.55C174.825 36.55 172.845 36.4033 170.975 36.11C169.105 35.8167 167.62 35.45 166.52 35.01V28.245C167.803 28.795 169.288 29.2167 170.975 29.51C172.661 29.8033 174.165 29.95 175.485 29.95C177.061 29.95 178.198 29.8767 178.895 29.73C179.628 29.5833 179.995 29.18 179.995 28.52C179.995 27.7867 179.408 27.2367 178.235 26.87C177.061 26.5033 175.448 25.9717 173.395 25.275C171.011 24.4317 169.196 23.46 167.95 22.36C166.74 21.2233 166.135 19.555 166.135 17.355C166.135 14.7883 167.088 12.8267 168.995 11.47C170.938 10.0767 174.018 9.38 178.235 9.38C179.885 9.38 181.516 9.50833 183.13 9.765C184.743 10.0217 186.063 10.315 187.09 10.645V17.3C186.063 16.8233 184.89 16.475 183.57 16.255C182.25 16.035 181.058 15.925 179.995 15.925C178.638 15.925 177.483 16.0167 176.53 16.2C175.613 16.3467 175.155 16.7317 175.155 17.355C175.155 18.0517 175.668 18.5467 176.695 18.84C177.721 19.0967 179.206 19.5367 181.15 20.16C183.203 20.7833 184.798 21.4617 185.935 22.195C187.071 22.8917 187.878 23.735 188.355 24.725C188.831 25.715 189.07 26.9617 189.07 28.465C189.07 31.0683 188.043 33.0667 185.99 34.46C183.936 35.8533 180.911 36.55 176.915 36.55Z" fill="white"/>
</svg>
