<svg width="222" height="37" viewBox="0 0 222 37" fill="none" xmlns="http://www.w3.org/2000/svg">
<path d="M19.735 36.55C13.5383 36.55 8.80833 34.9733 5.545 31.82C2.31833 28.63 0.705 24.2117 0.705 18.565C0.705 12.6617 2.28167 8.09667 5.435 4.87C8.625 1.64333 13.3733 0.0299976 19.68 0.0299976C21.8433 0.0299976 23.7683 0.194998 25.455 0.524998C27.1783 0.854998 28.8283 1.295 30.405 1.845V9.6C27.215 8.28 23.86 7.62 20.34 7.62C16.6733 7.62 13.9783 8.5 12.255 10.26C10.5683 12.02 9.725 14.7883 9.725 18.565C9.725 22.1583 10.6233 24.7983 12.42 26.485C14.2167 28.1717 16.8933 29.015 20.45 29.015C22.1733 29.015 23.8783 28.8683 25.565 28.575C27.2517 28.245 28.8833 27.75 30.46 27.09V34.9C28.92 35.4133 27.2883 35.8167 25.565 36.11C23.8417 36.4033 21.8983 36.55 19.735 36.55ZM48.5296 36.55C43.5063 36.55 39.803 35.395 37.4196 33.085C35.0363 30.7383 33.8446 27.365 33.8446 22.965C33.8446 18.6017 35.0363 15.2467 37.4196 12.9C39.8396 10.5533 43.543 9.38 48.5296 9.38C53.553 9.38 57.2563 10.5533 59.6396 12.9C62.0597 15.2467 63.2697 18.6017 63.2697 22.965C63.2697 27.365 62.078 30.7383 59.6947 33.085C57.3113 35.395 53.5896 36.55 48.5296 36.55ZM48.5296 29.62C50.583 29.62 52.0496 29.1067 52.9296 28.08C53.8096 27.0533 54.2496 25.3483 54.2496 22.965C54.2496 20.5817 53.8096 18.8767 52.9296 17.85C52.0496 16.8233 50.583 16.31 48.5296 16.31C46.513 16.31 45.0646 16.8233 44.1846 17.85C43.3046 18.8767 42.8646 20.5817 42.8646 22.965C42.8646 25.3483 43.3046 27.0533 44.1846 28.08C45.0646 29.1067 46.513 29.62 48.5296 29.62ZM67.762 36V9.93H76.012L76.287 12.185C77.3504 11.4517 78.6887 10.81 80.302 10.26C81.9154 9.67333 83.6387 9.38 85.472 9.38C88.8454 9.38 91.302 10.1867 92.842 11.8C94.382 13.4133 95.152 15.9067 95.152 19.28V36H86.297V19.995C86.297 18.5283 85.9854 17.4833 85.362 16.86C84.7387 16.2367 83.6204 15.925 82.007 15.925C81.0537 15.925 80.082 16.145 79.092 16.585C78.102 17.025 77.277 17.575 76.617 18.235V36H67.762ZM111.197 36.55C107.97 36.55 105.587 35.725 104.047 34.075C102.544 32.425 101.792 30.1517 101.792 27.255V16.64H98.272V9.93H101.792V4.485L110.647 2.12V9.93H116.972L116.587 16.64H110.647V26.65C110.647 27.8967 110.959 28.7767 111.582 29.29C112.205 29.7667 113.14 30.005 114.387 30.005C115.45 30.005 116.532 29.8217 117.632 29.455V35.45C115.909 36.1833 113.764 36.55 111.197 36.55ZM129.183 36.55C127.533 36.55 125.993 36.2567 124.563 35.67C123.17 35.0833 122.052 34.185 121.208 32.975C120.365 31.7283 119.943 30.1883 119.943 28.355C119.943 25.6783 120.842 23.5883 122.638 22.085C124.472 20.545 127.203 19.775 130.833 19.775H138.093V19.17C138.093 17.85 137.653 16.915 136.773 16.365C135.893 15.7783 134.243 15.485 131.823 15.485C128.853 15.485 125.938 15.9433 123.078 16.86V11.14C124.362 10.6267 125.92 10.205 127.753 9.875C129.623 9.545 131.585 9.38 133.638 9.38C137.672 9.38 140.825 10.205 143.098 11.855C145.408 13.505 146.563 16.1267 146.563 19.72V36H138.808L138.368 33.8C137.415 34.68 136.187 35.3583 134.683 35.835C133.217 36.3117 131.383 36.55 129.183 36.55ZM131.988 31.105C133.382 31.105 134.592 30.8667 135.618 30.39C136.645 29.9133 137.47 29.3083 138.093 28.575V24.89H131.823C129.22 24.89 127.918 25.935 127.918 28.025C127.918 28.9783 128.248 29.73 128.908 30.28C129.568 30.83 130.595 31.105 131.988 31.105ZM165.623 36.55C160.967 36.55 157.318 35.4133 154.678 33.14C152.075 30.8667 150.773 27.475 150.773 22.965C150.773 18.3817 152.13 14.9717 154.843 12.735C157.593 10.4983 161.242 9.38 165.788 9.38C167.695 9.38 169.345 9.52667 170.738 9.82C172.168 10.0767 173.543 10.5167 174.863 11.14V17.41C172.81 16.42 170.408 15.925 167.658 15.925C165.092 15.925 163.13 16.4383 161.773 17.465C160.453 18.4917 159.793 20.325 159.793 22.965C159.793 25.4217 160.417 27.2183 161.663 28.355C162.91 29.455 164.89 30.005 167.603 30.005C170.28 30.005 172.718 29.455 174.918 28.355V34.9C173.598 35.4867 172.168 35.9083 170.628 36.165C169.125 36.4217 167.457 36.55 165.623 36.55ZM190.152 36.55C186.925 36.55 184.542 35.725 183.002 34.075C181.499 32.425 180.747 30.1517 180.747 27.255V16.64H177.227V9.93H180.747V4.485L189.602 2.12V9.93H195.927L195.542 16.64H189.602V26.65C189.602 27.8967 189.914 28.7767 190.537 29.29C191.16 29.7667 192.095 30.005 193.342 30.005C194.405 30.005 195.487 29.8217 196.587 29.455V35.45C194.864 36.1833 192.719 36.55 190.152 36.55ZM209.678 36.55C207.588 36.55 205.608 36.4033 203.738 36.11C201.868 35.8167 200.383 35.45 199.283 35.01V28.245C200.567 28.795 202.052 29.2167 203.738 29.51C205.425 29.8033 206.928 29.95 208.248 29.95C209.825 29.95 210.962 29.8767 211.658 29.73C212.392 29.5833 212.758 29.18 212.758 28.52C212.758 27.7867 212.172 27.2367 210.998 26.87C209.825 26.5033 208.212 25.9717 206.158 25.275C203.775 24.4317 201.96 23.46 200.713 22.36C199.503 21.2233 198.898 19.555 198.898 17.355C198.898 14.7883 199.852 12.8267 201.758 11.47C203.702 10.0767 206.782 9.38 210.998 9.38C212.648 9.38 214.28 9.50833 215.893 9.765C217.507 10.0217 218.827 10.315 219.853 10.645V17.3C218.827 16.8233 217.653 16.475 216.333 16.255C215.013 16.035 213.822 15.925 212.758 15.925C211.402 15.925 210.247 16.0167 209.293 16.2C208.377 16.3467 207.918 16.7317 207.918 17.355C207.918 18.0517 208.432 18.5467 209.458 18.84C210.485 19.0967 211.97 19.5367 213.913 20.16C215.967 20.7833 217.562 21.4617 218.698 22.195C219.835 22.8917 220.642 23.735 221.118 24.725C221.595 25.715 221.833 26.9617 221.833 28.465C221.833 31.0683 220.807 33.0667 218.753 34.46C216.7 35.8533 213.675 36.55 209.678 36.55Z" fill="white"/>
</svg>
