<svg width="317" height="333" viewBox="0 0 317 333" fill="none" xmlns="http://www.w3.org/2000/svg">
<path d="M64.512 309.788V294.332H70.776C73.064 294.332 74.76 294.94 75.864 296.156C76.968 297.356 77.52 299.356 77.52 302.156C77.52 304.796 76.976 306.732 75.888 307.964C74.8 309.18 73.096 309.788 70.776 309.788H64.512ZM67.128 307.772H70.368C71.376 307.772 72.216 307.628 72.888 307.34C73.56 307.036 74.064 306.476 74.4 305.66C74.736 304.844 74.904 303.676 74.904 302.156C74.904 300.636 74.752 299.46 74.448 298.628C74.144 297.796 73.656 297.212 72.984 296.876C72.328 296.54 71.456 296.372 70.368 296.372H67.128V307.772ZM85.5459 310.028C83.4979 310.028 81.9939 309.516 81.0339 308.492C80.0899 307.468 79.6179 306.004 79.6179 304.1C79.6179 302.196 80.0979 300.732 81.0579 299.708C82.0179 298.684 83.5139 298.172 85.5459 298.172C87.5939 298.172 89.0979 298.684 90.0579 299.708C91.0179 300.732 91.4979 302.196 91.4979 304.1C91.4979 306.004 91.0179 307.468 90.0579 308.492C89.1139 309.516 87.6099 310.028 85.5459 310.028ZM85.5459 307.82C86.7459 307.82 87.5939 307.532 88.0899 306.956C88.6019 306.364 88.8579 305.412 88.8579 304.1C88.8579 302.788 88.6019 301.844 88.0899 301.268C87.5939 300.692 86.7459 300.404 85.5459 300.404C84.3619 300.404 83.5139 300.692 83.0019 301.268C82.5059 301.844 82.2579 302.788 82.2579 304.1C82.2579 305.412 82.5059 306.364 83.0019 306.956C83.5139 307.532 84.3619 307.82 85.5459 307.82ZM95.4851 309.788L92.4851 298.412H95.1011L97.0691 306.692L99.3011 299.804V298.412H101.293L103.765 306.692L105.733 298.412H108.325L105.349 309.788H102.877L100.453 302.348L97.9811 309.788H95.4851ZM110.262 309.788V298.412H112.662L112.782 299.612C113.294 299.212 113.902 298.876 114.606 298.604C115.326 298.316 116.118 298.172 116.982 298.172C118.454 298.172 119.526 298.516 120.198 299.204C120.87 299.892 121.206 300.964 121.206 302.42V309.788H118.614V302.54C118.614 301.66 118.43 301.044 118.062 300.692C117.71 300.34 117.038 300.164 116.046 300.164C115.454 300.164 114.87 300.284 114.294 300.524C113.734 300.764 113.262 301.076 112.878 301.46V309.788H110.262ZM126.969 310.028C126.041 310.028 125.337 309.804 124.857 309.356C124.377 308.892 124.137 308.132 124.137 307.076V293.612H126.753V306.836C126.753 307.284 126.833 307.588 126.993 307.748C127.153 307.908 127.393 307.988 127.713 307.988C128.097 307.988 128.465 307.94 128.817 307.844V309.74C128.513 309.852 128.217 309.924 127.929 309.956C127.657 310.004 127.337 310.028 126.969 310.028ZM136.312 310.028C134.264 310.028 132.76 309.516 131.8 308.492C130.856 307.468 130.384 306.004 130.384 304.1C130.384 302.196 130.864 300.732 131.824 299.708C132.784 298.684 134.28 298.172 136.312 298.172C138.36 298.172 139.864 298.684 140.824 299.708C141.784 300.732 142.264 302.196 142.264 304.1C142.264 306.004 141.784 307.468 140.824 308.492C139.88 309.516 138.376 310.028 136.312 310.028ZM136.312 307.82C137.512 307.82 138.36 307.532 138.856 306.956C139.368 306.364 139.624 305.412 139.624 304.1C139.624 302.788 139.368 301.844 138.856 301.268C138.36 300.692 137.512 300.404 136.312 300.404C135.128 300.404 134.28 300.692 133.768 301.268C133.272 301.844 133.024 302.788 133.024 304.1C133.024 305.412 133.272 306.364 133.768 306.956C134.28 307.532 135.128 307.82 136.312 307.82ZM148.361 310.028C147.641 310.028 146.969 309.9 146.345 309.644C145.737 309.388 145.249 309.004 144.881 308.492C144.513 307.964 144.329 307.316 144.329 306.548C144.329 305.46 144.697 304.588 145.433 303.932C146.185 303.26 147.337 302.924 148.889 302.924H152.537V302.42C152.537 301.876 152.449 301.444 152.273 301.124C152.113 300.804 151.809 300.572 151.361 300.428C150.929 300.284 150.289 300.212 149.441 300.212C148.097 300.212 146.841 300.412 145.673 300.812V298.868C146.185 298.66 146.809 298.492 147.545 298.364C148.281 298.236 149.073 298.172 149.921 298.172C151.585 298.172 152.849 298.508 153.713 299.18C154.593 299.852 155.033 300.948 155.033 302.468V309.788H152.801L152.633 308.636C152.169 309.084 151.593 309.428 150.905 309.668C150.233 309.908 149.385 310.028 148.361 310.028ZM149.057 308.156C149.841 308.156 150.521 308.028 151.097 307.772C151.689 307.5 152.169 307.14 152.537 306.692V304.7H148.937C148.169 304.7 147.609 304.852 147.257 305.156C146.921 305.444 146.753 305.892 146.753 306.5C146.753 307.092 146.953 307.516 147.353 307.772C147.753 308.028 148.321 308.156 149.057 308.156ZM162.638 310.028C161.614 310.028 160.71 309.852 159.926 309.5C159.142 309.148 158.534 308.564 158.102 307.748C157.67 306.932 157.454 305.836 157.454 304.46C157.454 303.1 157.686 301.956 158.15 301.028C158.614 300.084 159.254 299.372 160.07 298.892C160.902 298.412 161.838 298.172 162.878 298.172C163.566 298.172 164.174 298.252 164.702 298.412C165.246 298.572 165.766 298.82 166.262 299.156V293.612H168.878V309.788H166.646L166.478 308.66C165.966 309.124 165.406 309.468 164.798 309.692C164.19 309.916 163.47 310.028 162.638 310.028ZM163.334 308.06C164.502 308.06 165.478 307.66 166.262 306.86V301.172C165.51 300.5 164.566 300.164 163.43 300.164C162.326 300.164 161.494 300.532 160.934 301.268C160.374 302.004 160.094 303.076 160.094 304.484C160.094 305.844 160.35 306.78 160.862 307.292C161.39 307.804 162.214 308.06 163.334 308.06ZM177.434 314.972V298.412H179.69L179.834 299.54C180.346 299.076 180.906 298.732 181.514 298.508C182.122 298.284 182.842 298.172 183.674 298.172C185.306 298.172 186.578 298.62 187.49 299.516C188.402 300.396 188.858 301.86 188.858 303.908C188.858 305.956 188.386 307.492 187.442 308.516C186.498 309.524 185.21 310.028 183.578 310.028C182.202 310.028 181.026 309.708 180.05 309.068V314.972H177.434ZM182.906 308.06C185.114 308.06 186.218 306.668 186.218 303.884C186.218 302.54 185.97 301.588 185.474 301.028C184.978 300.452 184.146 300.164 182.978 300.164C181.81 300.164 180.834 300.564 180.05 301.364V307.052C180.418 307.356 180.826 307.604 181.274 307.796C181.738 307.972 182.282 308.06 182.906 308.06ZM191.403 309.788V298.412H193.803L193.947 299.732C194.491 299.38 195.139 299.06 195.891 298.772C196.643 298.484 197.387 298.284 198.123 298.172V300.164C197.675 300.244 197.187 300.364 196.659 300.524C196.147 300.668 195.659 300.836 195.195 301.028C194.731 301.204 194.339 301.388 194.019 301.58V309.788H191.403ZM205.007 310.028C202.959 310.028 201.455 309.516 200.495 308.492C199.551 307.468 199.079 306.004 199.079 304.1C199.079 302.196 199.559 300.732 200.519 299.708C201.479 298.684 202.975 298.172 205.007 298.172C207.055 298.172 208.559 298.684 209.519 299.708C210.479 300.732 210.959 302.196 210.959 304.1C210.959 306.004 210.479 307.468 209.519 308.492C208.575 309.516 207.071 310.028 205.007 310.028ZM205.007 307.82C206.207 307.82 207.055 307.532 207.551 306.956C208.063 306.364 208.319 305.412 208.319 304.1C208.319 302.788 208.063 301.844 207.551 301.268C207.055 300.692 206.207 300.404 205.007 300.404C203.823 300.404 202.975 300.692 202.463 301.268C201.967 301.844 201.719 302.788 201.719 304.1C201.719 305.412 201.967 306.364 202.463 306.956C202.975 307.532 203.823 307.82 205.007 307.82ZM214.2 309.788V300.452H212.544V298.412H214.2V297.02C214.2 295.884 214.512 294.972 215.136 294.284C215.776 293.58 216.72 293.228 217.968 293.228C218.432 293.228 218.856 293.268 219.24 293.348C219.624 293.412 219.976 293.508 220.296 293.636V295.508C219.8 295.332 219.296 295.244 218.784 295.244C218.032 295.244 217.512 295.38 217.224 295.652C216.936 295.924 216.792 296.388 216.792 297.044V298.412H219.768L219.648 300.452H216.792V309.788H214.2ZM221.8 296.036V293.876H224.656V296.036H221.8ZM222.016 309.788V300.404H220.288L220.528 298.412H224.632V309.788H222.016ZM230.516 310.028C229.588 310.028 228.884 309.804 228.404 309.356C227.924 308.892 227.684 308.132 227.684 307.076V293.612H230.3V306.836C230.3 307.284 230.38 307.588 230.54 307.748C230.7 307.908 230.94 307.988 231.26 307.988C231.644 307.988 232.012 307.94 232.364 307.844V309.74C232.06 309.852 231.764 309.924 231.476 309.956C231.204 310.004 230.884 310.028 230.516 310.028ZM240.17 310.028C238.186 310.028 236.65 309.54 235.562 308.564C234.474 307.588 233.93 306.092 233.93 304.076C233.93 302.252 234.394 300.812 235.322 299.756C236.25 298.7 237.658 298.172 239.546 298.172C241.274 298.172 242.57 298.628 243.434 299.54C244.314 300.436 244.754 301.596 244.754 303.02V305.132H236.426C236.554 306.236 236.954 306.996 237.626 307.412C238.298 307.828 239.322 308.036 240.698 308.036C241.274 308.036 241.866 307.98 242.474 307.868C243.082 307.756 243.61 307.612 244.058 307.436V309.356C243.546 309.58 242.954 309.748 242.282 309.86C241.626 309.972 240.922 310.028 240.17 310.028ZM236.426 303.428H242.45V302.636C242.45 301.852 242.234 301.244 241.802 300.812C241.37 300.364 240.642 300.14 239.618 300.14C238.402 300.14 237.562 300.404 237.098 300.932C236.65 301.46 236.426 302.292 236.426 303.428Z" fill="#00215B"/>
<rect y="0.460693" width="317" height="259.539" fill="#D2153D" fill-opacity="0.85"/>
<path d="M156.983 35.3704C157.694 34.9345 158.41 34.4985 159.126 34.0669C159.126 35.7802 159.126 37.4979 159.112 39.2112C158.527 39.4946 157.942 39.7779 157.362 40.0657C157.39 38.5311 157.292 36.9922 157.002 35.4794L156.983 35.3704Z" fill="white"/>
<path d="M157.123 42.7903C157.797 42.4415 158.466 42.084 159.135 41.7266C159.121 43.357 159.121 44.9875 159.117 46.618C158.471 46.897 157.83 47.176 157.189 47.4594C157.151 45.9641 157.133 44.4687 157.128 42.9734L157.123 42.7903Z" fill="white"/>
<path d="M157.432 50.2975C157.994 49.9793 158.555 49.661 159.117 49.3428C159.126 50.9035 159.126 52.4599 159.117 54.0162C158.663 54.195 158.209 54.3737 157.76 54.5525C157.699 53.1312 157.591 51.71 157.432 50.2975Z" fill="white"/>
<path d="M156.983 58.0577C157.699 57.7045 158.415 57.3514 159.131 56.9983C159.126 58.4718 159.121 59.9454 159.117 61.4145C158.569 61.6151 158.031 61.8156 157.488 62.0162C157.367 60.7257 157.212 59.4397 157.002 58.1623L156.983 58.0577Z" fill="white"/>
<path d="M157.133 65.6041C157.793 65.2771 158.457 64.9545 159.121 64.6362C159.126 66.0313 159.126 67.422 159.117 68.8127C158.551 69.0045 157.984 69.1963 157.423 69.3882C157.339 68.1239 157.24 66.864 157.133 65.6041Z" fill="white"/>
<path d="M157.409 73.0589C157.98 72.7973 158.55 72.5357 159.121 72.2742C159.121 73.5908 159.126 74.903 159.126 76.2196C158.644 76.3547 158.167 76.4942 157.69 76.6294C157.601 75.4392 157.512 74.2491 157.409 73.0589Z" fill="white"/>
<path d="M156.398 96.1079C157.301 95.8071 158.209 95.515 159.121 95.2273C159.121 96.2867 159.121 97.3417 159.126 98.3967C158.377 98.5624 157.638 98.7324 156.899 98.9024C157.053 98.2049 157.208 97.5117 157.367 96.8185C157.123 96.6398 156.637 96.2867 156.398 96.1079Z" fill="white"/>
<path d="M159.126 34.0669C161.278 35.4184 163.388 36.8309 165.545 38.178C165.503 39.5643 165.489 40.955 165.498 42.3414C163.402 41.2384 161.213 40.2967 159.112 39.2112C159.126 37.4979 159.126 35.7802 159.126 34.0669Z" fill="white"/>
<path d="M159.135 41.7266C161.301 42.9865 163.412 44.3379 165.587 45.5935C165.517 46.8883 165.452 48.1831 165.386 49.4822C163.318 48.4795 161.194 47.5946 159.116 46.618C159.121 44.9875 159.121 43.357 159.135 41.7266Z" fill="white"/>
<path d="M159.121 72.2742C161.437 73.303 163.721 74.3929 166.069 75.3608C165.99 76.3417 165.863 77.3226 165.517 78.2555C163.374 77.6059 161.255 76.904 159.126 76.2196C159.126 74.903 159.121 73.5908 159.121 72.2742Z" fill="white"/>
<path d="M159.131 79.9514C161.428 80.8364 163.669 81.8391 165.971 82.711C165.948 83.6789 165.934 84.6467 165.915 85.6189C163.674 84.8865 161.376 84.3023 159.126 83.596C159.131 82.3797 159.126 81.1677 159.131 79.9514Z" fill="white"/>
<path d="M159.121 95.2273C161.409 95.9597 163.669 96.7619 165.962 97.4725C165.952 98.3095 165.948 99.1466 165.948 99.988C163.688 99.395 161.395 98.9417 159.126 98.3967C159.121 97.3417 159.121 96.2867 159.121 95.2273Z" fill="white"/>
<path d="M159.135 102.883C161.273 103.48 163.393 104.138 165.536 104.731C165.522 105.494 165.512 106.261 165.508 107.024C163.37 106.636 161.241 106.218 159.116 105.786C159.126 104.814 159.126 103.846 159.135 102.883Z" fill="white"/>
<path d="M118.176 127.166C119.95 126.76 121.709 126.272 123.482 125.862C123.473 126.551 123.463 127.248 123.454 127.942C121.704 128.208 119.954 128.46 118.218 128.792C118.209 128.386 118.186 127.571 118.176 127.166Z" fill="white"/>
<path d="M155.032 36.5997C155.682 36.2204 156.337 35.8498 157.002 35.4792C157.292 36.992 157.39 38.531 157.362 40.0655C156.712 40.3707 156.066 40.6846 155.42 40.9941C155.364 39.5642 155.247 38.1299 155.046 36.7086L155.032 36.5997Z" fill="white"/>
<path d="M154.611 59.2738C155.401 58.8989 156.202 58.5283 157.002 58.1621C157.212 59.4395 157.367 60.7255 157.488 62.016C156.529 62.3996 155.575 62.7833 154.625 63.1756C154.817 61.9201 154.831 60.6427 154.625 59.3871L154.611 59.2738Z" fill="white"/>
<path d="M154.606 66.7549C155.453 66.38 156.295 65.9964 157.133 65.604C157.24 66.8639 157.339 68.1238 157.423 69.3881C156.613 69.6802 155.809 69.9723 155.004 70.26C154.873 69.1222 154.746 67.9887 154.615 66.8508L154.606 66.7549Z" fill="white"/>
<path d="M154.611 74.2708C155.542 73.861 156.473 73.4556 157.409 73.0588C157.512 74.249 157.601 75.4392 157.689 76.6293C156.768 76.9476 155.846 77.2615 154.924 77.5666C154.821 76.468 154.718 75.3694 154.611 74.2708Z" fill="white"/>
<path d="M152.8 38.0079C153.544 37.5676 154.293 37.136 155.046 36.7087C155.247 38.13 155.364 39.5643 155.42 40.9942C154.531 41.4389 153.647 41.8792 152.763 42.3239C152.964 40.9288 152.997 39.5163 152.809 38.1212L152.8 38.0079Z" fill="white"/>
<path d="M152.688 104.657C153.638 104.422 154.583 104.186 155.537 103.955C155.547 104.797 155.556 105.642 155.565 106.488C154.756 106.645 153.942 106.806 153.132 106.968C152.987 106.231 152.847 105.499 152.706 104.762L152.688 104.657Z" fill="white"/>
<path d="M152.669 112.038C153.619 111.859 154.564 111.685 155.518 111.523C155.514 112.282 155.509 113.036 155.509 113.795C154.709 113.921 153.914 114.056 153.123 114.191C152.978 113.507 152.833 112.827 152.692 112.147L152.669 112.038Z" fill="white"/>
<path d="M152.051 134.376C153.165 134.224 154.288 134.08 155.406 133.94C155.584 134.49 155.762 135.039 155.94 135.588C154.854 135.676 153.773 135.763 152.692 135.828C152.533 135.466 152.21 134.738 152.051 134.376Z" fill="white"/>
<path d="M149.427 40.1442C150.549 39.4641 151.672 38.7796 152.809 38.1213C152.996 39.5164 152.964 40.9289 152.763 42.324C151.794 42.7817 150.835 43.2482 149.871 43.7103C149.726 42.555 149.586 41.3997 149.441 40.2445L149.427 40.1442Z" fill="white"/>
<path d="M149.745 105.603C150.629 105.106 151.729 105.045 152.706 104.762C152.847 105.498 152.987 106.231 153.132 106.968C152.033 107.199 150.938 107.43 149.838 107.652C149.782 107.068 149.721 106.488 149.661 105.908L149.745 105.603Z" fill="white"/>
<path d="M149.01 112.949C150.236 112.679 151.462 112.409 152.692 112.147C152.833 112.827 152.978 113.507 153.123 114.192C152.065 114.37 151.008 114.549 149.951 114.719C149.646 114.157 149.352 113.599 149.057 113.036L149.01 112.949Z" fill="white"/>
<path d="M180.681 148C182.08 148.083 183.479 148.174 184.883 148.257C184.972 149.84 184.883 151.427 184.565 152.987C183.264 153.027 181.968 153.079 180.677 153.136C180.695 151.422 180.7 149.713 180.681 148Z" fill="white"/>
<path d="M165.545 38.178C168.282 39.7867 170.846 41.6351 173.584 43.2482L173.57 43.3266C173.485 44.2378 173.331 45.1446 172.961 45.9947C170.505 44.7173 167.96 43.6057 165.498 42.3414C165.489 40.955 165.503 39.5643 165.545 38.178Z" fill="white"/>
<path d="M165.587 45.5935C168.32 47.115 170.917 48.8457 173.649 50.3847C173.495 51.2435 173.462 52.1677 172.872 52.8958C170.388 51.7318 167.857 50.6593 165.386 49.4822C165.452 48.1831 165.517 46.8883 165.587 45.5935Z" fill="white"/>
<path d="M177.093 147.769C178.286 147.848 179.484 147.926 180.681 148C180.7 149.713 180.696 151.422 180.677 153.136C179.582 153.184 178.487 153.227 177.392 153.271C177.481 151.431 177.434 149.583 177.093 147.769Z" fill="white"/>
<path d="M144.406 43.3702C146.062 42.3021 147.737 41.2514 149.441 40.2444C149.586 41.3997 149.726 42.555 149.871 43.7102C148.098 44.5604 146.357 45.4759 144.57 46.3042C144.514 45.3277 144.458 44.3511 144.406 43.3702Z" fill="white"/>
<path d="M144.238 57.6172C145.992 56.6101 147.794 55.6728 149.553 54.6658C149.675 55.7469 149.796 56.8281 149.918 57.9093C148.196 58.6068 146.507 59.3785 144.79 60.0891C144.603 59.2651 144.42 58.4412 144.238 57.6172Z" fill="white"/>
<path d="M144.476 99.9139C146.278 99.3864 148.056 98.7848 149.866 98.2791C149.885 98.9243 149.904 99.5695 149.923 100.219L149.749 100.52C148.116 101.047 146.399 101.309 144.734 101.741C144.673 101.309 144.551 100.437 144.49 100.005L144.476 99.9139Z" fill="white"/>
<path d="M145 113.987C146.343 113.629 147.695 113.324 149.057 113.036C149.352 113.599 149.646 114.157 149.951 114.719C148.276 115.002 146.61 115.321 144.935 115.586C144.954 115.185 144.986 114.383 145 113.987Z" fill="white"/>
<path d="M153.661 44.9003C154.803 44.2377 155.958 43.5968 157.128 42.9734C157.133 44.4687 157.151 45.9641 157.189 47.4594C156.183 47.9346 155.172 48.4011 154.157 48.8675C154.068 47.5727 153.918 46.2779 153.68 45.0006L153.661 44.9003Z" fill="white"/>
<path d="M207.622 74.8682C212.072 77.6016 216.447 80.4441 220.868 83.2168C216.044 81.0152 211.267 78.722 206.495 76.4245C206.869 75.9057 207.243 75.387 207.622 74.8682Z" fill="white"/>
<path d="M153.67 96.9406C154.578 96.6746 155.49 96.3956 156.398 96.1079C156.637 96.2867 157.123 96.6398 157.367 96.8185C157.208 97.5117 157.053 98.2049 156.899 98.9024C155.949 99.1204 154.994 99.334 154.045 99.5389C153.923 98.7019 153.801 97.8692 153.684 97.0321L153.67 96.9406Z" fill="white"/>
<path d="M207.215 101.775C211.384 103.48 215.432 105.437 219.605 107.142C218.688 107.029 217.785 106.811 216.924 106.501C213.663 105.381 210.317 104.491 207.08 103.319C207.112 102.935 207.178 102.163 207.215 101.775Z" fill="white"/>
<path d="M98.2068 131.939C102.862 131.011 107.42 129.711 112.033 128.617C112.225 128.988 112.421 129.363 112.632 129.729C107.827 130.479 103.045 131.464 98.2068 131.939Z" fill="white"/>
<path d="M124.062 56.2047C130.851 51.9367 137.631 47.6599 144.406 43.3701C144.458 44.351 144.514 45.3276 144.57 46.3041C138.487 49.2948 132.409 52.2855 126.327 55.2718C125.592 55.6249 124.834 55.9344 124.062 56.2047Z" fill="white"/>
<path d="M124.825 118.882C131.553 117.261 138.281 115.63 145 113.987C144.986 114.383 144.954 115.185 144.935 115.587C138.221 116.628 131.577 118.115 124.825 118.882Z" fill="white"/>
<path d="M173.57 43.3267C177.032 45.2841 180.232 47.6208 183.639 49.6568C183.274 49.9925 182.909 50.3238 182.548 50.6595C179.376 49.0551 176.124 47.6078 172.961 45.9947C173.331 45.1446 173.485 44.2378 173.57 43.3267Z" fill="white"/>
<path d="M173.649 50.3848C176.475 51.9978 179.203 53.7504 182.015 55.3896C181.865 55.8866 181.72 56.3835 181.575 56.8805C178.707 55.4898 175.731 54.2997 172.872 52.8959C173.462 52.1678 173.495 51.2436 173.649 50.3848Z" fill="white"/>
<path d="M207.201 107.208C211.66 108.855 215.974 110.835 220.466 112.408C215.909 111.31 211.417 109.937 206.935 108.581C207.005 108.236 207.136 107.552 207.201 107.208Z" fill="white"/>
<path d="M206.074 123.22C210.926 124.393 215.642 126.01 220.494 127.192C215.74 126.39 210.991 125.457 206.28 124.467C206.228 124.153 206.125 123.53 206.074 123.22Z" fill="white"/>
<path d="M149.904 47.1369C151.158 46.4176 152.407 45.6939 153.68 45.0007C153.918 46.2781 154.068 47.5729 154.157 48.8677C152.912 49.4213 151.677 50.0012 150.437 50.5679C150.292 49.4519 150.124 48.3402 149.918 47.2328L149.904 47.1369Z" fill="white"/>
<path d="M144.72 50.2105C146.474 49.247 148.163 48.1877 149.918 47.2329C150.124 48.3402 150.292 49.4519 150.437 50.568C148.72 51.3048 147.054 52.1462 145.337 52.8873C145.136 52.0241 144.94 51.1652 144.743 50.3021L144.72 50.2105Z" fill="white"/>
<path d="M145.061 92.664C146.717 92.0493 148.397 91.4826 150.058 90.8635C150.091 91.6918 150.128 92.5202 150.166 93.3528C148.449 93.7975 146.746 94.2945 145.024 94.7261C145.033 94.0373 145.047 93.3485 145.061 92.664Z" fill="white"/>
<path d="M144.944 106.863C146.418 106.519 147.84 105.961 149.361 105.795L149.661 105.909C149.721 106.488 149.782 107.068 149.838 107.652C148.229 107.962 146.633 108.315 145.024 108.625C145.005 108.202 144.968 107.365 144.949 106.942L144.944 106.863Z" fill="white"/>
<path d="M159.117 49.3428C161.578 50.6855 163.955 52.1547 166.458 53.4321L166.462 53.4974C166.607 54.6658 166.612 55.8778 165.948 56.9241C163.702 55.8952 161.376 55.0189 159.117 54.0162C159.126 52.4599 159.126 50.9035 159.117 49.3428Z" fill="white"/>
<path d="M159.131 56.9983C161.582 58.2626 164.001 59.5792 166.458 60.8347C166.425 61.9769 166.402 63.1235 166.378 64.2657C163.987 63.2499 161.526 62.3954 159.117 61.4145C159.121 59.9454 159.126 58.4718 159.131 56.9983Z" fill="white"/>
<path d="M159.121 64.6362C161.69 65.8613 164.217 67.1648 166.809 68.3549C166.818 69.4274 166.827 70.5042 166.837 71.581C164.287 70.6089 161.681 69.7631 159.117 68.8127C159.126 67.422 159.126 66.0313 159.121 64.6362Z" fill="white"/>
<path d="M159.131 87.585C161.727 88.5136 164.287 89.5206 166.893 90.4361C166.869 91.3037 166.855 92.1756 166.841 93.0432C164.291 92.2977 161.695 91.7048 159.131 91.0116C159.131 89.865 159.131 88.7228 159.131 87.585Z" fill="white"/>
<path d="M183.639 49.6567C186.624 51.5488 189.712 53.3275 192.533 55.4332C189.108 54.025 185.838 52.3074 182.548 50.6594C182.909 50.3238 183.274 49.9924 183.639 49.6567Z" fill="white"/>
<path d="M156.351 146.853C157.268 146.792 158.19 146.727 159.112 146.666C159.117 149.125 159.117 151.588 159.112 154.047C158.199 154.003 157.287 153.964 156.379 153.925C156.407 151.566 156.398 149.212 156.351 146.853Z" fill="white"/>
<path d="M124.39 62.3998C131.085 58.2451 137.931 54.291 144.743 50.302C144.94 51.1652 145.136 52.024 145.337 52.8872C138.338 56.0305 131.464 59.4135 124.39 62.3998Z" fill="white"/>
<path d="M123.992 68.8564C130.706 65.0636 137.495 61.3797 144.238 57.6174C144.42 58.4414 144.603 59.2654 144.79 60.0893C137.837 62.971 131.011 66.1273 123.992 68.8564Z" fill="white"/>
<path d="M124.039 125.413C131.31 123.857 138.609 122.37 145.913 120.94C146.02 121.289 146.24 121.978 146.353 122.327C138.913 123.342 131.492 124.502 124.039 125.413Z" fill="white"/>
<path d="M119.182 149.112C121.297 148.985 123.417 148.872 125.531 148.728C125.527 150.027 125.513 151.331 125.499 152.634C123.782 152.56 122.064 152.499 120.352 152.421C120.329 151.592 120.31 150.764 120.301 149.94C120.057 149.761 119.571 149.399 119.327 149.221L119.182 149.112Z" fill="white"/>
<path d="M155.692 51.2567C156.272 50.9341 156.847 50.6159 157.432 50.2976C157.591 51.7101 157.699 53.1313 157.76 54.5526C157.114 54.8316 156.468 55.1149 155.827 55.394C155.781 54.0163 155.734 52.6343 155.692 51.2567Z" fill="white"/>
<path d="M153.315 52.5778C154.105 52.1331 154.896 51.6928 155.692 51.2568C155.734 52.6345 155.78 54.0164 155.827 55.3941C155.069 55.7123 154.311 56.0306 153.553 56.3445C153.469 55.0889 153.39 53.8333 153.315 52.5778Z" fill="white"/>
<path d="M153.385 89.6559C154.279 89.3377 155.177 89.0281 156.08 88.7317C156.234 89.7039 156.389 90.6761 156.543 91.6482C155.514 91.9273 154.484 92.2063 153.46 92.4766C153.432 91.5349 153.408 90.5976 153.385 89.6559Z" fill="white"/>
<path d="M149.553 54.6659C150.797 53.9553 152.061 53.2752 153.315 52.5776C153.39 53.8332 153.469 55.0888 153.553 56.3443C152.346 56.8718 151.134 57.3993 149.918 57.9094C149.796 56.8282 149.675 55.747 149.553 54.6659Z" fill="white"/>
<path d="M150.058 90.8634C151.162 90.4579 152.276 90.0612 153.385 89.6558C153.408 90.5974 153.432 91.5347 153.46 92.4764C152.36 92.7729 151.265 93.0693 150.166 93.3527C150.128 92.52 150.091 91.6917 150.058 90.8634Z" fill="white"/>
<path d="M149.862 98.1614C151.139 97.7952 152.412 97.4159 153.684 97.0322C153.801 97.8693 153.923 98.7019 154.045 99.539C152.744 99.8267 151.471 100.28 150.128 100.376L149.923 100.219C149.904 99.5695 149.885 98.9243 149.866 98.2791L149.862 98.1614Z" fill="white"/>
<path d="M166.462 53.4973C169.827 55.2063 173.018 57.1986 176.33 58.9947C176.223 59.7141 176.12 60.4334 176.049 61.1571C172.685 59.7446 169.288 58.3888 165.948 56.9239C166.612 55.8776 166.607 54.6657 166.462 53.4973Z" fill="white"/>
<path d="M166.809 68.3547C170.168 69.8849 173.439 71.5895 176.779 73.1633C176.7 73.7737 176.634 74.3797 176.559 74.99C173.279 73.9524 170.051 72.7841 166.837 71.5808C166.827 70.504 166.818 69.4272 166.809 68.3547Z" fill="white"/>
<path d="M166.893 90.436C170.234 91.5346 173.471 92.8992 176.803 94.0327C176.709 94.5035 176.616 94.9787 176.527 95.4495C173.251 94.8392 170.056 93.8888 166.841 93.0431C166.855 92.1755 166.869 91.3036 166.893 90.436Z" fill="white"/>
<path d="M109.722 113.11C112.253 112.147 114.798 111.214 117.357 110.311C117.353 110.978 117.343 111.641 117.339 112.308V112.404C114.793 112.975 112.304 113.773 109.722 114.191C109.722 113.921 109.722 113.38 109.722 113.11Z" fill="white"/>
<path d="M96.8921 137.197C104.201 135.933 111.401 134.198 118.672 132.772C118.611 133.147 118.49 133.905 118.424 134.28C111.266 135.344 104.046 136.072 96.8921 137.197Z" fill="white"/>
<path d="M196.945 143.906C204.647 144.665 212.25 146.212 219.979 146.705C216.99 146.853 214.033 146.304 211.057 146.199C207.211 145.92 203.365 145.702 199.514 145.484L199.416 145.358C199.247 145.149 198.915 144.73 198.747 144.521C198.157 144.286 197.554 144.081 196.945 143.906Z" fill="white"/>
<path d="M182.015 55.3894C185.669 57.4733 189.211 59.7185 192.856 61.8154C188.954 60.4901 185.332 58.5196 181.575 56.8804C181.72 56.3834 181.865 55.8864 182.015 55.3894Z" fill="white"/>
<path d="M156.066 88.6356C157.091 88.2956 158.115 87.9512 159.131 87.585C159.131 88.7228 159.131 89.865 159.131 91.0116C158.265 91.2165 157.404 91.4345 156.543 91.6481C156.389 90.6759 156.234 89.7037 156.08 88.7315L156.066 88.6356Z" fill="white"/>
<path d="M154.414 141.565C155.972 141.321 157.554 141.221 159.131 141.12C159.131 141.526 159.126 142.341 159.126 142.746C157.713 142.838 156.3 142.934 154.882 142.917C155.411 142.629 155.93 142.319 156.45 142.018C155.771 141.857 155.093 141.705 154.414 141.565Z" fill="white"/>
<path d="M204.474 149.46C212.774 149.988 221.084 150.454 229.379 151.06C221.079 151.414 212.779 151.802 204.478 152.142C204.474 151.248 204.469 150.354 204.474 149.46Z" fill="white"/>
<path d="M176.33 58.9949C181.767 61.8896 187.035 65.0503 192.454 67.98C188.954 66.8334 185.679 65.1724 182.258 63.834C180.204 62.9098 178.029 62.2122 176.049 61.1572C176.12 60.4335 176.223 59.7142 176.33 58.9949Z" fill="white"/>
<path d="M176.251 66.0007C181.907 68.6165 187.251 71.8077 192.87 74.5063C189.01 73.2812 185.332 71.5897 181.528 70.2164C179.755 69.4404 177.818 68.9652 176.148 68.0192C176.166 67.3478 176.199 66.6721 176.251 66.0007Z" fill="white"/>
<path d="M176.803 94.0327C182.057 95.855 187.223 97.8953 192.482 99.722C187.11 98.5318 181.842 96.9275 176.489 95.6588L176.527 95.4496C176.616 94.9787 176.709 94.5035 176.803 94.0327Z" fill="white"/>
<path d="M172.61 128.138C178.506 128.949 184.336 130.147 190.203 131.089C184.041 130.758 177.902 129.956 171.764 129.328L171.941 129.258C172.391 129.092 172.84 128.922 173.284 128.748C173.116 128.595 172.779 128.29 172.61 128.138Z" fill="white"/>
<path d="M150.994 61.1964C152.178 60.5512 153.39 59.9496 154.625 59.3872C154.831 60.6428 154.817 61.9201 154.625 63.1757C153.511 63.5942 152.407 64.0345 151.303 64.4661C151.2 63.3762 151.097 62.2863 150.994 61.1964Z" fill="white"/>
<path d="M150.849 68.599C152.084 67.98 153.343 67.4001 154.616 66.8508C154.747 67.9887 154.873 69.1222 155.004 70.26C153.792 70.7091 152.59 71.1581 151.373 71.581C151.195 70.587 151.022 69.593 150.849 68.599Z" fill="white"/>
<path d="M150.797 75.8882C152.079 75.3737 153.352 74.8375 154.611 74.2708C154.718 75.3694 154.821 76.468 154.924 77.5666C153.778 77.9372 152.641 78.3252 151.509 78.7219L151.485 78.6216C151.261 77.741 151.041 76.8603 150.821 75.9797L150.797 75.8882Z" fill="white"/>
<path d="M146.718 142.271C149.268 141.914 151.841 141.718 154.414 141.565C155.093 141.705 155.771 141.857 156.45 142.019C155.93 142.319 155.411 142.629 154.882 142.917C152.468 142.969 150.007 143.366 147.625 143.178C147.396 142.952 146.942 142.498 146.718 142.271Z" fill="white"/>
<path d="M166.458 60.8347C169.78 62.4303 172.947 64.2875 176.255 65.9136L176.251 66.0008C176.199 66.6722 176.166 67.3479 176.148 68.0193C172.872 66.8117 169.616 65.5649 166.378 64.2657C166.402 63.1235 166.425 61.9769 166.458 60.8347Z" fill="white"/>
<path d="M145.188 64.1262C147.153 63.1976 149.076 62.2036 150.994 61.1965C151.097 62.2864 151.2 63.3763 151.303 64.4662C149.431 65.1637 147.606 65.9528 145.735 66.6547C145.562 65.8482 145.389 65.046 145.216 64.2395L145.188 64.1262Z" fill="white"/>
<path d="M145.403 71.1233C147.246 70.343 149.048 69.471 150.849 68.5991C151.022 69.5931 151.195 70.5871 151.373 71.5811C149.413 72.2568 147.489 73.0328 145.529 73.6998C145.487 72.8846 145.445 72.0693 145.407 71.2541L145.403 71.1233Z" fill="white"/>
<path d="M145.384 78.3208C147.176 77.5056 148.991 76.7339 150.821 75.9797C151.041 76.8604 151.261 77.741 151.485 78.6216C149.511 79.3802 147.494 80.0385 145.473 80.6837C145.44 79.8946 145.412 79.1099 145.384 78.3208Z" fill="white"/>
<path d="M124.437 74.9161C131.333 71.3064 138.249 67.7315 145.216 64.2395C145.389 65.046 145.562 65.8482 145.735 66.6547C140.312 68.7691 134.922 70.9576 129.504 73.0764C127.824 73.7129 126.196 74.4889 124.437 74.9161Z" fill="white"/>
<path d="M124.025 81.4338C131.104 77.9592 138.244 74.5761 145.407 71.2542C145.445 72.0694 145.487 72.8846 145.529 73.6999C138.347 76.2502 131.249 79.0055 124.025 81.4338Z" fill="white"/>
<path d="M124.418 87.5328C131.366 84.3809 138.408 81.4163 145.384 78.321C145.412 79.1101 145.44 79.8949 145.473 80.6839C138.441 82.9204 131.521 85.4969 124.418 87.5328Z" fill="white"/>
<path d="M124.942 106.296C131.408 104.073 137.949 102.037 144.49 100.005C144.551 100.437 144.673 101.309 144.734 101.74C138.127 103.223 131.595 105.019 124.942 106.296Z" fill="white"/>
<path d="M116.702 71.023C118.981 69.6279 121.175 68.1239 123.477 66.7681C123.398 68.1021 123.749 69.5495 123.304 70.8138C121.208 71.9124 119.004 72.8279 116.871 73.8611C116.815 72.9151 116.763 71.969 116.702 71.023Z" fill="white"/>
<path d="M116.74 82.2663C119.033 81.111 121.199 79.7552 123.482 78.5781C123.496 79.7814 123.496 80.9846 123.482 82.1879C121.508 82.9726 119.575 83.8663 117.559 84.5638C117.376 84.4853 117.011 84.324 116.829 84.2412C116.782 83.6091 116.763 82.9769 116.74 82.3448V82.2663Z" fill="white"/>
<path d="M116.749 87.9251C119.032 86.8439 121.208 85.5796 123.482 84.4897C123.496 85.6232 123.496 86.7611 123.487 87.8989C121.288 88.7534 119.075 89.5774 116.857 90.397C116.824 89.5992 116.791 88.8057 116.754 88.0079L116.749 87.9251Z" fill="white"/>
<path d="M116.777 93.6143C118.995 92.5114 121.232 91.4389 123.482 90.397C123.492 91.4694 123.496 92.5375 123.496 93.61C121.274 94.4296 119.004 95.1271 116.796 95.9729C116.782 95.1882 116.763 94.3991 116.777 93.6143Z" fill="white"/>
<path d="M115.594 144.643C118.223 144.307 120.843 143.911 123.473 143.584C123.477 144.085 123.482 144.586 123.487 145.088C121.718 145.158 119.959 145.389 118.19 145.389C117.32 145.153 116.464 144.87 115.594 144.643Z" fill="white"/>
<path d="M194.696 66.7593C196.666 67.9582 198.565 69.2399 200.54 70.4344C200.348 71.3848 200.161 72.3395 199.974 73.2899C198.261 72.4224 196.521 71.6028 194.752 70.8486C194.663 69.484 194.668 68.1195 194.696 66.7593Z" fill="white"/>
<path d="M194.695 78.5825C196.669 79.6245 198.564 80.7885 200.562 81.7955V81.8871C200.548 82.7939 200.539 83.705 200.534 84.6205C198.611 83.7791 196.66 82.9944 194.704 82.2315C194.676 81.0152 194.685 79.7988 194.695 78.5825Z" fill="white"/>
<path d="M194.69 84.481C196.679 85.4837 198.62 86.5561 200.618 87.5327C200.553 88.3741 200.492 89.2198 200.431 90.0612C198.503 89.368 196.599 88.6313 194.685 87.9207C194.69 86.7741 194.69 85.6275 194.69 84.481Z" fill="white"/>
<path d="M194.69 96.3042C196.604 97.1194 198.48 98.0044 200.403 98.8066C200.239 99.5303 200.08 100.254 199.921 100.982C198.171 100.455 196.426 99.9009 194.69 99.3428C194.69 98.327 194.69 97.3156 194.69 96.3042Z" fill="white"/>
<path d="M194.69 102.224C196.524 102.922 198.321 103.694 200.15 104.409C200.146 105.128 200.146 105.852 200.15 106.58C198.316 106.113 196.496 105.59 194.685 105.054C194.685 104.108 194.685 103.166 194.69 102.224Z" fill="white"/>
<path d="M194.695 108.123C196.515 108.768 198.316 109.461 200.146 110.098C200.132 110.791 200.122 111.489 200.118 112.182C198.316 111.667 196.487 111.258 194.681 110.769C194.685 109.884 194.685 109.004 194.695 108.123Z" fill="white"/>
<path d="M194.695 114.043C196.51 114.601 198.302 115.233 200.122 115.791C200.132 116.437 200.146 117.082 200.16 117.727C198.335 117.287 196.496 116.921 194.671 116.476C194.681 115.665 194.685 114.854 194.695 114.043Z" fill="white"/>
<path d="M200.539 70.4343C202.953 71.8381 205.227 73.4337 207.623 74.868C207.244 75.3868 206.869 75.9056 206.495 76.4244C204.347 75.3258 202.115 74.3928 199.973 73.2898C200.16 72.3395 200.347 71.3847 200.539 70.4343Z" fill="white"/>
<path d="M200.562 81.887C203.093 83.0335 205.391 84.5725 207.861 85.828C207.604 86.2814 207.356 86.7392 207.108 87.1969C204.834 86.5256 202.7 85.5272 200.534 84.6204C200.539 83.7049 200.548 82.7938 200.562 81.887Z" fill="white"/>
<path d="M200.618 87.5325C202.911 88.618 205.105 89.8736 207.379 90.994C207.468 91.6174 207.557 92.2452 207.646 92.8773C205.246 91.9574 202.841 91.0463 200.422 90.1657L200.431 90.061C200.492 89.2196 200.553 88.3739 200.618 87.5325Z" fill="white"/>
<path d="M108.617 76.0759C111.345 74.4367 113.933 72.597 116.703 71.0232C116.763 71.9692 116.815 72.9152 116.871 73.8613L116.876 73.9703C114.265 75.1779 111.654 76.3855 109.071 77.6454C108.917 77.1222 108.767 76.5991 108.617 76.0759Z" fill="white"/>
<path d="M107.953 87.1056C110.938 85.6103 113.703 83.7575 116.74 82.345C116.763 82.9771 116.782 83.6093 116.829 84.2414C117.011 84.3242 117.376 84.4855 117.559 84.564C114.873 85.9765 111.911 86.8746 109.146 88.1563C108.748 87.8075 108.351 87.4544 107.953 87.1056Z" fill="white"/>
<path d="M109.207 97.1632C111.748 96.0079 114.181 94.6608 116.777 93.6145C116.763 94.3992 116.782 95.1883 116.796 95.973C114.307 96.8885 111.813 97.8259 109.24 98.5277C109.23 98.1877 109.216 97.5032 109.207 97.1632Z" fill="white"/>
<path d="M98.2396 146.697C104.065 146.361 109.801 145.236 115.594 144.643C116.464 144.87 117.32 145.153 118.19 145.389C113.437 145.942 108.631 146.025 103.859 146.444C101.992 146.631 100.116 146.749 98.2396 146.697Z" fill="white"/>
<path d="M117.152 76.4115C119.276 75.1908 121.335 73.8742 123.478 72.6797C123.492 73.9527 123.492 75.2213 123.459 76.4943C121.424 77.3706 119.398 78.273 117.362 79.1537C117.292 78.2381 117.222 77.3226 117.152 76.4115Z" fill="white"/>
<path d="M117.175 99.0595C119.295 98.1832 121.358 97.1936 123.473 96.3086C123.482 97.3113 123.487 98.314 123.496 99.3123C121.456 100.019 119.36 100.585 117.33 101.318C117.278 100.564 117.227 99.8137 117.175 99.0595Z" fill="white"/>
<path d="M117.236 104.688C119.346 103.929 121.381 103.005 123.478 102.225C123.482 103.162 123.487 104.104 123.487 105.045C121.424 105.673 119.323 106.205 117.259 106.846C117.25 106.14 117.245 105.433 117.236 104.731V104.688Z" fill="white"/>
<path d="M117.358 110.312C119.421 109.649 121.424 108.825 123.478 108.132C123.482 109.008 123.487 109.884 123.492 110.761C121.447 111.306 119.393 111.811 117.339 112.308C117.344 111.641 117.353 110.979 117.358 110.312Z" fill="white"/>
<path d="M116.726 116.219C118.991 115.534 121.208 114.728 123.473 114.039C123.482 114.846 123.492 115.656 123.501 116.467C121.325 116.999 119.126 117.444 116.937 117.928C116.866 117.357 116.796 116.79 116.726 116.219Z" fill="white"/>
<path d="M117.175 121.751C119.299 121.189 121.372 120.469 123.524 119.99C123.492 120.74 123.468 121.489 123.44 122.239C121.386 122.61 119.332 122.976 117.292 123.399C117.264 122.985 117.203 122.161 117.175 121.751Z" fill="white"/>
<path d="M194.69 72.6621C196.852 73.9089 198.962 75.2343 201.128 76.4724C201.049 77.3792 200.974 78.286 200.899 79.1928C198.826 78.3252 196.786 77.3835 194.709 76.5247C194.671 75.2386 194.681 73.9482 194.69 72.6621Z" fill="white"/>
<path d="M194.69 90.397C196.992 91.452 199.238 92.6029 201.54 93.6623C201.484 94.4339 201.432 95.2012 201.386 95.9729C199.168 95.1576 196.917 94.4209 194.69 93.6405C194.685 92.5593 194.685 91.4781 194.69 90.397Z" fill="white"/>
<path d="M176.779 73.1636C182.338 75.6747 187.705 78.5433 193.282 81.0239C187.653 79.2059 182.165 77.0174 176.541 75.169L176.559 74.9902C176.634 74.3799 176.7 73.7739 176.779 73.1636Z" fill="white"/>
<path d="M208.811 80.9846C212.592 83.1383 216.302 85.3965 220.031 87.6286C216.241 86.2989 212.652 84.4897 208.998 82.868C208.933 82.2402 208.872 81.6124 208.811 80.9846Z" fill="white"/>
<path d="M177.322 115.016C182.665 116.276 187.948 117.753 193.324 118.909C187.84 118.141 182.408 117.06 176.929 116.254L176.952 116.167C177.046 115.879 177.229 115.303 177.322 115.016Z" fill="white"/>
<path d="M166.069 75.3606C169.05 76.6162 171.955 78.0243 174.931 79.2929C174.828 79.9643 174.73 80.64 174.632 81.3114C171.605 80.2651 168.545 79.306 165.48 78.36L165.517 78.2554C165.864 77.3224 165.99 76.3415 166.069 75.3606Z" fill="white"/>
<path d="M165.971 82.7109C168.956 83.8313 171.862 85.1305 174.833 86.2858C174.833 86.8569 174.833 87.4236 174.842 87.9947L174.655 88.156C171.731 87.3495 168.811 86.5081 165.915 85.6188C165.934 84.6466 165.948 83.6788 165.971 82.7109Z" fill="white"/>
<path d="M165.962 97.4724C169.129 98.4054 172.217 99.5519 175.371 100.528C175.296 101.017 175.221 101.505 175.151 101.993C172.044 101.488 169.003 100.694 165.948 99.9879C165.948 99.1465 165.952 98.3095 165.962 97.4724Z" fill="white"/>
<path d="M167.506 127.231C169.209 127.532 170.926 127.754 172.61 128.138C172.779 128.29 173.116 128.596 173.284 128.748C172.84 128.922 172.39 129.092 171.941 129.258C170.491 129.249 169.059 129.031 167.623 128.87C167.595 128.46 167.534 127.641 167.506 127.231Z" fill="white"/>
<path d="M97.2944 83.2515C100.995 80.7666 104.809 78.4168 108.617 76.0757C108.767 76.5988 108.917 77.122 109.071 77.6451C105.178 79.5764 101.239 81.4162 97.2944 83.2515Z" fill="white"/>
<path d="M109.291 80.9933C111.963 79.5416 114.461 77.8282 117.152 76.4114C117.222 77.3225 117.292 78.238 117.362 79.1536L117.367 79.2625C114.808 80.2391 112.426 81.6472 109.773 82.3927C109.68 82.2924 109.497 82.0919 109.404 81.9916C109.357 81.6603 109.319 81.3246 109.291 80.9933Z" fill="white"/>
<path d="M108.912 91.9358C111.57 90.702 114.036 89.1239 116.754 88.0078C116.791 88.8056 116.824 89.5991 116.857 90.3969L116.862 90.5058C114.199 91.4606 111.565 92.4851 108.912 93.4704C108.912 92.9559 108.912 92.4459 108.912 91.9358Z" fill="white"/>
<path d="M201.128 76.4724C203.748 77.8893 206.219 79.5285 208.811 80.9846C208.872 81.6124 208.933 82.2401 208.998 82.8679C206.308 81.6472 203.599 80.4745 200.89 79.3061L200.899 79.1928C200.974 78.286 201.049 77.3792 201.128 76.4724Z" fill="white"/>
<path d="M201.54 93.6621C204.586 94.9743 207.478 96.5656 210.509 97.9127C210.435 98.1699 210.29 98.6843 210.215 98.9416C207.201 98.1438 204.296 97.0364 201.386 95.9727C201.432 95.201 201.484 94.4338 201.54 93.6621Z" fill="white"/>
<path d="M109.418 102.412C112.038 101.37 114.546 100.093 117.175 99.0593C117.227 99.8135 117.278 100.563 117.33 101.318C114.7 102.19 112.061 103.066 109.371 103.763C109.385 103.314 109.399 102.861 109.418 102.412Z" fill="white"/>
<path d="M110.016 107.556C112.449 106.667 114.78 105.555 117.236 104.731C117.245 105.433 117.25 106.139 117.259 106.846C114.709 107.635 112.145 108.419 109.521 108.973C109.684 108.502 109.848 108.027 110.016 107.556Z" fill="white"/>
<path d="M108.332 118.97C111.116 118.015 113.895 117.047 116.726 116.219C116.796 116.79 116.866 117.357 116.937 117.928L116.946 118.024C114.677 118.39 112.478 119.218 110.171 119.323C109.558 119.201 108.945 119.083 108.332 118.97Z" fill="white"/>
<path d="M174.931 79.2932C181.243 81.9438 187.377 84.9519 193.726 87.5328C187.358 85.4664 180.986 83.413 174.632 81.3117C174.73 80.6403 174.828 79.9646 174.931 79.2932Z" fill="white"/>
<path d="M154.648 81.6822C156.146 81.1154 157.643 80.54 159.131 79.9514C159.126 81.1677 159.131 82.3797 159.126 83.596C157.956 83.9274 156.787 84.2761 155.626 84.6205C155.537 83.5786 155.72 82.3492 154.648 81.6822Z" fill="white"/>
<path d="M97.6923 92.8514C101.019 90.8024 104.509 88.9801 107.953 87.1055C108.351 87.4542 108.748 87.8074 109.146 88.1561C105.356 89.7779 101.557 91.3909 97.6923 92.8514Z" fill="white"/>
<path d="M97.7719 97.6032C101.515 95.7635 105.155 93.7407 108.912 91.9358C108.912 92.4459 108.912 92.9559 108.912 93.4704V93.5794C105.169 94.8393 101.609 96.6005 97.7719 97.6032Z" fill="white"/>
<path d="M210.509 97.9128C213.752 99.3166 216.896 100.917 220.082 102.429C216.667 101.653 213.495 100.167 210.145 99.1858L210.215 98.9417C210.29 98.6845 210.435 98.1701 210.509 97.9128Z" fill="white"/>
<path d="M155.533 103.838C156.74 103.545 157.942 103.232 159.135 102.883C159.126 103.846 159.126 104.814 159.117 105.786C157.933 106.013 156.749 106.253 155.565 106.488C155.556 105.642 155.547 104.797 155.537 103.955L155.533 103.838Z" fill="white"/>
<path d="M155.519 111.34C156.726 111.096 157.933 110.835 159.135 110.538C159.126 111.414 159.126 112.295 159.121 113.171C157.914 113.372 156.712 113.585 155.509 113.795C155.509 113.036 155.514 112.282 155.519 111.523V111.34Z" fill="white"/>
<path d="M154.625 119.039C156.557 118.943 158.518 117.766 160.422 118.372C159.028 118.364 158.761 119.528 159.084 120.57C157.802 120.744 156.525 120.931 155.247 121.114C155.046 120.452 154.845 119.789 154.653 119.126L154.625 119.039Z" fill="white"/>
<path d="M98.6748 121.926C101.927 121.049 105.061 119.706 108.332 118.97C108.945 119.083 109.558 119.201 110.171 119.323C108.982 120.108 107.452 120.112 106.096 120.491C103.62 120.949 101.215 121.834 98.6748 121.926Z" fill="white"/>
<path d="M154.957 126.468C156.347 126.276 157.732 126.063 159.112 125.832C159.131 126.211 159.163 126.974 159.178 127.357C159.421 127.554 159.655 127.763 159.879 127.985C159.865 128.059 159.828 128.203 159.814 128.277C158.289 127.785 156.702 128.269 155.158 128.382C155.112 127.929 155.013 127.017 154.967 126.564L154.957 126.468Z" fill="white"/>
<path d="M98.1741 87.6505C101.8 85.3225 105.576 83.195 109.291 80.9934C109.319 81.3247 109.357 81.6604 109.403 81.9918C109.497 82.092 109.679 82.2926 109.773 82.3928L109.974 82.6065C105.983 84.1715 102.207 86.1857 98.1741 87.6505Z" fill="white"/>
<path d="M151.476 82.9987C152.538 82.5671 153.6 82.1399 154.648 81.6821C155.72 82.3491 155.537 83.5785 155.626 84.6205C154.265 85.0216 152.912 85.4401 151.551 85.8324C151.527 84.8864 151.499 83.9447 151.476 82.9987Z" fill="white"/>
<path d="M151.691 119.698C152.674 119.488 153.661 119.301 154.653 119.126C154.845 119.789 155.046 120.452 155.247 121.114C154.073 121.271 152.908 121.437 151.738 121.594C151.719 120.962 151.705 120.33 151.691 119.698Z" fill="white"/>
<path d="M145.852 85.2527C147.709 84.4636 149.614 83.7748 151.476 82.9988C151.499 83.9448 151.527 84.8865 151.551 85.8325C149.656 86.36 147.808 87.027 145.885 87.4673C145.871 86.7306 145.861 85.9894 145.852 85.2527Z" fill="white"/>
<path d="M145.913 120.94C147.803 120.395 149.777 120.173 151.691 119.698C151.705 120.33 151.719 120.962 151.738 121.594C149.941 121.821 148.149 122.104 146.353 122.327C146.24 121.978 146.02 121.289 145.913 120.94Z" fill="white"/>
<path d="M123.997 94.0372C131.216 90.9725 138.581 88.2085 145.852 85.2527C145.861 85.9895 145.871 86.7306 145.885 87.4674L145.889 87.5458C138.572 89.6471 131.329 91.9795 123.997 94.0372Z" fill="white"/>
<path d="M124.315 100.158C131.207 97.5991 138.155 95.1795 145.061 92.6641C145.047 93.3485 145.033 94.0373 145.024 94.7261C138.113 96.5049 131.282 98.58 124.315 100.158Z" fill="white"/>
<path d="M123.978 112.783C130.987 110.896 137.931 108.808 144.949 106.942C144.968 107.365 145.005 108.202 145.024 108.624C138.001 109.976 131.048 111.667 123.978 112.783Z" fill="white"/>
<path d="M207.861 85.8281C211.834 87.9948 215.839 90.1397 219.699 92.4721C215.389 90.9506 211.281 88.9801 206.986 87.415L207.108 87.197C207.356 86.7393 207.604 86.2815 207.861 85.8281Z" fill="white"/>
<path d="M174.833 86.2859C181.028 88.6313 187.035 91.404 193.291 93.6231C187.152 91.9969 181.093 90.0569 174.983 88.348L174.842 87.9948C174.833 87.4237 174.833 86.857 174.833 86.2859Z" fill="white"/>
<path d="M175.371 100.529C180.78 102.19 186.1 104.099 191.504 105.773C185.992 104.823 180.607 103.275 175.123 102.181L175.151 101.993C175.221 101.505 175.296 101.017 175.371 100.529Z" fill="white"/>
<path d="M207.379 90.9944C211.927 93.2875 216.442 95.6461 220.953 98.0046C216.54 96.239 212.049 94.6564 207.646 92.8777C207.557 92.2456 207.468 91.6178 207.379 90.9944Z" fill="white"/>
<path d="M98.16 102.438C101.8 100.607 105.482 98.8328 109.207 97.1631C109.216 97.5031 109.23 98.1876 109.24 98.5276L109.244 98.7674C105.497 99.8486 101.941 101.466 98.16 102.438Z" fill="white"/>
<path d="M98.5671 107.229C102.118 105.507 105.777 103.968 109.417 102.412C109.399 102.861 109.385 103.315 109.371 103.764L109.366 103.982C105.731 104.962 102.245 106.392 98.5671 107.229Z" fill="white"/>
<path d="M97.7531 112.4C101.861 110.83 105.89 109.087 110.016 107.556C109.848 108.027 109.684 108.502 109.52 108.973L109.427 109.235C105.501 110.181 101.716 111.611 97.7531 112.4Z" fill="white"/>
<path d="M98.1648 117.226C102.006 115.831 105.805 114.318 109.722 113.11C109.722 113.381 109.722 113.921 109.722 114.192L109.726 114.457C105.833 115.238 102.076 116.533 98.1648 117.226Z" fill="white"/>
<path d="M97.7437 127.148C101.44 126.281 105.024 124.929 108.734 124.184C109.366 124.302 109.998 124.419 110.629 124.541C109.478 125.265 108.023 125.226 106.722 125.544C103.723 126.037 100.78 126.869 97.7437 127.148Z" fill="white"/>
<path d="M153.38 147.024C154.367 146.962 155.359 146.906 156.351 146.854C156.398 149.212 156.407 151.566 156.379 153.925C154.971 153.89 153.563 153.833 152.159 153.755C152.622 153.428 153.478 153.253 153.413 152.56C153.553 150.716 153.385 148.868 153.38 147.024Z" fill="white"/>
<path d="M200.403 98.8066C202.71 99.7265 204.923 100.825 207.215 101.776C207.178 102.164 207.113 102.935 207.08 103.319C204.698 102.538 202.303 101.802 199.902 101.069L199.921 100.982C200.08 100.254 200.239 99.5303 200.403 98.8066Z" fill="white"/>
<path d="M200.15 104.409C202.537 105.254 204.839 106.301 207.201 107.208C207.136 107.552 207.005 108.236 206.935 108.581C204.67 107.966 202.429 107.286 200.15 106.724V106.58C200.146 105.852 200.146 105.128 200.15 104.409Z" fill="white"/>
<path d="M165.536 104.731C168.222 105.42 170.851 106.283 173.523 107.011C173.481 107.408 173.396 108.206 173.354 108.603C170.734 108.127 168.128 107.582 165.503 107.133L165.508 107.024C165.513 106.261 165.522 105.494 165.536 104.731Z" fill="white"/>
<path d="M173.523 107.011C179.858 108.703 186.067 110.8 192.454 112.343C189.894 112.121 187.442 111.358 184.925 110.935C181.075 110.142 177.168 109.544 173.354 108.603C173.396 108.206 173.481 107.408 173.523 107.011Z" fill="white"/>
<path d="M172.32 142.32C179.166 142.812 185.969 143.811 192.837 144.046C190.582 144.216 188.327 143.976 186.076 143.898C181.089 143.562 176.082 143.61 171.099 143.257C171.403 143.026 172.016 142.555 172.32 142.32Z" fill="white"/>
<path d="M189.978 148.571C192.051 148.676 194.115 148.833 196.187 148.955C196.122 150.293 196.473 152.172 194.629 152.552C193.113 152.669 191.588 152.669 190.067 152.739C190.049 151.348 190.021 149.962 189.978 148.571Z" fill="white"/>
<path d="M200.146 110.098C202.34 110.809 204.464 111.689 206.645 112.426C206.107 112.775 205.569 113.128 205.031 113.477C203.402 113.014 201.746 112.635 200.118 112.182C200.122 111.489 200.132 110.791 200.146 110.098Z" fill="white"/>
<path d="M200.122 115.792C202.597 116.493 204.979 117.439 207.463 118.111C207.099 118.464 206.738 118.817 206.383 119.17C204.324 118.621 202.218 118.268 200.16 117.727C200.146 117.082 200.132 116.437 200.122 115.792Z" fill="white"/>
<path d="M159.135 110.538C160.895 110.944 162.64 111.423 164.399 111.837C164.394 112.566 164.394 113.298 164.39 114.026C162.626 113.777 160.871 113.485 159.121 113.172C159.126 112.295 159.126 111.415 159.135 110.538Z" fill="white"/>
<path d="M159.084 120.57C158.761 119.528 159.028 118.364 160.422 118.373C161.802 118.669 163.159 119.088 164.563 119.314C164.577 119.986 164.586 120.657 164.605 121.328C162.771 121.036 160.918 120.831 159.084 120.57Z" fill="white"/>
<path d="M194.695 119.959C196.534 120.456 198.354 121.028 200.197 121.516C200.071 122.083 199.945 122.645 199.828 123.212C198.11 122.846 196.379 122.549 194.667 122.183C194.676 121.437 194.685 120.696 194.695 119.959Z" fill="white"/>
<path d="M164.399 111.837C166.233 112.247 168.035 112.753 169.864 113.184C169.742 113.755 169.621 114.331 169.504 114.906C167.796 114.653 166.097 114.361 164.39 114.113V114.026C164.394 113.298 164.394 112.565 164.399 111.837Z" fill="white"/>
<path d="M164.563 119.314C166.598 119.693 168.61 120.186 170.641 120.578C170.659 120.979 170.697 121.777 170.711 122.178C168.685 121.838 166.636 121.646 164.605 121.328C164.586 120.656 164.577 119.985 164.563 119.314Z" fill="white"/>
<path d="M133.21 148.231C134.669 148.174 136.129 148.091 137.589 147.991C137.57 149.705 137.57 151.422 137.58 153.14C135.76 153.066 133.939 152.974 132.119 152.944C134.066 152.085 133.111 149.888 133.219 148.327L133.21 148.231Z" fill="white"/>
<path d="M206.645 112.426C211.136 113.956 215.506 115.774 220.045 117.178C214.992 116.166 210.037 114.697 205.03 113.476C205.568 113.128 206.107 112.775 206.645 112.426Z" fill="white"/>
<path d="M204.642 133.792C209.475 134.755 214.267 135.928 219.142 136.73C214.271 136.416 209.457 135.571 204.619 134.987C204.623 134.59 204.633 134.189 204.642 133.792Z" fill="white"/>
<path d="M169.864 113.185C172.362 113.738 174.814 114.471 177.322 115.016C177.229 115.303 177.046 115.879 176.952 116.167C174.459 115.796 171.984 115.347 169.485 114.985L169.504 114.907C169.621 114.331 169.742 113.756 169.864 113.185Z" fill="white"/>
<path d="M207.464 118.111C211.974 119.502 216.419 121.071 220.943 122.414C216.068 121.433 211.221 120.299 206.383 119.17C206.738 118.817 207.099 118.464 207.464 118.111Z" fill="white"/>
<path d="M97.3179 141.94C101.562 141.456 105.74 140.554 109.96 139.93C110.559 140.1 111.163 140.27 111.762 140.454C109.815 140.977 107.77 140.933 105.777 141.195C102.956 141.434 100.153 141.892 97.3179 141.94Z" fill="white"/>
<path d="M207.978 139.935C212.152 140.475 216.278 141.356 220.452 141.949C217.139 141.775 213.855 141.304 210.556 141.02C208.661 140.776 206.701 140.855 204.871 140.288C205.905 140.175 206.935 140.018 207.978 139.935Z" fill="white"/>
<path d="M196.187 148.955C198.948 149.099 201.708 149.304 204.474 149.461C204.469 150.354 204.474 151.248 204.478 152.142C201.194 152.246 197.914 152.469 194.629 152.551C196.473 152.172 196.122 150.293 196.187 148.955Z" fill="white"/>
<path d="M170.641 120.578C177.757 122.004 184.813 123.713 191.967 124.986C184.878 124.092 177.799 123.107 170.711 122.178C170.697 121.777 170.659 120.979 170.641 120.578Z" fill="white"/>
<path d="M151.251 127.096C152.487 126.917 153.726 126.734 154.966 126.564C155.013 127.018 155.111 127.929 155.158 128.382C153.769 128.513 152.384 128.674 150.994 128.818C151.055 128.43 151.167 127.654 151.223 127.27L151.251 127.096Z" fill="white"/>
<path d="M144.649 147.542C145.454 147.507 146.264 147.407 147.064 147.521C147.302 147.686 147.78 148.022 148.018 148.188C148.051 149.984 148.056 151.784 147.971 153.58C146.853 153.528 145.74 153.48 144.621 153.428C144.645 151.466 144.654 149.504 144.649 147.542Z" fill="white"/>
<path d="M200.197 121.516C202.162 122.056 204.141 122.584 206.074 123.22C206.125 123.53 206.228 124.153 206.28 124.467C204.127 124.044 201.966 123.674 199.828 123.211C199.944 122.645 200.071 122.082 200.197 121.516Z" fill="white"/>
<path d="M199.664 132.816C201.329 133.095 202.972 133.5 204.642 133.792C204.633 134.189 204.623 134.59 204.619 134.987C202.438 134.677 200.263 134.372 198.073 134.167L198.195 134.063C198.681 133.64 199.168 133.225 199.664 132.816Z" fill="white"/>
<path d="M167.225 134.525C168.76 134.721 170.294 134.926 171.838 135.109C171.857 135.492 171.876 135.876 171.899 136.264C170.004 136.177 168.114 136.037 166.224 135.928L166.271 135.859C166.589 135.414 166.907 134.969 167.225 134.525Z" fill="white"/>
<path d="M108.734 124.184C111.537 123.338 114.335 122.488 117.175 121.751C117.203 122.161 117.264 122.985 117.292 123.399C115.084 123.813 112.885 124.471 110.629 124.541C109.998 124.419 109.366 124.301 108.734 124.184Z" fill="white"/>
<path d="M159.112 125.832C160.37 126.067 161.671 126.137 162.888 126.538L163.051 126.826C163.028 127.209 162.981 127.981 162.958 128.369C161.966 128.264 160.974 128.168 159.987 128.09L159.879 127.985C159.655 127.763 159.421 127.554 159.177 127.357C159.163 126.974 159.131 126.211 159.112 125.832Z" fill="white"/>
<path d="M159.13 133.474C160.361 133.631 161.592 133.796 162.827 133.953C162.864 134.381 162.939 135.226 162.972 135.654C161.69 135.549 160.408 135.466 159.13 135.357C159.13 134.886 159.13 133.945 159.13 133.474Z" fill="white"/>
<path d="M194.676 125.862C196.36 126.268 198.031 126.712 199.72 127.105C199.14 127.536 198.564 127.968 197.993 128.404C196.898 128.269 195.808 128.116 194.723 127.959C194.699 127.262 194.685 126.56 194.676 125.862Z" fill="white"/>
<path d="M194.676 131.778C196.342 132.114 197.998 132.489 199.664 132.816C199.168 133.226 198.681 133.64 198.195 134.063C197.029 133.941 195.869 133.797 194.709 133.662C194.695 133.03 194.685 132.402 194.676 131.778Z" fill="white"/>
<path d="M194.681 137.69C195.757 137.864 196.838 138.008 197.9 138.248C198.26 138.457 198.616 138.68 198.962 138.915C199.06 139.133 199.261 139.56 199.364 139.778C197.806 139.669 196.253 139.517 194.699 139.364C194.69 138.806 194.685 138.248 194.681 137.69Z" fill="white"/>
<path d="M163.051 126.826L163.257 126.651C164.689 126.595 166.088 127.079 167.506 127.231C167.534 127.641 167.595 128.461 167.623 128.87C166.069 128.696 164.507 128.561 162.958 128.369C162.981 127.981 163.028 127.209 163.051 126.826Z" fill="white"/>
<path d="M112.033 128.617C114.106 128.225 116.118 127.61 118.176 127.166C118.186 127.571 118.209 128.386 118.218 128.792C116.356 129.097 114.489 129.402 112.632 129.729C112.421 129.363 112.225 128.988 112.033 128.617Z" fill="white"/>
<path d="M145.627 128.099C147.475 127.728 149.338 127.418 151.223 127.27C151.167 127.654 151.055 128.43 150.994 128.818C149.024 129.005 147.068 129.284 145.099 129.467C145.272 129.01 145.449 128.552 145.627 128.099Z" fill="white"/>
<path d="M174.051 147.599C175.062 147.656 176.077 147.712 177.093 147.769C177.434 149.582 177.481 151.431 177.392 153.271C176.194 153.323 174.997 153.38 173.799 153.436C174.182 151.509 174.159 149.548 174.051 147.599Z" fill="white"/>
<path d="M197.993 128.404C198.564 127.968 199.14 127.536 199.72 127.104C200.801 127.353 201.877 127.615 202.962 127.863V127.92C202.972 128.255 202.99 128.922 202.995 129.258C201.287 129.027 199.594 128.739 197.891 128.482L197.993 128.404Z" fill="white"/>
<path d="M124.844 131.486C131.783 130.422 138.693 129.202 145.627 128.099C145.45 128.552 145.272 129.01 145.099 129.468C138.338 130.06 131.623 131.15 124.844 131.486Z" fill="white"/>
<path d="M202.962 127.92C208.666 129.132 214.22 130.915 219.97 131.931C217.415 131.822 214.95 131.146 212.432 130.797C209.279 130.357 206.149 129.799 203 129.354L202.995 129.258C202.99 128.923 202.972 128.256 202.962 127.92Z" fill="white"/>
<path d="M118.672 132.772C120.277 132.467 121.863 132.105 123.459 131.774C123.459 132.397 123.463 133.021 123.463 133.644C121.784 133.866 120.099 134.036 118.424 134.28C118.49 133.906 118.611 133.147 118.672 132.772Z" fill="white"/>
<path d="M119.992 138.27C121.147 138.082 122.308 137.882 123.468 137.69C123.463 138.239 123.463 138.793 123.463 139.351C122.649 139.438 121.835 139.525 121.026 139.617C120.679 139.168 120.333 138.719 119.992 138.27Z" fill="white"/>
<path d="M124.455 144.055C131.895 143.723 139.292 142.79 146.717 142.271C146.942 142.498 147.396 142.952 147.625 143.178C142.857 143.449 138.094 143.688 133.326 143.885C130.369 143.994 127.412 144.268 124.455 144.055Z" fill="white"/>
<path d="M161.966 146.854C163.187 146.923 164.408 147.006 165.634 147.08C165.658 149.308 165.704 151.536 165.7 153.763C164.446 153.811 163.187 153.868 161.933 153.92C161.999 151.566 162.003 149.208 161.966 146.854Z" fill="white"/>
<path d="M111.963 149.504C114.424 149.543 116.871 149.09 119.327 149.221C119.571 149.4 120.057 149.761 120.3 149.94C120.31 150.764 120.329 151.592 120.352 152.421C117.545 152.307 114.737 152.168 111.925 152.089C112.899 151.366 112.997 150.346 112.024 149.583L111.963 149.504Z" fill="white"/>
<path d="M155.406 133.94C156.646 133.783 157.886 133.631 159.131 133.474C159.131 133.945 159.131 134.886 159.131 135.357C158.064 135.418 157.002 135.501 155.94 135.588C155.762 135.039 155.584 134.49 155.406 133.94Z" fill="white"/>
<path d="M162.827 133.953C164.291 134.136 165.756 134.341 167.225 134.524C166.907 134.969 166.589 135.414 166.271 135.859C165.171 135.802 164.071 135.736 162.972 135.654C162.939 135.226 162.864 134.381 162.827 133.953Z" fill="white"/>
<path d="M125.532 148.728C128.096 148.584 130.65 148.371 133.219 148.327C133.111 149.888 134.066 152.085 132.119 152.944C129.916 152.782 127.707 152.748 125.499 152.634C125.513 151.331 125.527 150.027 125.532 148.728Z" fill="white"/>
<path d="M147.817 134.948C149.211 134.66 150.643 134.577 152.052 134.376C152.211 134.738 152.533 135.466 152.693 135.828C151.008 135.942 149.333 136.112 147.649 136.203C147.691 135.889 147.775 135.261 147.817 134.948Z" fill="white"/>
<path d="M124.437 138.065C132.166 136.683 140.027 136.003 147.817 134.948C147.775 135.261 147.691 135.889 147.649 136.203C139.914 136.857 132.161 137.332 124.437 138.065Z" fill="white"/>
<path d="M171.838 135.109C178.379 135.933 184.883 137.062 191.471 137.546C189.716 137.602 187.966 137.511 186.226 137.336C181.458 136.905 176.681 136.643 171.909 136.36L171.899 136.264C171.876 135.876 171.857 135.492 171.838 135.109Z" fill="white"/>
<path d="M184.883 148.257C186.582 148.349 188.28 148.466 189.978 148.571C190.021 149.962 190.049 151.348 190.067 152.739C188.233 152.813 186.399 152.909 184.565 152.987C184.883 151.426 184.972 149.84 184.883 148.257Z" fill="white"/>
<path d="M109.96 139.93C113.334 139.547 116.632 138.758 119.992 138.269C120.333 138.718 120.68 139.167 121.026 139.616C117.942 139.943 114.854 140.227 111.762 140.453C111.163 140.27 110.559 140.1 109.96 139.93Z" fill="white"/>
<path d="M197.9 138.248C201.278 138.688 204.605 139.434 207.978 139.935C206.935 140.018 205.905 140.175 204.871 140.288C203.042 140.288 201.226 140.009 199.406 139.87L199.364 139.778C199.261 139.56 199.06 139.133 198.962 138.915C198.616 138.679 198.26 138.457 197.9 138.248Z" fill="white"/>
<path d="M159.131 141.121C160.511 141.251 161.891 141.378 163.267 141.522C162.705 141.997 162.139 142.459 161.521 142.873C160.721 142.851 159.921 142.79 159.126 142.747C159.126 142.341 159.131 141.526 159.131 141.121Z" fill="white"/>
<path d="M163.267 141.522C166.299 141.661 169.293 142.167 172.32 142.32C172.016 142.555 171.403 143.026 171.099 143.257C167.908 143.078 164.712 143.043 161.521 142.873C162.139 142.459 162.705 141.997 163.267 141.522Z" fill="white"/>
<path d="M194.69 143.597C195.439 143.688 196.197 143.763 196.945 143.906C197.554 144.081 198.157 144.286 198.747 144.521C198.915 144.73 199.247 145.149 199.416 145.358C197.839 145.288 196.267 145.179 194.699 145.07C194.695 144.704 194.69 143.963 194.69 143.597Z" fill="white"/>
<path d="M159.112 146.666C160.062 146.731 161.011 146.792 161.966 146.853C162.003 149.208 161.999 151.566 161.933 153.92C160.993 153.96 160.052 154.003 159.112 154.047C159.116 151.588 159.116 149.125 159.112 146.666Z" fill="white"/>
<path d="M146.877 147.39C149.043 147.272 151.214 147.181 153.38 147.024C153.385 148.868 153.553 150.716 153.413 152.56C153.478 153.254 152.622 153.428 152.159 153.755C150.76 153.746 149.37 153.637 147.971 153.58C148.056 151.784 148.051 149.984 148.018 148.188C147.78 148.022 147.302 147.686 147.064 147.521L146.877 147.39Z" fill="white"/>
<path d="M165.634 147.08C167.043 147.159 168.451 147.25 169.859 147.333C169.85 149.417 169.859 151.501 169.901 153.585C168.502 153.646 167.099 153.711 165.7 153.763C165.704 151.536 165.658 149.308 165.634 147.08Z" fill="white"/>
<path d="M169.859 147.333C171.258 147.411 172.653 147.507 174.052 147.599C174.159 149.548 174.183 151.509 173.799 153.436C172.498 153.48 171.197 153.532 169.901 153.585C169.859 151.501 169.85 149.417 169.859 147.333Z" fill="white"/>
<path d="M140.13 147.778C141.641 147.751 143.148 147.673 144.649 147.542C144.654 149.504 144.645 151.466 144.621 153.428C143.372 153.384 142.123 153.34 140.874 153.279C140.841 151.466 141.398 149.434 140.172 147.847L140.13 147.778Z" fill="white"/>
<path d="M137.589 147.991C138.45 147.943 139.311 147.895 140.172 147.847C141.398 149.434 140.841 151.466 140.874 153.279C139.774 153.231 138.679 153.188 137.58 153.14C137.57 151.422 137.57 149.705 137.589 147.991Z" fill="white"/>
<path d="M88.3391 151.052C96.2277 150.476 104.126 150.04 112.024 149.583C112.997 150.345 112.899 151.366 111.925 152.089C104.07 151.688 96.195 151.475 88.3391 151.052Z" fill="white"/>
<rect x="33" y="20.2073" width="252" height="209.232" stroke="white" stroke-width="10"/>
<path d="M79.6814 174.579C82.1433 174.331 84.7977 174.968 86.5775 176.625C89.6822 179.559 89.0569 185.207 85.1169 187.262C82.1302 188.818 78.0415 188.656 75.3784 186.585C72.9471 184.677 72.3611 181.257 73.5068 178.582C74.4995 176.272 77.0664 174.797 79.6814 174.579ZM79.4933 175.13C77.1845 175.442 75.7545 177.5 75.5228 179.522C75.2167 181.824 75.2429 184.474 76.9046 186.362C78.9205 188.344 82.9479 188.332 84.7627 186.111C85.8822 184.705 86.1052 182.886 86.0964 181.192C86.0483 179.534 85.7247 177.751 84.5178 176.455C83.289 175.158 81.2556 174.818 79.4933 175.13Z" fill="white"/>
<path d="M54.0518 174.777C58.6827 174.773 63.3136 174.773 67.9445 174.777C67.9707 175.9 68.0232 177.026 67.962 178.153C67.1311 177.33 67.2754 175.843 66.0248 175.377C64.7173 175.122 63.3617 175.256 62.0367 175.231C62.0323 178.57 62.0323 181.913 62.0323 185.256C62.0586 185.949 62.0105 186.695 62.3997 187.319C63.0775 187.594 63.834 187.566 64.5599 187.639L64.5642 188.036C62.1766 188.056 59.789 188.044 57.4014 188.044L57.4145 187.647C58.346 187.562 59.9639 187.72 59.9027 186.427C60.0776 182.708 59.8984 178.984 59.9946 175.264C58.5952 175.268 57.1434 175.065 55.7791 175.434C54.6902 176.013 54.9395 177.432 54.0168 178.125C53.9731 177.006 54.0255 175.892 54.0518 174.777Z" fill="white"/>
<path d="M93.9633 174.777C98.5942 174.773 103.225 174.777 107.856 174.777C107.882 175.892 107.93 177.006 107.887 178.125C107.025 177.383 107.222 175.989 106.107 175.442C104.756 175.053 103.308 175.272 101.922 175.268C101.992 178.72 101.918 182.173 101.957 185.625C102.027 186.213 101.891 186.97 102.477 187.38C103.186 187.619 104.078 187.465 104.642 188C102.136 188.073 99.6218 188.089 97.1161 187.992C97.8202 187.189 99.5868 187.963 99.7705 186.711C100.037 182.894 99.8142 179.057 99.8842 175.231C98.5504 175.252 97.1905 175.126 95.8742 175.369C94.6105 175.835 94.8641 177.383 93.937 178.141C93.8889 177.018 93.937 175.896 93.9633 174.777Z" fill="white"/>
<path d="M112.85 186.225C114.765 182.302 116.335 178.238 118.347 174.356C120.398 178.319 122.016 182.461 123.975 186.46C124.294 187.266 125.278 187.477 125.964 187.947C123.94 188.105 121.902 188.073 119.877 187.996C120.398 187.469 121.228 187.505 121.911 187.303C121.587 185.844 120.857 184.507 120.231 183.145C118.43 183.162 116.628 183.157 114.831 183.153C114.38 184.215 113.812 185.257 113.637 186.399C113.611 187.315 114.796 187.505 115.421 187.98C113.864 188.077 112.299 188.081 110.742 187.992C111.459 187.416 112.491 187.108 112.85 186.225ZM115.05 182.716C116.724 182.708 118.399 182.708 120.078 182.712C119.252 180.856 118.412 179 117.595 177.14C116.628 178.951 115.876 180.852 115.05 182.716Z" fill="white"/>
<path d="M130.32 174.83C132.76 174.769 135.213 174.68 137.649 174.891C136.765 175.539 134.828 174.842 134.885 176.33C134.723 179.429 134.85 182.537 134.815 185.637C134.881 186.257 134.688 187.283 135.571 187.465C137.015 187.672 138.536 187.7 139.966 187.388C141.61 186.833 141.663 184.993 142.664 183.895C142.791 185.273 142.704 186.659 142.669 188.04C138.619 188.052 134.57 188.044 130.521 188.044L130.49 187.667C131.343 187.566 132.742 187.603 132.677 186.46C132.803 183.08 132.795 179.685 132.681 176.305C132.777 174.948 130.98 175.588 130.32 174.83Z" fill="white"/>
<path d="M157.165 174.883C159.496 174.697 161.844 174.745 164.179 174.851C163.593 175.284 162.81 175.272 162.128 175.475C161.525 176.467 161.826 177.683 161.743 178.777C161.848 181.054 161.49 183.393 162.067 185.629C163.707 189.021 170.585 187.874 170.524 184.004C170.598 181.585 170.629 179.158 170.515 176.739C170.581 175.487 169.033 175.381 168.136 174.895C169.881 174.709 171.639 174.741 173.388 174.838C172.606 175.434 171.119 175.568 171.154 176.755C170.935 179.507 171.316 182.29 170.931 185.034C170.345 187.546 167.201 188.494 164.734 188.271C162.57 188.219 160.02 187.06 159.797 184.839C159.469 181.942 159.889 179.012 159.587 176.115C159.474 174.944 157.878 175.511 157.165 174.883Z" fill="white"/>
<path d="M178.264 174.887C179.711 174.745 181.176 174.705 182.628 174.814C183.074 175.012 183.293 175.474 183.616 175.807C186.131 178.935 188.68 182.035 191.221 185.143C191.182 182.254 191.308 179.365 191.168 176.479C191.103 175.349 189.638 175.337 188.75 175.146L188.785 174.786C190.578 174.782 192.38 174.725 194.177 174.83C193.547 175.531 192.087 175.325 191.846 176.334C191.501 180.41 192.039 184.531 191.571 188.599C188.007 184.45 184.67 180.138 181.176 175.944C181.198 179.308 181.115 182.675 181.211 186.042C181.08 187.497 182.995 187.347 183.892 187.988C181.977 188.081 180.048 188.093 178.133 187.975C178.819 187.412 179.86 187.436 180.49 186.812C180.84 184.547 180.564 182.242 180.652 179.96C180.577 178.501 180.879 176.962 180.293 175.568C179.637 175.288 178.902 175.207 178.264 174.887Z" fill="white"/>
<path d="M198.83 174.871C201.165 174.717 203.522 174.721 205.862 174.867C205.241 175.328 204.375 175.191 203.706 175.543C203.338 176.135 203.421 176.848 203.382 177.5C203.382 180.086 203.382 182.667 203.382 185.248C203.413 185.925 203.343 186.662 203.732 187.274C204.449 187.501 205.21 187.631 205.897 187.947C203.535 188.105 201.156 188.109 198.795 187.947C199.656 187.424 201.314 187.696 201.248 186.399C201.353 183.06 201.349 179.713 201.252 176.374C201.362 175.025 199.635 175.478 198.83 174.871Z" fill="white"/>
<path d="M211.109 174.777C215.74 174.773 220.371 174.777 225.002 174.777C225.032 175.904 225.081 177.034 225.011 178.165C224.197 177.314 224.315 175.795 223.025 175.361C221.731 175.13 220.402 175.252 219.09 175.231C219.155 179.048 218.954 182.874 219.195 186.683C219.33 187.777 220.76 187.505 221.591 187.647L221.613 188.044C219.164 188.02 216.711 188.109 214.262 187.987C214.896 187.376 215.906 187.68 216.654 187.291C217.061 186.687 216.986 185.945 217.03 185.268C217.034 181.921 217.026 178.574 217.03 175.231C215.718 175.252 214.398 175.138 213.103 175.349C211.743 175.742 212.041 177.387 211.087 178.153C211.03 177.026 211.074 175.9 211.109 174.777Z" fill="white"/>
<path d="M230.656 174.85C234.132 174.688 237.618 174.814 241.098 174.778C241.23 175.977 241.439 177.189 241.278 178.396C240.613 177.395 240.464 175.904 239.135 175.442C237.723 175.102 236.236 175.26 234.793 175.227C234.788 177.083 234.793 178.939 234.788 180.791C235.728 180.775 236.691 180.856 237.622 180.669C238.658 180.426 238.164 179.162 238.855 178.582C238.816 180.199 239.371 182.055 238.584 183.53C238.348 182.845 238.54 181.909 237.841 181.443C236.857 181.156 235.803 181.293 234.793 181.261C234.884 183.247 234.526 185.309 235.129 187.246C236.516 187.809 238.147 187.655 239.598 187.388C241.431 186.877 241.597 184.896 242.668 183.713C242.69 185.159 242.533 186.602 242.432 188.044C238.413 188.016 234.395 188.113 230.385 187.992C230.896 187.603 231.579 187.558 232.182 187.347C232.785 186.979 232.646 186.217 232.72 185.649C232.746 182.939 232.724 180.228 232.729 177.521C232.685 176.872 232.764 176.176 232.427 175.584C231.841 175.325 231.233 175.11 230.656 174.85Z" fill="white"/>
<path d="M248.239 174.879C251.908 174.858 255.8 174.056 259.294 175.434C263.103 177.075 263.991 181.913 262.115 185.131C261.061 186.995 258.752 187.931 256.565 188C253.706 188.081 250.841 188.077 247.981 188C248.607 187.27 250.133 187.874 250.439 186.833C250.754 184.158 250.496 181.447 250.588 178.761C250.518 177.723 250.749 176.593 250.251 175.632C249.669 175.256 248.9 175.406 248.244 175.296C248.244 175.191 248.239 174.984 248.239 174.879ZM252.647 175.134C252.643 178.505 252.639 181.877 252.647 185.252C252.691 185.949 252.595 186.731 253.085 187.331C254.598 187.785 256.272 187.598 257.768 187.169C259.64 186.46 260.519 184.527 260.689 182.768C260.908 180.531 260.567 177.971 258.726 176.342C257.103 174.919 254.707 175.11 252.647 175.134Z" fill="white"/>
<path d="M109.601 193.75C109.929 193.75 110.585 193.75 110.913 193.75C110.913 196.586 110.913 199.423 110.913 202.259C110.585 202.259 109.929 202.259 109.601 202.259C109.601 199.423 109.601 196.586 109.601 193.75Z" fill="white"/>
<path d="M117.489 194.05C117.721 194.05 118.185 194.054 118.412 194.058C118.412 196.833 118.416 199.613 118.412 202.393C118.211 202.356 117.804 202.288 117.603 202.255L117.38 201.599C116.352 202.697 114.35 202.778 113.318 201.647C111.927 200.298 112.531 197.656 114.564 197.182C115.613 196.813 116.645 197.279 117.503 197.822C117.481 196.566 117.485 195.306 117.489 194.05ZM114.599 198.061C113.103 198.75 113.256 201.125 114.874 201.591C116.116 202.012 117.568 201.068 117.489 199.832C117.677 198.442 115.902 197.352 114.599 198.061Z" fill="white"/>
<path d="M92.4241 194.572C94.042 194.69 96.0623 194.155 97.3348 195.354C98.2357 196.282 97.6322 197.672 96.5608 198.219C97.9776 198.624 98.7342 200.27 97.7634 201.404C96.4078 202.75 94.1907 202.227 92.4241 202.332C92.4197 199.747 92.4241 197.162 92.4241 194.572ZM93.4255 195.411C93.4211 196.23 93.4211 197.052 93.4211 197.879C94.5668 197.798 96.6395 198.179 96.7139 196.615C96.5958 195.079 94.5493 195.504 93.4255 195.411ZM93.4255 198.701C93.4211 199.629 93.4211 200.557 93.4211 201.489C94.3788 201.441 95.3889 201.574 96.3072 201.258C97.3261 200.922 97.4004 199.459 96.469 198.989C95.5288 198.572 94.4356 198.762 93.4255 198.701Z" fill="white"/>
<path d="M106.798 194.783C107.301 194.021 108.53 195.196 107.721 195.683C107.139 196.258 106.173 195.306 106.798 194.783Z" fill="white"/>
<path d="M120.538 194.58C121.53 194.228 122.051 195.674 120.979 195.877C120.17 195.865 120.026 195.022 120.538 194.58Z" fill="white"/>
<path d="M192.489 194.767C193.075 194.106 194.116 195.107 193.46 195.671C192.843 196.278 191.776 195.273 192.489 194.767Z" fill="white"/>
<path d="M167.013 195.748C167.227 195.748 167.66 195.748 167.874 195.748C167.874 196.23 167.879 196.716 167.887 197.202C168.425 197.198 168.967 197.202 169.51 197.206V197.924C168.967 197.924 168.425 197.928 167.883 197.932C167.879 198.957 167.83 199.986 167.922 201.011C167.844 201.891 169.064 201.558 169.61 201.627C169.763 202.867 167.336 202.721 167.065 201.708C166.847 200.464 166.982 199.192 166.956 197.94C166.659 197.936 166.055 197.924 165.753 197.92L165.731 197.271C167.008 197.563 167.03 196.631 167.013 195.748Z" fill="white"/>
<path d="M188.457 195.804C188.698 195.796 189.175 195.772 189.415 195.76C189.415 196.108 189.411 196.805 189.411 197.154C189.997 197.36 191.33 196.825 191.134 197.911C190.556 197.92 189.984 197.928 189.411 197.936C189.424 199.046 189.323 200.16 189.494 201.263C189.743 201.915 190.683 201.498 191.208 201.668C191.191 202.875 188.79 202.713 188.584 201.652C188.387 200.424 188.51 199.176 188.492 197.944C188.191 197.936 187.592 197.924 187.294 197.916L187.255 197.231C187.57 197.214 188.191 197.19 188.506 197.174C188.492 196.834 188.471 196.149 188.457 195.804Z" fill="white"/>
<path d="M103.828 197.299C104.043 197.247 104.476 197.137 104.69 197.085C104.786 198.803 104.817 200.529 104.747 202.251L104.288 202.458C104.148 202.263 103.872 201.874 103.737 201.676C102.88 202.819 100.645 202.746 100.116 201.368C99.7704 199.99 99.989 198.552 99.9453 197.15C100.168 197.182 100.614 197.247 100.833 197.275C100.938 198.503 100.728 199.751 100.986 200.967C101.362 202.049 103.26 201.822 103.623 200.829C104.003 199.69 103.798 198.471 103.828 197.299Z" fill="white"/>
<path d="M106.829 197.234C107.052 197.214 107.502 197.174 107.725 197.157C107.769 198.912 107.764 200.671 107.747 202.429C107.519 202.356 107.069 202.215 106.842 202.142C106.776 200.505 106.859 198.867 106.829 197.234Z" fill="white"/>
<path d="M120.432 197.279C120.655 197.235 121.093 197.154 121.311 197.113C121.408 198.847 121.364 200.59 121.368 202.332C121.136 202.332 120.677 202.332 120.445 202.332C120.441 200.647 120.445 198.961 120.432 197.279Z" fill="white"/>
<path d="M124.416 197.713C125.474 196.87 127.464 196.748 128.068 198.126C128.413 199.463 128.26 200.873 128.221 202.239C128.002 202.284 127.56 202.373 127.342 202.413C127.28 201.108 127.482 199.775 127.189 198.491C126.716 197.478 124.937 197.741 124.569 198.71C124.193 199.877 124.399 201.125 124.359 202.328C124.128 202.332 123.664 202.332 123.437 202.332C123.437 200.59 123.428 198.843 123.415 197.101C123.664 197.255 124.167 197.559 124.416 197.713Z" fill="white"/>
<path d="M131.404 197.352C132.515 196.801 133.779 197.133 134.776 197.725C134.95 197.518 135.3 197.101 135.475 196.89C136.017 198.843 135.755 200.93 135.663 202.928C135.257 205.347 131.824 205.379 130.075 204.196C130.197 203.973 130.438 203.532 130.56 203.309C131.461 203.949 132.637 204.48 133.765 204.002C134.846 203.617 134.762 202.413 134.955 201.546C134.006 202.259 132.733 202.717 131.557 202.166C129.432 201.412 129.349 198.215 131.404 197.352ZM132.099 197.992C130.591 198.535 130.499 200.792 131.986 201.412C133.206 202.061 134.889 201.129 134.837 199.828C135.016 198.491 133.407 197.429 132.099 197.992Z" fill="white"/>
<path d="M142.371 197.364C143.556 196.764 144.969 197.133 145.992 197.842C145.253 198.896 144.287 197.619 143.329 197.891C141.593 198.203 141.396 200.727 142.874 201.465C143.696 201.984 144.61 201.429 145.38 201.108C145.502 201.287 145.747 201.639 145.87 201.818C144.846 202.348 143.609 202.741 142.481 202.235C140.408 201.404 140.355 198.272 142.371 197.364Z" fill="white"/>
<path d="M148.734 197.218C150.592 196.534 152.928 197.911 152.744 199.832C152.849 201.911 150.072 203.155 148.24 202.114C146.154 201.113 146.447 197.822 148.734 197.218ZM149.097 197.96C147.435 198.463 147.383 200.983 149.023 201.546C150.264 202.065 151.804 201.125 151.751 199.856C151.922 198.552 150.409 197.47 149.097 197.96Z" fill="white"/>
<path d="M155.368 197.688C156.417 196.963 158.184 196.716 158.945 197.927C159.483 199.329 159.146 200.869 159.225 202.332H158.306C158.262 201.076 158.437 199.799 158.175 198.559C157.812 197.494 155.962 197.704 155.569 198.661C155.136 199.836 155.389 201.116 155.328 202.336L154.41 202.332C154.414 200.549 154.357 198.766 154.454 196.987C154.685 197.161 155.14 197.51 155.368 197.688Z" fill="white"/>
<path d="M161.149 197.725C162.054 196.826 163.821 196.834 164.678 197.794C164.761 198.653 163.707 198.24 163.278 197.988C162.679 197.624 161.485 198.074 161.8 198.827C162.587 199.281 163.554 199.342 164.376 199.727C165.286 200.29 165.115 201.753 164.135 202.178C162.963 202.758 161.577 202.422 160.567 201.725C160.711 201.55 161 201.206 161.144 201.032C161.962 201.579 163.41 202.134 164.017 201.015C163.877 199.974 162.456 200.165 161.7 199.751C160.764 199.54 160.567 198.341 161.149 197.725Z" fill="white"/>
<path d="M171.797 197.769C172.439 197.344 173.17 197.081 173.948 196.979C173.948 197.202 173.939 197.64 173.935 197.863C173.213 197.98 172.186 197.984 171.98 198.815C171.665 199.958 171.836 201.157 171.801 202.328C171.569 202.328 171.11 202.332 170.878 202.336C171.075 200.533 170.432 198.564 171.254 196.89C171.39 197.109 171.661 197.547 171.797 197.769Z" fill="white"/>
<path d="M175.317 197.137C175.54 197.162 175.982 197.218 176.205 197.247C176.218 198.45 176.095 199.67 176.288 200.869C176.546 202.028 178.509 201.874 178.924 200.894C179.371 199.739 179.073 198.474 179.196 197.275C179.423 197.247 179.873 197.186 180.101 197.153C180.096 198.92 180.092 200.683 180.118 202.45C179.725 202.279 179.336 202.113 178.946 201.947C177.91 202.644 176.135 202.737 175.509 201.509C175.041 200.103 175.334 198.584 175.317 197.137Z" fill="white"/>
<path d="M182.222 198.223C182.952 197.117 184.605 196.793 185.847 197.291C186.577 197.328 186.691 198.049 186.188 198.474C185.541 198.118 184.815 197.664 184.028 197.927C182.313 198.418 182.344 201.035 184.001 201.59C185.003 202.028 186.135 200.545 186.822 201.753C185.847 202.283 184.675 202.733 183.551 202.304C181.797 201.773 181.26 199.572 182.222 198.223Z" fill="white"/>
<path d="M192.502 197.223C192.73 197.21 193.189 197.19 193.416 197.178C193.434 198.916 193.429 200.655 193.434 202.393C193.206 202.34 192.747 202.231 192.52 202.178C192.445 200.525 192.529 198.872 192.502 197.223Z" fill="white"/>
<path d="M196.845 197.303C198.729 196.436 201.296 197.822 201.091 199.848C201.174 201.874 198.519 203.106 196.696 202.166C194.606 201.275 194.689 198.077 196.845 197.303ZM197.234 198.045C195.69 198.718 195.848 201.165 197.522 201.607C198.764 201.992 200.155 201.048 200.098 199.828C200.26 198.454 198.541 197.368 197.234 198.045Z" fill="white"/>
<path d="M203.697 197.782C204.69 196.878 206.644 196.724 207.335 198.021C207.799 199.407 207.497 200.898 207.567 202.328C207.34 202.328 206.876 202.332 206.649 202.332C206.631 201.117 206.736 199.893 206.566 198.689C206.294 197.445 204.16 197.68 203.85 198.795C203.535 199.946 203.706 201.153 203.671 202.328C203.443 202.332 202.98 202.332 202.748 202.332C202.993 200.557 202.201 198.503 203.203 196.923C203.325 197.137 203.574 197.567 203.697 197.782Z" fill="white"/>
<path d="M213.427 197.96C214.314 196.967 215.994 196.809 217.174 197.437C217.682 197.692 217.69 198.037 217.2 198.47C216.545 198.134 215.823 197.656 215.036 197.927C213.3 198.413 213.339 201.059 215.018 201.598C215.801 201.882 216.488 201.388 217.166 201.1C217.301 201.286 217.572 201.659 217.712 201.846C216.754 202.283 215.666 202.713 214.603 202.324C212.692 201.785 212.185 199.293 213.427 197.96Z" fill="white"/>
<path d="M220.45 197.267C222.334 196.469 224.801 197.863 224.608 199.844C224.7 201.967 221.805 203.187 219.99 202.057C218.066 201.011 218.324 197.956 220.45 197.267ZM220.834 198.008C219.352 198.568 219.278 200.809 220.703 201.465C221.958 202.162 223.694 201.169 223.611 199.824C223.769 198.487 222.138 197.409 220.834 198.008Z" fill="white"/>
</svg>
