<svg width="364" height="38" viewBox="0 0 364 38" fill="none" xmlns="http://www.w3.org/2000/svg">
<path d="M0.805 37V1.58H26.93V8.4H9.66V15.825H24.895V22.755H9.66V30.18H26.93V37H0.805ZM31.1517 37V10.93H39.4017L39.6767 13.185C40.74 12.4517 42.0783 11.81 43.6917 11.26C45.305 10.6733 47.0283 10.38 48.8617 10.38C52.235 10.38 54.6917 11.1867 56.2317 12.8C57.7717 14.4133 58.5417 16.9067 58.5417 20.28V37H49.6867V20.995C49.6867 19.5283 49.375 18.4833 48.7517 17.86C48.1283 17.2367 47.01 16.925 45.3967 16.925C44.4433 16.925 43.4717 17.145 42.4817 17.585C41.4917 18.025 40.6667 18.575 40.0067 19.235V37H31.1517ZM74.5866 37.55C71.36 37.55 68.9766 36.725 67.4366 35.075C65.9333 33.425 65.1816 31.1517 65.1816 28.255V17.64H61.6616V10.93H65.1816V5.485L74.0366 3.12V10.93H80.3616L79.9766 17.64H74.0366V27.65C74.0366 28.8967 74.3483 29.7767 74.9716 30.29C75.595 30.7667 76.53 31.005 77.7766 31.005C78.84 31.005 79.9216 30.8217 81.0216 30.455V36.45C79.2983 37.1833 77.1533 37.55 74.5866 37.55ZM98.4029 37.55C93.8563 37.55 90.2079 36.4317 87.4579 34.195C84.7079 31.9217 83.3329 28.5117 83.3329 23.965C83.3329 19.8217 84.4696 16.5217 86.7429 14.065C89.0163 11.6083 92.4263 10.38 96.9729 10.38C101.116 10.38 104.325 11.4433 106.598 13.57C108.871 15.6967 110.008 18.5567 110.008 22.15V26.825H91.5279C91.9313 28.5483 92.8663 29.7583 94.3329 30.455C95.8363 31.115 97.8713 31.445 100.438 31.445C101.868 31.445 103.316 31.3167 104.783 31.06C106.286 30.8033 107.533 30.4733 108.523 30.07V35.845C107.276 36.4317 105.791 36.8533 104.068 37.11C102.345 37.4033 100.456 37.55 98.4029 37.55ZM91.5279 21.71H102.308V20.555C102.308 19.2717 101.923 18.2633 101.153 17.53C100.383 16.76 99.0813 16.375 97.2479 16.375C95.1213 16.375 93.6363 16.815 92.7929 17.695C91.9496 18.5383 91.5279 19.8767 91.5279 21.71ZM114.511 37V10.93H122.926L123.201 13.35C124.338 12.6533 125.749 12.03 127.436 11.48C129.123 10.8933 130.809 10.5267 132.496 10.38V17.035C131.543 17.145 130.479 17.3283 129.306 17.585C128.169 17.805 127.069 18.08 126.006 18.41C124.979 18.74 124.099 19.0883 123.366 19.455V37H114.511ZM146.559 37.55C143.333 37.55 140.949 36.725 139.409 35.075C137.906 33.425 137.154 31.1517 137.154 28.255V17.64H133.634V10.93H137.154V5.485L146.009 3.12V10.93H152.334L151.949 17.64H146.009V27.65C146.009 28.8967 146.321 29.7767 146.944 30.29C147.568 30.7667 148.503 31.005 149.749 31.005C150.813 31.005 151.894 30.8217 152.994 30.455V36.45C151.271 37.1833 149.126 37.55 146.559 37.55ZM164.546 37.55C162.896 37.55 161.356 37.2567 159.926 36.67C158.532 36.0833 157.414 35.185 156.571 33.975C155.727 32.7283 155.306 31.1883 155.306 29.355C155.306 26.6783 156.204 24.5883 158.001 23.085C159.834 21.545 162.566 20.775 166.196 20.775H173.456V20.17C173.456 18.85 173.016 17.915 172.136 17.365C171.256 16.7783 169.606 16.485 167.186 16.485C164.216 16.485 161.301 16.9433 158.441 17.86V12.14C159.724 11.6267 161.282 11.205 163.116 10.875C164.986 10.545 166.947 10.38 169.001 10.38C173.034 10.38 176.187 11.205 178.461 12.855C180.771 14.505 181.926 17.1267 181.926 20.72V37H174.171L173.731 34.8C172.777 35.68 171.549 36.3583 170.046 36.835C168.579 37.3117 166.746 37.55 164.546 37.55ZM167.351 32.105C168.744 32.105 169.954 31.8667 170.981 31.39C172.007 30.9133 172.832 30.3083 173.456 29.575V25.89H167.186C164.582 25.89 163.281 26.935 163.281 29.025C163.281 29.9783 163.611 30.73 164.271 31.28C164.931 31.83 165.957 32.105 167.351 32.105ZM188.996 6.805V0.149999H198.621V6.805H188.996ZM189.711 37V17.475H185.861L186.631 10.93H198.566V37H189.711ZM204.208 37V10.93H212.458L212.733 13.185C213.797 12.4517 215.135 11.81 216.748 11.26C218.362 10.6733 220.085 10.38 221.918 10.38C225.292 10.38 227.748 11.1867 229.288 12.8C230.828 14.4133 231.598 16.9067 231.598 20.28V37H222.743V20.995C222.743 19.5283 222.432 18.4833 221.808 17.86C221.185 17.2367 220.067 16.925 218.453 16.925C217.5 16.925 216.528 17.145 215.538 17.585C214.548 18.025 213.723 18.575 213.063 19.235V37H204.208ZM236.918 37V10.93H245.113L245.388 13.24C246.562 12.3967 247.882 11.7183 249.348 11.205C250.815 10.655 252.392 10.38 254.078 10.38C255.838 10.38 257.213 10.655 258.203 11.205C259.193 11.7183 259.963 12.4517 260.513 13.405C261.723 12.525 263.08 11.81 264.583 11.26C266.123 10.6733 267.92 10.38 269.973 10.38C273.017 10.38 275.253 11.1683 276.683 12.745C278.113 14.3217 278.828 16.7233 278.828 19.95V37H270.083V20.995C270.083 19.565 269.772 18.5383 269.148 17.915C268.562 17.255 267.59 16.925 266.233 16.925C265.39 16.925 264.565 17.1083 263.758 17.475C262.952 17.805 262.273 18.2817 261.723 18.905C261.797 19.3083 261.833 19.6933 261.833 20.06C261.87 20.4267 261.888 20.8667 261.888 21.38V37H253.638V20.885C253.638 19.565 253.4 18.575 252.923 17.915C252.483 17.255 251.622 16.925 250.338 16.925C249.422 16.925 248.56 17.1633 247.753 17.64C246.947 18.1167 246.213 18.6667 245.553 19.29V37H236.918ZM297.832 37.55C293.285 37.55 289.637 36.4317 286.887 34.195C284.137 31.9217 282.762 28.5117 282.762 23.965C282.762 19.8217 283.898 16.5217 286.172 14.065C288.445 11.6083 291.855 10.38 296.402 10.38C300.545 10.38 303.753 11.4433 306.027 13.57C308.3 15.6967 309.437 18.5567 309.437 22.15V26.825H290.957C291.36 28.5483 292.295 29.7583 293.762 30.455C295.265 31.115 297.3 31.445 299.867 31.445C301.297 31.445 302.745 31.3167 304.212 31.06C305.715 30.8033 306.962 30.4733 307.952 30.07V35.845C306.705 36.4317 305.22 36.8533 303.497 37.11C301.773 37.4033 299.885 37.55 297.832 37.55ZM290.957 21.71H301.737V20.555C301.737 19.2717 301.352 18.2633 300.582 17.53C299.812 16.76 298.51 16.375 296.677 16.375C294.55 16.375 293.065 16.815 292.222 17.695C291.378 18.5383 290.957 19.8767 290.957 21.71ZM313.94 37V10.93H322.19L322.465 13.185C323.528 12.4517 324.866 11.81 326.48 11.26C328.093 10.6733 329.816 10.38 331.65 10.38C335.023 10.38 337.48 11.1867 339.02 12.8C340.56 14.4133 341.33 16.9067 341.33 20.28V37H332.475V20.995C332.475 19.5283 332.163 18.4833 331.54 17.86C330.916 17.2367 329.798 16.925 328.185 16.925C327.231 16.925 326.26 17.145 325.27 17.585C324.28 18.025 323.455 18.575 322.795 19.235V37H313.94ZM357.375 37.55C354.148 37.55 351.765 36.725 350.225 35.075C348.721 33.425 347.97 31.1517 347.97 28.255V17.64H344.45V10.93H347.97V5.485L356.825 3.12V10.93H363.15L362.765 17.64H356.825V27.65C356.825 28.8967 357.136 29.7767 357.76 30.29C358.383 30.7667 359.318 31.005 360.565 31.005C361.628 31.005 362.71 30.8217 363.81 30.455V36.45C362.086 37.1833 359.941 37.55 357.375 37.55Z" fill="white"/>
</svg>
