<svg width="239" height="115" viewBox="0 0 239 115" fill="none" xmlns="http://www.w3.org/2000/svg">
<path d="M11.73 92.709V105H9.435V99.628H3.6635V105H1.3685V92.709H3.6635V97.996H9.435V92.709H11.73ZM17.729 96.143C18.375 96.143 18.9615 96.2478 19.4885 96.4575C20.0212 96.6672 20.4745 96.9647 20.8485 97.35C21.2282 97.7353 21.52 98.2057 21.724 98.761C21.928 99.3163 22.03 99.9368 22.03 100.622C22.03 101.314 21.928 101.937 21.724 102.492C21.52 103.048 21.2282 103.521 20.8485 103.912C20.4745 104.303 20.0212 104.603 19.4885 104.813C18.9615 105.023 18.375 105.128 17.729 105.128C17.0773 105.128 16.4852 105.023 15.9525 104.813C15.4198 104.603 14.9637 104.303 14.584 103.912C14.21 103.521 13.9182 103.048 13.7085 102.492C13.5045 101.937 13.4025 101.314 13.4025 100.622C13.4025 99.9368 13.5045 99.3163 13.7085 98.761C13.9182 98.2057 14.21 97.7353 14.584 97.35C14.9637 96.9647 15.4198 96.6672 15.9525 96.4575C16.4852 96.2478 17.0773 96.143 17.729 96.143ZM17.729 103.512C18.4543 103.512 18.9898 103.269 19.3355 102.781C19.6868 102.294 19.8625 101.58 19.8625 100.639C19.8625 99.6988 19.6868 98.982 19.3355 98.489C18.9898 97.996 18.4543 97.7495 17.729 97.7495C16.9923 97.7495 16.4455 97.9988 16.0885 98.4975C15.7372 98.9905 15.5615 99.7045 15.5615 100.639C15.5615 101.574 15.7372 102.288 16.0885 102.781C16.4455 103.269 16.9923 103.512 17.729 103.512ZM23.6317 105V96.279H24.9152C25.1872 96.279 25.3657 96.4065 25.4507 96.6615L25.5867 97.3075C25.7397 97.1375 25.8984 96.9817 26.0627 96.84C26.2327 96.6983 26.4112 96.5765 26.5982 96.4745C26.7909 96.3725 26.9949 96.2932 27.2102 96.2365C27.4312 96.1742 27.6721 96.143 27.9327 96.143C28.4824 96.143 28.9329 96.2932 29.2842 96.5935C29.6412 96.8882 29.9076 97.282 30.0832 97.775C30.2192 97.486 30.3892 97.2395 30.5932 97.0355C30.7972 96.8258 31.0211 96.6558 31.2647 96.5255C31.5084 96.3952 31.7662 96.2988 32.0382 96.2365C32.3159 96.1742 32.5936 96.143 32.8712 96.143C33.3529 96.143 33.7807 96.2167 34.1547 96.364C34.5287 96.5113 34.8432 96.7267 35.0982 97.01C35.3532 97.2933 35.5459 97.639 35.6762 98.047C35.8122 98.455 35.8802 98.9225 35.8802 99.4495V105H33.7807V99.4495C33.7807 98.8942 33.6589 98.4777 33.4152 98.2C33.1716 97.9167 32.8146 97.775 32.3442 97.775C32.1289 97.775 31.9277 97.8118 31.7407 97.8855C31.5594 97.9592 31.3979 98.0668 31.2562 98.2085C31.1202 98.3445 31.0126 98.5173 30.9332 98.727C30.8539 98.9367 30.8142 99.1775 30.8142 99.4495V105H28.7062V99.4495C28.7062 98.8658 28.5872 98.4408 28.3492 98.1745C28.1169 97.9082 27.7741 97.775 27.3207 97.775C27.0147 97.775 26.7286 97.8515 26.4622 98.0045C26.2016 98.1518 25.9579 98.3558 25.7312 98.6165V105H23.6317ZM43.4944 99.6365C43.4944 99.3645 43.4547 99.1095 43.3754 98.8715C43.3017 98.6278 43.1884 98.4153 43.0354 98.234C42.8824 98.0527 42.6869 97.911 42.4489 97.809C42.2165 97.7013 41.9445 97.6475 41.6329 97.6475C41.0265 97.6475 40.5477 97.8203 40.1964 98.166C39.8507 98.5117 39.6297 99.0018 39.5334 99.6365H43.4944ZM39.4909 100.903C39.5249 101.351 39.6042 101.739 39.7289 102.067C39.8535 102.39 40.0179 102.66 40.2219 102.875C40.4259 103.085 40.6667 103.243 40.9444 103.351C41.2277 103.453 41.5394 103.504 41.8794 103.504C42.2194 103.504 42.5112 103.464 42.7549 103.385C43.0042 103.306 43.2195 103.218 43.4009 103.121C43.5879 103.025 43.7494 102.937 43.8854 102.858C44.027 102.779 44.163 102.739 44.2934 102.739C44.469 102.739 44.5994 102.804 44.6844 102.934L45.2879 103.699C45.0555 103.971 44.7949 104.201 44.5059 104.388C44.2169 104.569 43.9137 104.717 43.5964 104.83C43.2847 104.938 42.9645 105.014 42.6359 105.06C42.3129 105.105 41.9984 105.128 41.6924 105.128C41.086 105.128 40.5222 105.028 40.0009 104.83C39.4795 104.626 39.0262 104.328 38.6409 103.938C38.2555 103.541 37.9524 103.053 37.7314 102.475C37.5104 101.892 37.3999 101.217 37.3999 100.452C37.3999 99.8575 37.4962 99.2993 37.6889 98.778C37.8815 98.251 38.1564 97.7948 38.5134 97.4095C38.876 97.0185 39.3152 96.7097 39.8309 96.483C40.3522 96.2563 40.9387 96.143 41.5904 96.143C42.14 96.143 42.6472 96.2308 43.1119 96.4065C43.5765 96.5822 43.976 96.84 44.3104 97.18C44.6447 97.5143 44.9054 97.928 45.0924 98.421C45.285 98.9083 45.3814 99.4665 45.3814 100.095C45.3814 100.413 45.3474 100.628 45.2794 100.741C45.2114 100.849 45.081 100.903 44.8884 100.903H39.4909ZM52.5527 105.026C52.4564 105.286 52.3005 105.482 52.0852 105.612C51.8755 105.742 51.6602 105.808 51.4392 105.808H50.5467L55.5107 93.1085C55.6014 92.8705 55.7402 92.6892 55.9272 92.5645C56.1142 92.4342 56.3324 92.369 56.5817 92.369H57.4827L52.5527 105.026ZM70.0199 94.9445C69.9519 95.0635 69.8783 95.1513 69.7989 95.208C69.7253 95.259 69.6318 95.2845 69.5184 95.2845C69.3994 95.2845 69.2691 95.242 69.1274 95.157C68.9914 95.0663 68.8271 94.9672 68.6344 94.8595C68.4418 94.7518 68.2151 94.6555 67.9544 94.5705C67.6994 94.4798 67.3963 94.4345 67.0449 94.4345C66.7276 94.4345 66.4499 94.4742 66.2119 94.5535C65.9739 94.6272 65.7728 94.732 65.6084 94.868C65.4498 95.004 65.3308 95.1683 65.2514 95.361C65.1721 95.548 65.1324 95.7548 65.1324 95.9815C65.1324 96.2705 65.2118 96.5113 65.3704 96.704C65.5348 96.8967 65.7501 97.061 66.0164 97.197C66.2828 97.333 66.5859 97.4548 66.9259 97.5625C67.2659 97.6702 67.6144 97.7863 67.9714 97.911C68.3284 98.03 68.6769 98.1717 69.0169 98.336C69.3569 98.4947 69.6601 98.6987 69.9264 98.948C70.1928 99.1917 70.4053 99.492 70.5639 99.849C70.7283 100.206 70.8104 100.639 70.8104 101.149C70.8104 101.705 70.7141 102.226 70.5214 102.713C70.3344 103.195 70.0568 103.617 69.6884 103.98C69.3258 104.337 68.8809 104.62 68.3539 104.83C67.8269 105.034 67.2234 105.136 66.5434 105.136C66.1524 105.136 65.7671 105.096 65.3874 105.017C65.0078 104.943 64.6423 104.836 64.2909 104.694C63.9453 104.552 63.6194 104.382 63.3134 104.184C63.0074 103.986 62.7354 103.765 62.4974 103.521L63.1689 102.424C63.2256 102.345 63.2993 102.28 63.3899 102.229C63.4806 102.172 63.5769 102.144 63.6789 102.144C63.8206 102.144 63.9736 102.203 64.1379 102.322C64.3023 102.436 64.4978 102.563 64.7244 102.705C64.9511 102.847 65.2146 102.977 65.5149 103.096C65.8209 103.209 66.1864 103.266 66.6114 103.266C67.2631 103.266 67.7674 103.113 68.1244 102.807C68.4814 102.495 68.6599 102.05 68.6599 101.472C68.6599 101.149 68.5778 100.886 68.4134 100.682C68.2548 100.478 68.0423 100.308 67.7759 100.172C67.5096 100.03 67.2064 99.9113 66.8664 99.815C66.5264 99.7187 66.1808 99.6138 65.8294 99.5005C65.4781 99.3872 65.1324 99.2512 64.7924 99.0925C64.4524 98.9338 64.1493 98.727 63.8829 98.472C63.6166 98.217 63.4013 97.8997 63.2369 97.52C63.0783 97.1347 62.9989 96.6615 62.9989 96.1005C62.9989 95.6528 63.0868 95.2165 63.2624 94.7915C63.4438 94.3665 63.7044 93.9897 64.0444 93.661C64.3844 93.3323 64.8038 93.0688 65.3024 92.8705C65.8011 92.6722 66.3734 92.573 67.0194 92.573C67.7448 92.573 68.4134 92.6863 69.0254 92.913C69.6374 93.1397 70.1588 93.457 70.5894 93.865L70.0199 94.9445ZM78.0588 99.6365C78.0588 99.3645 78.0192 99.1095 77.9398 98.8715C77.8662 98.6278 77.7528 98.4153 77.5998 98.234C77.4468 98.0527 77.2513 97.911 77.0133 97.809C76.781 97.7013 76.509 97.6475 76.1973 97.6475C75.591 97.6475 75.1122 97.8203 74.7608 98.166C74.4152 98.5117 74.1942 99.0018 74.0978 99.6365H78.0588ZM74.0553 100.903C74.0893 101.351 74.1687 101.739 74.2933 102.067C74.418 102.39 74.5823 102.66 74.7863 102.875C74.9903 103.085 75.2312 103.243 75.5088 103.351C75.7922 103.453 76.1038 103.504 76.4438 103.504C76.7838 103.504 77.0757 103.464 77.3193 103.385C77.5687 103.306 77.784 103.218 77.9653 103.121C78.1523 103.025 78.3138 102.937 78.4498 102.858C78.5915 102.779 78.7275 102.739 78.8578 102.739C79.0335 102.739 79.1638 102.804 79.2488 102.934L79.8523 103.699C79.62 103.971 79.3593 104.201 79.0703 104.388C78.7813 104.569 78.4782 104.717 78.1608 104.83C77.8492 104.938 77.529 105.014 77.2003 105.06C76.8773 105.105 76.5628 105.128 76.2568 105.128C75.6505 105.128 75.0867 105.028 74.5653 104.83C74.044 104.626 73.5907 104.328 73.2053 103.938C72.82 103.541 72.5168 103.053 72.2958 102.475C72.0748 101.892 71.9643 101.217 71.9643 100.452C71.9643 99.8575 72.0607 99.2993 72.2533 98.778C72.446 98.251 72.7208 97.7948 73.0778 97.4095C73.4405 97.0185 73.8797 96.7097 74.3953 96.483C74.9167 96.2563 75.5032 96.143 76.1548 96.143C76.7045 96.143 77.2117 96.2308 77.6763 96.4065C78.141 96.5822 78.5405 96.84 78.8748 97.18C79.2092 97.5143 79.4698 97.928 79.6568 98.421C79.8495 98.9083 79.9458 99.4665 79.9458 100.095C79.9458 100.413 79.9118 100.628 79.8438 100.741C79.7758 100.849 79.6455 100.903 79.4528 100.903H74.0553ZM83.5019 97.792C83.7739 97.2707 84.0969 96.8627 84.4709 96.568C84.8449 96.2677 85.2869 96.1175 85.7969 96.1175C86.1992 96.1175 86.5222 96.2053 86.7659 96.381L86.6299 97.9535C86.6015 98.0555 86.559 98.1292 86.5024 98.1745C86.4514 98.2142 86.3805 98.234 86.2899 98.234C86.2049 98.234 86.0774 98.2198 85.9074 98.1915C85.743 98.1632 85.5815 98.149 85.4229 98.149C85.1905 98.149 84.9837 98.183 84.8024 98.251C84.621 98.319 84.4567 98.4182 84.3094 98.5485C84.1677 98.6732 84.0402 98.8262 83.9269 99.0075C83.8192 99.1888 83.7172 99.3957 83.6209 99.628V105H81.5214V96.279H82.7539C82.9692 96.279 83.1194 96.3187 83.2044 96.398C83.2894 96.4717 83.346 96.6077 83.3744 96.806L83.5019 97.792ZM95.7257 96.279L92.2662 105H90.3622L86.9027 96.279H88.6367C88.7953 96.279 88.9257 96.3158 89.0277 96.3895C89.1353 96.4632 89.2062 96.5567 89.2402 96.67L90.9232 101.328C91.0138 101.6 91.0932 101.866 91.1612 102.127C91.2292 102.388 91.2887 102.648 91.3397 102.909C91.3963 102.648 91.4587 102.388 91.5267 102.127C91.5947 101.866 91.6768 101.6 91.7732 101.328L93.4902 96.67C93.5298 96.5567 93.6007 96.4632 93.7027 96.3895C93.8047 96.3158 93.9265 96.279 94.0682 96.279H95.7257ZM99.0206 96.279V105H96.9126V96.279H99.0206ZM99.3096 93.7375C99.3096 93.9188 99.2728 94.0888 99.1991 94.2475C99.1255 94.4062 99.0263 94.545 98.9016 94.664C98.7826 94.783 98.641 94.8793 98.4766 94.953C98.3123 95.021 98.1366 95.055 97.9496 95.055C97.7683 95.055 97.5955 95.021 97.4311 94.953C97.2725 94.8793 97.1336 94.783 97.0146 94.664C96.8956 94.545 96.7993 94.4062 96.7256 94.2475C96.6576 94.0888 96.6236 93.9188 96.6236 93.7375C96.6236 93.5505 96.6576 93.3748 96.7256 93.2105C96.7993 93.0462 96.8956 92.9045 97.0146 92.7855C97.1336 92.6665 97.2725 92.573 97.4311 92.505C97.5955 92.4313 97.7683 92.3945 97.9496 92.3945C98.1366 92.3945 98.3123 92.4313 98.4766 92.505C98.641 92.573 98.7826 92.6665 98.9016 92.7855C99.0263 92.9045 99.1255 93.0462 99.1991 93.2105C99.2728 93.3748 99.3096 93.5505 99.3096 93.7375ZM107.409 98.1235C107.346 98.2028 107.284 98.2652 107.222 98.3105C107.165 98.3558 107.08 98.3785 106.967 98.3785C106.859 98.3785 106.754 98.3473 106.652 98.285C106.55 98.217 106.428 98.1433 106.287 98.064C106.145 97.979 105.975 97.9053 105.777 97.843C105.584 97.775 105.343 97.741 105.054 97.741C104.686 97.741 104.363 97.809 104.085 97.945C103.807 98.0753 103.575 98.2652 103.388 98.5145C103.207 98.7638 103.071 99.067 102.98 99.424C102.889 99.7753 102.844 100.175 102.844 100.622C102.844 101.087 102.892 101.501 102.989 101.863C103.091 102.226 103.235 102.532 103.422 102.781C103.609 103.025 103.836 103.212 104.102 103.342C104.368 103.467 104.669 103.529 105.003 103.529C105.337 103.529 105.607 103.49 105.811 103.41C106.02 103.325 106.196 103.235 106.338 103.138C106.479 103.036 106.601 102.946 106.703 102.866C106.811 102.781 106.93 102.739 107.06 102.739C107.23 102.739 107.358 102.804 107.443 102.934L108.046 103.699C107.814 103.971 107.562 104.201 107.29 104.388C107.018 104.569 106.734 104.717 106.44 104.83C106.151 104.938 105.85 105.014 105.539 105.06C105.233 105.105 104.927 105.128 104.621 105.128C104.082 105.128 103.575 105.028 103.099 104.83C102.623 104.626 102.207 104.331 101.85 103.946C101.493 103.561 101.209 103.09 101 102.535C100.796 101.974 100.694 101.336 100.694 100.622C100.694 99.9822 100.784 99.39 100.966 98.846C101.153 98.2963 101.425 97.8232 101.782 97.4265C102.139 97.0242 102.581 96.7097 103.108 96.483C103.635 96.2563 104.241 96.143 104.927 96.143C105.578 96.143 106.148 96.2478 106.635 96.4575C107.128 96.6672 107.57 96.9675 107.961 97.3585L107.409 98.1235ZM114.831 99.6365C114.831 99.3645 114.792 99.1095 114.712 98.8715C114.639 98.6278 114.525 98.4153 114.372 98.234C114.219 98.0527 114.024 97.911 113.786 97.809C113.553 97.7013 113.281 97.6475 112.97 97.6475C112.363 97.6475 111.885 97.8203 111.533 98.166C111.188 98.5117 110.967 99.0018 110.87 99.6365H114.831ZM110.828 100.903C110.862 101.351 110.941 101.739 111.066 102.067C111.19 102.39 111.355 102.66 111.559 102.875C111.763 103.085 112.004 103.243 112.281 103.351C112.565 103.453 112.876 103.504 113.216 103.504C113.556 103.504 113.848 103.464 114.092 103.385C114.341 103.306 114.556 103.218 114.738 103.121C114.925 103.025 115.086 102.937 115.222 102.858C115.364 102.779 115.5 102.739 115.63 102.739C115.806 102.739 115.936 102.804 116.021 102.934L116.625 103.699C116.392 103.971 116.132 104.201 115.843 104.388C115.554 104.569 115.251 104.717 114.933 104.83C114.622 104.938 114.301 105.014 113.973 105.06C113.65 105.105 113.335 105.128 113.029 105.128C112.423 105.128 111.859 105.028 111.338 104.83C110.816 104.626 110.363 104.328 109.978 103.938C109.592 103.541 109.289 103.053 109.068 102.475C108.847 101.892 108.737 101.217 108.737 100.452C108.737 99.8575 108.833 99.2993 109.026 98.778C109.218 98.251 109.493 97.7948 109.85 97.4095C110.213 97.0185 110.652 96.7097 111.168 96.483C111.689 96.2563 112.276 96.143 112.927 96.143C113.477 96.143 113.984 96.2308 114.449 96.4065C114.913 96.5822 115.313 96.84 115.647 97.18C115.982 97.5143 116.242 97.928 116.429 98.421C116.622 98.9083 116.718 99.4665 116.718 100.095C116.718 100.413 116.684 100.628 116.616 100.741C116.548 100.849 116.418 100.903 116.225 100.903H110.828ZM123.615 97.979C123.558 98.0697 123.499 98.1348 123.436 98.1745C123.374 98.2085 123.295 98.2255 123.198 98.2255C123.096 98.2255 122.986 98.1972 122.867 98.1405C122.754 98.0838 122.62 98.0215 122.467 97.9535C122.314 97.8798 122.139 97.8147 121.94 97.758C121.748 97.7013 121.518 97.673 121.252 97.673C120.838 97.673 120.512 97.7608 120.274 97.9365C120.042 98.1122 119.926 98.3417 119.926 98.625C119.926 98.812 119.985 98.9707 120.104 99.101C120.229 99.2257 120.391 99.3362 120.589 99.4325C120.793 99.5288 121.022 99.6167 121.277 99.696C121.532 99.7697 121.79 99.8518 122.051 99.9425C122.317 100.033 122.578 100.138 122.833 100.257C123.088 100.37 123.315 100.518 123.513 100.699C123.717 100.875 123.878 101.087 123.997 101.336C124.122 101.586 124.184 101.886 124.184 102.237C124.184 102.657 124.108 103.045 123.955 103.402C123.808 103.753 123.587 104.059 123.292 104.32C122.997 104.575 122.632 104.776 122.195 104.923C121.765 105.065 121.266 105.136 120.699 105.136C120.399 105.136 120.104 105.108 119.815 105.051C119.532 105 119.257 104.926 118.991 104.83C118.73 104.734 118.487 104.62 118.26 104.49C118.039 104.36 117.843 104.218 117.673 104.065L118.158 103.266C118.22 103.17 118.294 103.096 118.379 103.045C118.464 102.994 118.572 102.968 118.702 102.968C118.832 102.968 118.954 103.005 119.067 103.079C119.186 103.153 119.322 103.232 119.475 103.317C119.628 103.402 119.807 103.481 120.011 103.555C120.221 103.629 120.484 103.665 120.801 103.665C121.051 103.665 121.263 103.637 121.439 103.58C121.62 103.518 121.768 103.439 121.881 103.342C122 103.246 122.085 103.136 122.136 103.011C122.193 102.881 122.221 102.747 122.221 102.611C122.221 102.407 122.159 102.24 122.034 102.11C121.915 101.98 121.753 101.866 121.549 101.77C121.351 101.674 121.122 101.589 120.861 101.515C120.606 101.436 120.342 101.351 120.07 101.26C119.804 101.169 119.541 101.064 119.28 100.945C119.025 100.821 118.795 100.665 118.591 100.478C118.393 100.291 118.232 100.061 118.107 99.7895C117.988 99.5175 117.928 99.1888 117.928 98.8035C117.928 98.4465 117.999 98.1065 118.141 97.7835C118.283 97.4605 118.489 97.18 118.761 96.942C119.039 96.6983 119.382 96.5057 119.79 96.364C120.204 96.2167 120.68 96.143 121.218 96.143C121.819 96.143 122.365 96.2422 122.858 96.4405C123.351 96.6388 123.762 96.8995 124.091 97.2225L123.615 97.979Z" fill="#EBECEE"/>
<path d="M14.08 51.55C11.7333 51.55 9.53333 51.3667 7.48 51C5.46333 50.67 3.72167 50.175 2.255 49.515V41.98C3.86833 42.6767 5.64667 43.245 7.59 43.685C9.57 44.125 11.44 44.345 13.2 44.345C15.4 44.345 17.0317 44.1433 18.095 43.74C19.195 43.3367 19.745 42.4567 19.745 41.1C19.745 40.1833 19.47 39.45 18.92 38.9C18.4067 38.35 17.545 37.8733 16.335 37.47C15.1617 37.03 13.5483 36.5167 11.495 35.93C9.075 35.1967 7.15 34.39 5.72 33.51C4.29 32.5933 3.26333 31.4933 2.64 30.21C2.01667 28.9267 1.705 27.35 1.705 25.48C1.705 22.1067 2.915 19.5217 5.335 17.725C7.755 15.9283 11.33 15.03 16.06 15.03C18.1133 15.03 20.1117 15.195 22.055 15.525C23.9983 15.8183 25.575 16.1667 26.785 16.57V24.16C25.2083 23.5367 23.6133 23.0783 22 22.785C20.4233 22.4917 18.8833 22.345 17.38 22.345C15.4 22.345 13.7867 22.5283 12.54 22.895C11.33 23.2617 10.725 24.105 10.725 25.425C10.725 26.195 10.945 26.8183 11.385 27.295C11.825 27.735 12.5767 28.1383 13.64 28.505C14.74 28.8717 16.225 29.3117 18.095 29.825C20.9917 30.595 23.21 31.53 24.75 32.63C26.29 33.6933 27.3533 34.94 27.94 36.37C28.5267 37.7633 28.82 39.34 28.82 41.1C28.82 44.2167 27.61 46.7467 25.19 48.69C22.77 50.5967 19.0667 51.55 14.08 51.55ZM47.2828 51.55C42.7361 51.55 39.0878 50.4317 36.3378 48.195C33.5878 45.9217 32.2128 42.5117 32.2128 37.965C32.2128 33.8217 33.3495 30.5217 35.6228 28.065C37.8961 25.6083 41.3061 24.38 45.8528 24.38C49.9961 24.38 53.2045 25.4433 55.4778 27.57C57.7511 29.6967 58.8878 32.5567 58.8878 36.15V40.825H40.4078C40.8111 42.5483 41.7461 43.7583 43.2128 44.455C44.7161 45.115 46.7511 45.445 49.3178 45.445C50.7478 45.445 52.1961 45.3167 53.6628 45.06C55.1661 44.8033 56.4128 44.4733 57.4028 44.07V49.845C56.1561 50.4317 54.6711 50.8533 52.9478 51.11C51.2245 51.4033 49.3361 51.55 47.2828 51.55ZM40.4078 35.71H51.1878V34.555C51.1878 33.2717 50.8028 32.2633 50.0328 31.53C49.2628 30.76 47.9611 30.375 46.1278 30.375C44.0011 30.375 42.5161 30.815 41.6728 31.695C40.8295 32.5383 40.4078 33.8767 40.4078 35.71ZM63.3909 51V24.93H71.8059L72.0809 27.35C73.2176 26.6533 74.6293 26.03 76.3159 25.48C78.0026 24.8933 79.6893 24.5267 81.3759 24.38V31.035C80.4226 31.145 79.3593 31.3283 78.1859 31.585C77.0493 31.805 75.9493 32.08 74.8859 32.41C73.8593 32.74 72.9793 33.0883 72.2459 33.455V51H63.3909ZM91.9656 51L81.6806 24.93H90.9206L96.6406 41.87L102.416 24.93H111.656L101.371 51H91.9656ZM116.015 20.805V14.15H125.64V20.805H116.015ZM116.73 51V31.475H112.88L113.65 24.93H125.585V51H116.73ZM144.978 51.55C140.321 51.55 136.673 50.4133 134.033 48.14C131.43 45.8667 130.128 42.475 130.128 37.965C130.128 33.3817 131.485 29.9717 134.198 27.735C136.948 25.4983 140.596 24.38 145.143 24.38C147.05 24.38 148.7 24.5267 150.093 24.82C151.523 25.0767 152.898 25.5167 154.218 26.14V32.41C152.165 31.42 149.763 30.925 147.013 30.925C144.446 30.925 142.485 31.4383 141.128 32.465C139.808 33.4917 139.148 35.325 139.148 37.965C139.148 40.4217 139.771 42.2183 141.018 43.355C142.265 44.455 144.245 45.005 146.958 45.005C149.635 45.005 152.073 44.455 154.273 43.355V49.9C152.953 50.4867 151.523 50.9083 149.983 51.165C148.48 51.4217 146.811 51.55 144.978 51.55ZM172.752 51.55C168.205 51.55 164.557 50.4317 161.807 48.195C159.057 45.9217 157.682 42.5117 157.682 37.965C157.682 33.8217 158.818 30.5217 161.092 28.065C163.365 25.6083 166.775 24.38 171.322 24.38C175.465 24.38 178.673 25.4433 180.947 27.57C183.22 29.6967 184.357 32.5567 184.357 36.15V40.825H165.877C166.28 42.5483 167.215 43.7583 168.682 44.455C170.185 45.115 172.22 45.445 174.787 45.445C176.217 45.445 177.665 45.3167 179.132 45.06C180.635 44.8033 181.882 44.4733 182.872 44.07V49.845C181.625 50.4317 180.14 50.8533 178.417 51.11C176.693 51.4033 174.805 51.55 172.752 51.55ZM165.877 35.71H176.657V34.555C176.657 33.2717 176.272 32.2633 175.502 31.53C174.732 30.76 173.43 30.375 171.597 30.375C169.47 30.375 167.985 30.815 167.142 31.695C166.298 32.5383 165.877 33.8767 165.877 35.71ZM198.271 51.55C196.181 51.55 194.201 51.4033 192.331 51.11C190.461 50.8167 188.976 50.45 187.876 50.01V43.245C189.159 43.795 190.644 44.2167 192.331 44.51C194.018 44.8033 195.521 44.95 196.841 44.95C198.418 44.95 199.554 44.8767 200.251 44.73C200.984 44.5833 201.351 44.18 201.351 43.52C201.351 42.7867 200.764 42.2367 199.591 41.87C198.418 41.5033 196.804 40.9717 194.751 40.275C192.368 39.4317 190.553 38.46 189.306 37.36C188.096 36.2233 187.491 34.555 187.491 32.355C187.491 29.7883 188.444 27.8267 190.351 26.47C192.294 25.0767 195.374 24.38 199.591 24.38C201.241 24.38 202.873 24.5083 204.486 24.765C206.099 25.0217 207.419 25.315 208.446 25.645V32.3C207.419 31.8233 206.246 31.475 204.926 31.255C203.606 31.035 202.414 30.925 201.351 30.925C199.994 30.925 198.839 31.0167 197.886 31.2C196.969 31.3467 196.511 31.7317 196.511 32.355C196.511 33.0517 197.024 33.5467 198.051 33.84C199.078 34.0967 200.563 34.5367 202.506 35.16C204.559 35.7833 206.154 36.4617 207.291 37.195C208.428 37.8917 209.234 38.735 209.711 39.725C210.188 40.715 210.426 41.9617 210.426 43.465C210.426 46.0683 209.399 48.0667 207.346 49.46C205.293 50.8533 202.268 51.55 198.271 51.55Z" fill="white"/>
</svg>
