<svg width="838" height="230" viewBox="0 0 838 230" fill="none" xmlns="http://www.w3.org/2000/svg">
<path d="M131.133 60.7998L123.333 27.3118H134.253L137.425 42.5998L140.233 32.6678V27.3118H149.333L153.753 42.6518L157.185 27.3118H168.105L160.357 60.7998H150.425L145.901 45.5638L141.013 60.7998H131.133ZM181.27 61.3198C178.393 61.3198 175.81 60.8518 173.522 59.9158C171.269 58.9451 169.501 57.5065 168.218 55.5998C166.936 53.6931 166.294 51.3531 166.294 48.5798C166.294 44.6625 167.421 41.5251 169.674 39.1678C171.962 36.8105 175.377 35.6318 179.918 35.6318C184.044 35.6318 187.302 36.6718 189.694 38.7518C192.086 40.7971 193.282 43.6745 193.282 47.3838V51.6478H176.538C177.44 53.5545 179.97 54.5078 184.13 54.5078C185.656 54.5078 187.129 54.3865 188.55 54.1438C189.972 53.8665 191.116 53.5545 191.982 53.2078V59.5518C189.521 60.7305 185.95 61.3198 181.27 61.3198ZM176.538 45.8238H183.714V45.1478C183.714 44.4198 183.454 43.7958 182.934 43.2758C182.449 42.7558 181.565 42.4958 180.282 42.4958C178.896 42.4958 177.925 42.7905 177.37 43.3798C176.816 43.9691 176.538 44.7838 176.538 45.8238ZM195.341 39.3758L198.721 26.7918H207.977L203.713 39.3758H195.341ZM208.772 60.7998V36.1518H219.64L219.9 37.8678C220.836 37.3131 222.066 36.8105 223.592 36.3598C225.117 35.9091 226.677 35.6665 228.272 35.6318V43.8998C227.405 43.9345 226.434 44.0211 225.36 44.1598C224.32 44.2985 223.314 44.4718 222.344 44.6798C221.408 44.8531 220.61 45.0785 219.952 45.3558V60.7998H208.772ZM243.782 61.3198C240.905 61.3198 238.322 60.8518 236.034 59.9158C233.781 58.9451 232.013 57.5065 230.73 55.5998C229.447 53.6931 228.806 51.3531 228.806 48.5798C228.806 44.6625 229.933 41.5251 232.186 39.1678C234.474 36.8105 237.889 35.6318 242.43 35.6318C246.555 35.6318 249.814 36.6718 252.206 38.7518C254.598 40.7971 255.794 43.6745 255.794 47.3838V51.6478H239.05C239.951 53.5545 242.482 54.5078 246.642 54.5078C248.167 54.5078 249.641 54.3865 251.062 54.1438C252.483 53.8665 253.627 53.5545 254.494 53.2078V59.5518C252.033 60.7305 248.462 61.3198 243.782 61.3198ZM239.05 45.8238H246.226V45.1478C246.226 44.4198 245.966 43.7958 245.446 43.2758C244.961 42.7558 244.077 42.4958 242.794 42.4958C241.407 42.4958 240.437 42.7905 239.882 43.3798C239.327 43.9691 239.05 44.7838 239.05 45.8238ZM268.517 60.7998L281.361 27.3118H293.061L305.957 60.7998H294.309L291.709 54.1438H282.713L280.165 60.7998H268.517ZM284.065 46.3438H290.357L287.185 38.2318L284.065 46.3438ZM315.524 61.3198C312.196 61.3198 309.839 60.6438 308.452 59.2918C307.1 57.9398 306.424 55.8078 306.424 52.8958V25.7518H317.604V51.4918C317.604 52.1851 317.743 52.6878 318.02 52.9998C318.297 53.2771 318.783 53.4158 319.476 53.4158C319.927 53.4158 320.36 53.3811 320.776 53.3118C321.227 53.2425 321.643 53.1385 322.024 52.9998V60.1238C321.053 60.5398 320.1 60.8345 319.164 61.0078C318.263 61.2158 317.049 61.3198 315.524 61.3198ZM327.372 60.7998L320.872 36.1518H331.584L334.08 46.4998L336.264 39.8438V36.1518H344.376L347.184 46.4998L349.576 36.1518H360.288L353.788 60.7998H343.856L340.632 51.2318L337.408 60.7998H327.372ZM368.709 61.3198C367.149 61.3198 365.71 61.0425 364.393 60.4878C363.075 59.9331 362.018 59.0665 361.221 57.8878C360.423 56.6745 360.025 55.1318 360.025 53.2598C360.025 50.5905 360.891 48.5451 362.625 47.1238C364.358 45.6678 367.01 44.9398 370.581 44.9398H376.561V44.5758C376.561 43.8825 376.162 43.3625 375.365 43.0158C374.602 42.6345 373.354 42.4438 371.621 42.4438C370.303 42.4438 368.882 42.5651 367.357 42.8078C365.866 43.0158 364.445 43.3278 363.093 43.7438V37.4518C364.41 36.8971 366.057 36.4638 368.033 36.1518C370.009 35.8051 371.95 35.6318 373.857 35.6318C377.878 35.6318 381.102 36.4638 383.529 38.1278C385.955 39.7571 387.169 42.3398 387.169 45.8758V60.7998H377.393L376.925 58.9278C376.058 59.6558 374.949 60.2451 373.597 60.6958C372.279 61.1118 370.65 61.3198 368.709 61.3198ZM372.765 55.0278C373.631 55.0278 374.359 54.8891 374.949 54.6118C375.573 54.2998 376.11 53.9185 376.561 53.4678V50.8158H373.025C371.187 50.8158 370.269 51.5265 370.269 52.9478C370.269 54.3345 371.101 55.0278 372.765 55.0278ZM397.994 69.9518C396.469 69.9518 395.203 69.8651 394.198 69.6918C393.193 69.5531 392.187 69.2758 391.182 68.8598V61.5278C391.702 61.7358 392.205 61.8745 392.69 61.9438C393.21 62.0131 393.747 62.0478 394.302 62.0478C395.515 62.0478 396.451 61.9091 397.11 61.6318C397.803 61.3891 398.427 60.8865 398.982 60.1238L387.802 36.1518H399.502L404.546 49.5678L409.382 36.1518H421.03L412.242 58.1478C410.786 61.7878 408.949 64.6651 406.73 66.7798C404.511 68.8945 401.599 69.9518 397.994 69.9518ZM430.871 61.3198C428.653 61.3198 426.555 61.1465 424.579 60.7998C422.603 60.4878 421.078 60.1065 420.003 59.6558V52.1678C420.835 52.5838 421.771 52.9478 422.811 53.2598C423.886 53.5371 424.961 53.7451 426.035 53.8838C427.11 54.0225 428.029 54.0918 428.791 54.0918C429.797 54.0918 430.594 54.0745 431.183 54.0398C431.773 53.9705 432.067 53.7278 432.067 53.3118C432.067 52.9651 431.79 52.6878 431.235 52.4798C430.715 52.2718 430.022 52.0638 429.155 51.8558C428.289 51.6131 427.335 51.3185 426.295 50.9718C424.042 50.1398 422.378 49.2038 421.303 48.1638C420.263 47.0891 419.743 45.5465 419.743 43.5358C419.743 40.9705 420.766 39.0118 422.811 37.6598C424.891 36.3078 428.098 35.6318 432.431 35.6318C433.506 35.6318 434.65 35.7011 435.863 35.8398C437.077 35.9438 438.221 36.0825 439.295 36.2558C440.405 36.4291 441.289 36.6371 441.947 36.8798V44.2638C440.873 43.7785 439.711 43.4318 438.463 43.2238C437.215 42.9811 436.089 42.8598 435.083 42.8598C434.182 42.8598 433.298 42.8945 432.431 42.9638C431.565 43.0331 431.131 43.2758 431.131 43.6918C431.131 44.1425 431.634 44.4718 432.639 44.6798C433.679 44.8878 434.945 45.2345 436.435 45.7198C438.273 46.2398 439.694 46.8291 440.699 47.4878C441.739 48.1465 442.467 48.9438 442.883 49.8798C443.299 50.8158 443.507 51.9598 443.507 53.3118C443.507 55.8078 442.433 57.7665 440.283 59.1878C438.169 60.6091 435.031 61.3198 430.871 61.3198ZM457.295 60.7998V27.3118H475.391C478.199 27.3118 480.505 27.8491 482.307 28.9238C484.145 29.9638 485.497 31.4025 486.363 33.2398C487.265 35.0771 487.715 37.1745 487.715 39.5318C487.715 41.7851 487.143 43.7785 485.999 45.5118C484.855 47.2105 483.417 48.5625 481.683 49.5678C482.342 50.0878 482.897 50.8505 483.347 51.8558L487.247 60.7998H475.599L472.167 53.0518C471.925 52.5318 471.665 52.1678 471.387 51.9598C471.11 51.7518 470.677 51.6478 470.087 51.6478H468.475V60.7998H457.295ZM468.475 43.0158H472.583C475.079 43.0158 476.327 41.8545 476.327 39.5318C476.327 37.1745 475.166 35.9958 472.843 35.9958H468.475V43.0158ZM503.985 61.3198C501.108 61.3198 498.525 60.8518 496.237 59.9158C493.984 58.9451 492.216 57.5065 490.933 55.5998C489.65 53.6931 489.009 51.3531 489.009 48.5798C489.009 44.6625 490.136 41.5251 492.389 39.1678C494.677 36.8105 498.092 35.6318 502.633 35.6318C506.758 35.6318 510.017 36.6718 512.409 38.7518C514.801 40.7971 515.997 43.6745 515.997 47.3838V51.6478H499.253C500.154 53.5545 502.685 54.5078 506.845 54.5078C508.37 54.5078 509.844 54.3865 511.265 54.1438C512.686 53.8665 513.83 53.5545 514.697 53.2078V59.5518C512.236 60.7305 508.665 61.3198 503.985 61.3198ZM499.253 45.8238H506.429V45.1478C506.429 44.4198 506.169 43.7958 505.649 43.2758C505.164 42.7558 504.28 42.4958 502.997 42.4958C501.61 42.4958 500.64 42.7905 500.085 43.3798C499.53 43.9691 499.253 44.7838 499.253 45.8238ZM526.74 61.3198C525.18 61.3198 523.741 61.0425 522.424 60.4878C521.107 59.9331 520.049 59.0665 519.252 57.8878C518.455 56.6745 518.056 55.1318 518.056 53.2598C518.056 50.5905 518.923 48.5451 520.656 47.1238C522.389 45.6678 525.041 44.9398 528.612 44.9398H534.592V44.5758C534.592 43.8825 534.193 43.3625 533.396 43.0158C532.633 42.6345 531.385 42.4438 529.652 42.4438C528.335 42.4438 526.913 42.5651 525.388 42.8078C523.897 43.0158 522.476 43.3278 521.124 43.7438V37.4518C522.441 36.8971 524.088 36.4638 526.064 36.1518C528.04 35.8051 529.981 35.6318 531.888 35.6318C535.909 35.6318 539.133 36.4638 541.56 38.1278C543.987 39.7571 545.2 42.3398 545.2 45.8758V60.7998H535.424L534.956 58.9278C534.089 59.6558 532.98 60.2451 531.628 60.6958C530.311 61.1118 528.681 61.3198 526.74 61.3198ZM530.796 55.0278C531.663 55.0278 532.391 54.8891 532.98 54.6118C533.604 54.2998 534.141 53.9185 534.592 53.4678V50.8158H531.056C529.219 50.8158 528.3 51.5265 528.3 52.9478C528.3 54.3345 529.132 55.0278 530.796 55.0278ZM559.713 61.3198C557.391 61.3198 555.363 60.9211 553.629 60.1238C551.896 59.3265 550.544 58.0438 549.573 56.2758C548.637 54.4731 548.169 52.1158 548.169 49.2038C548.169 46.1531 548.724 43.6398 549.833 41.6638C550.943 39.6531 552.416 38.1451 554.253 37.1398C556.125 36.1345 558.171 35.6318 560.389 35.6318C561.395 35.6318 562.383 35.7358 563.353 35.9438C564.359 36.1518 565.225 36.4465 565.953 36.8278V25.7518H577.133V60.7998H567.461L566.941 59.0318C565.971 59.7598 564.913 60.3318 563.769 60.7478C562.625 61.1291 561.273 61.3198 559.713 61.3198ZM562.937 53.3118C563.561 53.3118 564.116 53.2078 564.601 52.9998C565.087 52.7918 565.537 52.5145 565.953 52.1678V44.7318C565.156 44.0385 564.151 43.6918 562.937 43.6918C561.724 43.6918 560.857 44.1771 560.337 45.1478C559.817 46.0838 559.557 47.4531 559.557 49.2558C559.557 51.0585 559.835 52.1851 560.389 52.6358C560.979 53.0865 561.828 53.3118 562.937 53.3118ZM589.135 69.9518C587.609 69.9518 586.344 69.8651 585.339 69.6918C584.333 69.5531 583.328 69.2758 582.323 68.8598V61.5278C582.843 61.7358 583.345 61.8745 583.831 61.9438C584.351 62.0131 584.888 62.0478 585.443 62.0478C586.656 62.0478 587.592 61.9091 588.251 61.6318C588.944 61.3891 589.568 60.8865 590.123 60.1238L578.943 36.1518H590.643L595.687 49.5678L600.523 36.1518H612.171L603.383 58.1478C601.927 61.7878 600.089 64.6651 597.871 66.7798C595.652 68.8945 592.74 69.9518 589.135 69.9518ZM624.924 60.7998V27.3118H650.872V35.4758H636.104V39.8958H648.896V48.2678H636.104V60.7998H624.924ZM666.839 61.3198C661.778 61.3198 658.017 60.2451 655.555 58.0958C653.129 55.9118 651.915 52.7051 651.915 48.4758C651.915 44.2465 653.146 41.0571 655.607 38.9078C658.069 36.7238 661.813 35.6318 666.839 35.6318C671.901 35.6318 675.662 36.7238 678.123 38.9078C680.619 41.0571 681.867 44.2465 681.867 48.4758C681.867 52.7051 680.637 55.9118 678.175 58.0958C675.714 60.2451 671.935 61.3198 666.839 61.3198ZM666.839 53.2598C668.087 53.2598 669.006 52.8958 669.595 52.1678C670.185 51.4398 670.479 50.2091 670.479 48.4758C670.479 46.7425 670.185 45.5118 669.595 44.7838C669.006 44.0558 668.087 43.6918 666.839 43.6918C665.626 43.6918 664.725 44.0558 664.135 44.7838C663.581 45.5118 663.303 46.7425 663.303 48.4758C663.303 50.2091 663.581 51.4398 664.135 52.1678C664.725 52.8958 665.626 53.2598 666.839 53.2598ZM684.998 60.7998V36.1518H695.866L696.126 37.8678C697.062 37.3131 698.293 36.8105 699.818 36.3598C701.344 35.9091 702.904 35.6665 704.498 35.6318V43.8998C703.632 43.9345 702.661 44.0211 701.586 44.1598C700.546 44.2985 699.541 44.4718 698.57 44.6798C697.634 44.8531 696.837 45.0785 696.178 45.3558V60.7998H684.998ZM271.31 138.8L284.154 105.312H295.854L308.75 138.8H297.102L294.502 132.144H285.506L282.958 138.8H271.31ZM286.858 124.344H293.15L289.978 116.232L286.858 124.344ZM340.826 139.32C334.482 139.32 329.663 137.846 326.37 134.9C323.111 131.953 321.482 127.706 321.482 122.16C321.482 116.474 323.094 112.158 326.318 109.212C329.542 106.265 334.343 104.792 340.722 104.792C342.871 104.792 344.76 104.948 346.39 105.26C348.019 105.572 349.596 106.022 351.122 106.612V116.336C349.527 115.642 347.95 115.122 346.39 114.776C344.864 114.429 343.235 114.256 341.502 114.256C338.694 114.256 336.544 114.862 335.054 116.076C333.598 117.254 332.87 119.282 332.87 122.16C332.87 124.968 333.632 126.961 335.158 128.14C336.718 129.284 338.867 129.856 341.606 129.856C343.304 129.856 344.934 129.7 346.494 129.388C348.054 129.041 349.631 128.521 351.226 127.828V137.604C349.7 138.158 348.106 138.574 346.442 138.852C344.812 139.164 342.94 139.32 340.826 139.32ZM354.362 138.8V103.752H365.542V115.4C366.339 114.914 367.344 114.498 368.558 114.152C369.771 113.805 371.071 113.632 372.458 113.632C375.89 113.632 378.403 114.446 379.998 116.076C381.627 117.67 382.442 120.132 382.442 123.46V138.8H371.21V124.344C371.21 123.442 371.019 122.818 370.638 122.472C370.291 122.09 369.667 121.9 368.766 121.9C368.211 121.9 367.622 122.038 366.998 122.316C366.408 122.593 365.923 122.922 365.542 123.304V138.8H354.362ZM393.236 139.32C391.676 139.32 390.237 139.042 388.92 138.488C387.603 137.933 386.545 137.066 385.748 135.888C384.951 134.674 384.552 133.132 384.552 131.26C384.552 128.59 385.419 126.545 387.152 125.124C388.885 123.668 391.537 122.94 395.108 122.94H401.088V122.576C401.088 121.882 400.689 121.362 399.892 121.016C399.129 120.634 397.881 120.444 396.148 120.444C394.831 120.444 393.409 120.565 391.884 120.808C390.393 121.016 388.972 121.328 387.62 121.744V115.452C388.937 114.897 390.584 114.464 392.56 114.152C394.536 113.805 396.477 113.632 398.384 113.632C402.405 113.632 405.629 114.464 408.056 116.128C410.483 117.757 411.696 120.34 411.696 123.876V138.8H401.92L401.452 136.928C400.585 137.656 399.476 138.245 398.124 138.696C396.807 139.112 395.177 139.32 393.236 139.32ZM397.292 133.028C398.159 133.028 398.887 132.889 399.476 132.612C400.1 132.3 400.637 131.918 401.088 131.468V128.816H397.552C395.715 128.816 394.796 129.526 394.796 130.948C394.796 132.334 395.628 133.028 397.292 133.028ZM424.805 139.32C421.477 139.32 419.12 138.644 417.733 137.292C416.381 135.94 415.705 133.808 415.705 130.896V103.752H426.885V129.492C426.885 130.185 427.024 130.688 427.301 131C427.579 131.277 428.064 131.416 428.757 131.416C429.208 131.416 429.641 131.381 430.057 131.312C430.508 131.242 430.924 131.138 431.305 131V138.124C430.335 138.54 429.381 138.834 428.445 139.008C427.544 139.216 426.331 139.32 424.805 139.32ZM441.309 139.32C437.981 139.32 435.624 138.644 434.237 137.292C432.885 135.94 432.209 133.808 432.209 130.896V103.752H443.389V129.492C443.389 130.185 443.528 130.688 443.805 131C444.083 131.277 444.568 131.416 445.261 131.416C445.712 131.416 446.145 131.381 446.561 131.312C447.012 131.242 447.428 131.138 447.809 131V138.124C446.839 138.54 445.885 138.834 444.949 139.008C444.048 139.216 442.835 139.32 441.309 139.32ZM463.969 139.32C461.092 139.32 458.509 138.852 456.221 137.916C453.968 136.945 452.2 135.506 450.917 133.6C449.635 131.693 448.993 129.353 448.993 126.58C448.993 122.662 450.12 119.525 452.373 117.168C454.661 114.81 458.076 113.632 462.617 113.632C466.743 113.632 470.001 114.672 472.393 116.752C474.785 118.797 475.981 121.674 475.981 125.384V129.648H459.237C460.139 131.554 462.669 132.508 466.829 132.508C468.355 132.508 469.828 132.386 471.249 132.144C472.671 131.866 473.815 131.554 474.681 131.208V137.552C472.22 138.73 468.649 139.32 463.969 139.32ZM459.237 123.824H466.413V123.148C466.413 122.42 466.153 121.796 465.633 121.276C465.148 120.756 464.264 120.496 462.981 120.496C461.595 120.496 460.624 120.79 460.069 121.38C459.515 121.969 459.237 122.784 459.237 123.824ZM479.08 138.8V114.152H489.532L489.792 115.816C490.694 115.226 491.924 114.724 493.484 114.308C495.044 113.857 496.708 113.632 498.476 113.632C501.492 113.632 503.694 114.412 505.08 115.972C506.467 117.497 507.16 119.837 507.16 122.992V138.8H495.98V124.292C495.98 123.425 495.79 122.818 495.408 122.472C495.027 122.09 494.386 121.9 493.484 121.9C492.93 121.9 492.34 122.038 491.716 122.316C491.127 122.593 490.642 122.922 490.26 123.304V138.8H479.08ZM522.253 147.952C521.039 147.952 519.687 147.9 518.197 147.796C516.741 147.726 515.354 147.588 514.037 147.38C512.719 147.206 511.645 146.981 510.813 146.704V139.996C511.749 140.308 512.841 140.55 514.089 140.724C515.371 140.932 516.671 141.088 517.989 141.192C519.306 141.296 520.502 141.348 521.577 141.348C523.171 141.348 524.471 141.261 525.477 141.088C526.517 140.949 527.037 140.672 527.037 140.256C527.037 139.909 526.846 139.684 526.465 139.58C526.083 139.51 525.494 139.476 524.697 139.476H518.509C515.805 139.476 513.742 139.094 512.321 138.332C510.899 137.534 510.189 136.304 510.189 134.64C510.189 132.282 511.506 130.67 514.141 129.804C512.719 129.076 511.679 128.174 511.021 127.1C510.397 126.025 510.085 124.638 510.085 122.94C510.085 119.75 511.211 117.41 513.465 115.92C515.753 114.394 518.977 113.632 523.137 113.632C524.038 113.632 525.061 113.701 526.205 113.84C527.349 113.944 528.163 114.048 528.649 114.152H538.529L538.321 120.86H535.305C535.721 121.518 535.929 122.264 535.929 123.096C535.929 125.626 535.218 127.62 533.797 129.076C532.41 130.532 530.122 131.26 526.933 131.26C526.517 131.26 526.049 131.242 525.529 131.208C525.009 131.173 524.541 131.138 524.125 131.104C523.501 131.138 522.946 131.242 522.461 131.416C522.01 131.589 521.785 131.884 521.785 132.3C521.785 132.82 522.305 133.08 523.345 133.08H528.337C530.902 133.08 532.93 133.652 534.421 134.796C535.946 135.94 536.709 137.69 536.709 140.048C536.709 142.474 535.547 144.398 533.225 145.82C530.937 147.241 527.279 147.952 522.253 147.952ZM523.241 125.176C524.489 125.176 525.338 124.968 525.789 124.552C526.274 124.136 526.517 123.442 526.517 122.472C526.517 121.466 526.274 120.756 525.789 120.34C525.303 119.889 524.454 119.664 523.241 119.664C522.062 119.664 521.213 119.889 520.693 120.34C520.173 120.756 519.913 121.466 519.913 122.472C519.913 123.408 520.155 124.101 520.641 124.552C521.161 124.968 522.027 125.176 523.241 125.176ZM554.665 139.32C551.787 139.32 549.205 138.852 546.917 137.916C544.663 136.945 542.895 135.506 541.613 133.6C540.33 131.693 539.689 129.353 539.689 126.58C539.689 122.662 540.815 119.525 543.069 117.168C545.357 114.81 548.771 113.632 553.313 113.632C557.438 113.632 560.697 114.672 563.089 116.752C565.481 118.797 566.677 121.674 566.677 125.384V129.648H549.933C550.834 131.554 553.365 132.508 557.525 132.508C559.05 132.508 560.523 132.386 561.945 132.144C563.366 131.866 564.51 131.554 565.377 131.208V137.552C562.915 138.73 559.345 139.32 554.665 139.32ZM549.933 123.824H557.109V123.148C557.109 122.42 556.849 121.796 556.329 121.276C555.843 120.756 554.959 120.496 553.677 120.496C552.29 120.496 551.319 120.79 550.765 121.38C550.21 121.969 549.933 122.784 549.933 123.824Z" fill="#F2F3F5"/>
<path d="M48 53V4H95" stroke="#D2153D" stroke-width="7.62914"/>
<path d="M716 117V169H669" stroke="#D2153D" stroke-width="7.62914"/>
</svg>
